<svg width="137" height="120" fill="none" xmlns="http://www.w3.org/2000/svg"><path d="M33.272 90.61c-.353-.401-.706-.796-1.032-1.217-1.76-2.269-.272-5.611-2.928-7.33-2.683-1.732-6.771.7-9.27-1.29-1.114-.884-1.522-2.399-2.52-3.411-1.732-1.753-5.135-1.406-6.744.387-3.165 3.52.74 7.738-1.909 11.522-1.053 1.501-2.357 3.098-2.146 4.919.237 2.044 2.275 3.335 4.156 4.178 5.624 2.506 14.684 5.387 20.56 2.248 2.77-1.48 4.645-5.007 3.347-7.867-.366-.794-.93-1.474-1.514-2.14z" fill="#6FB331"/><path d="M29.312 82.07c-2.683-1.732-6.771.7-9.27-1.29-1.114-.884-1.522-2.399-2.52-3.411-1.732-1.753-5.135-1.406-6.744.387-3.165 3.52.74 7.738-1.909 11.522-1.053 1.501-2.357 3.098-2.146 4.918.21 1.821 1.854 3.044 3.538 3.886a5.262 5.262 0 0 0 .442-1.63c.129-1.284-.17-2.507-.387-3.736-.469-2.67 2.343-6.76 6.791-4.783 1.06.469 1.936 1.365 3.322 1.114 3.463-.632 1.358-3.75 2.716-5.115.87-.877 2.473-1.393 3.756-1.223 1.637.217 2.567 1.379 4.02 1.8-.216-.951-.624-1.807-1.609-2.439z" fill="#8DD03C"/><path d="m19.674 116.208 4.449-26.495-2.357 26.495h-2.092z" fill="#684825"/><path d="m20.951 108.572-1.277-16.237 2.771 16.053-1.494.184zM23.085 96.228l5.026-2.948-4.693 3.45-.333-.502z" fill="#684825"/><path d="m20.218 98.13-6.723-4.191 7.022 3.668-.299.523z" fill="#684825"/><path d="M69.95 22.02H37.757v94.572H69.95V22.019z" fill="#FFF9EB"/><path d="M67.824 116.591V22.78L52.481 4.084 37.757 22.019v94.572h30.067z" fill="#FFF9EB"/><path d="M69.953 116.593h50.897V22.021H69.953v94.572z" fill="#6DC3CD"/><path d="M105.933.728H52.482l17.475 21.29h53.452L105.933.729zM83.226 36.775v-6.08h-5.515v6.08h5.515z" fill="#275954"/><path d="M78.152 36.34h4.639v-5.21h-4.639v5.21z" fill="#0D677C"/><path d="M82.343 36.34h.448v-5.21h-.448v5.21z" fill="#73DBDF"/><path d="M77.262 36.782h.448v-6.08h-.448v6.08z" fill="#FFF9EB"/><path d="M93.333 36.775v-6.08h-5.515v6.08h5.515z" fill="#275954"/><path d="M88.257 36.339h4.639v-5.21h-4.639v5.21z" fill="#0D677C"/><path d="M92.448 36.339h.448v-5.21h-.448v5.21z" fill="#73DBDF"/><path d="M87.368 36.78h.448V30.7h-.448v6.08z" fill="#FFF9EB"/><path d="M103.439 36.777v-6.08h-5.514v6.08h5.514z" fill="#275954"/><path d="M98.364 36.34h4.639v-5.21h-4.639v5.21z" fill="#0D677C"/><path d="M102.555 36.34h.448v-5.21h-.448v5.21z" fill="#73DBDF"/><path d="M97.474 36.782h.448v-6.08h-.448v6.08z" fill="#FFF9EB"/><path d="M113.543 36.778v-6.08h-5.515v6.08h5.515z" fill="#275954"/><path d="M108.467 36.34h4.639v-5.21h-4.639v5.21z" fill="#0D677C"/><path d="M112.658 36.34h.448v-5.21h-.448v5.21z" fill="#73DBDF"/><path d="M107.578 36.782h.448v-6.08h-.448v6.08z" fill="#FFF9EB"/><path d="M83.222 47.26v-6.08h-5.515v6.08h5.515z" fill="#275954"/><path d="M78.152 46.828h4.639v-5.21h-4.639v5.21z" fill="#0D677C"/><path d="M82.343 46.828h.448v-5.21h-.448v5.21z" fill="#73DBDF"/><path d="M77.262 47.263h.448v-6.08h-.448v6.08z" fill="#FFF9EB"/><path d="M93.33 47.26v-6.08h-5.516v6.08h5.515z" fill="#275954"/><path d="M88.257 46.827h4.639v-5.21h-4.639v5.21z" fill="#0D677C"/><path d="M92.448 46.827h.448v-5.21h-.448v5.21z" fill="#73DBDF"/><path d="M87.368 47.263h.448v-6.08h-.448v6.08z" fill="#FFF9EB"/><path d="M103.436 47.262v-6.08h-5.515v6.08h5.515z" fill="#275954"/><path d="M98.364 46.828h4.639v-5.211h-4.639v5.21z" fill="#0D677C"/><path d="M102.555 46.828h.448v-5.211h-.448v5.21z" fill="#73DBDF"/><path d="M97.474 47.262h.448v-6.08h-.448v6.08z" fill="#FFF9EB"/><path d="M113.539 47.262v-6.08h-5.515v6.08h5.515z" fill="#275954"/><path d="M108.467 46.827h4.639v-5.21h-4.639v5.21z" fill="#0D677C"/><path d="M112.658 46.827h.448v-5.21h-.448v5.21z" fill="#73DBDF"/><path d="M107.578 47.262h.448v-6.08h-.448v6.08z" fill="#FFF9EB"/><path d="M83.225 57.745v-6.08H77.71v6.08h5.515z" fill="#275954"/><path d="M78.152 57.315h4.639v-5.21h-4.639v5.21z" fill="#0D677C"/><path d="M82.343 57.315h.448v-5.21h-.448v5.21z" fill="#73DBDF"/><path d="M77.262 57.75h.448v-6.08h-.448v6.08z" fill="#FFF9EB"/><path d="M93.332 57.746v-6.08h-5.515v6.08h5.515z" fill="#275954"/><path d="M88.257 57.316h4.639v-5.21h-4.639v5.21z" fill="#0D677C"/><path d="M92.448 57.316h.448v-5.21h-.448v5.21z" fill="#73DBDF"/><path d="M87.368 57.75h.448v-6.08h-.448v6.08z" fill="#FFF9EB"/><path d="M103.438 57.747v-6.08h-5.515v6.08h5.515z" fill="#275954"/><path d="M98.364 57.316h4.639v-5.21h-4.639v5.21z" fill="#0D677C"/><path d="M102.555 57.316h.448v-5.21h-.448v5.21z" fill="#73DBDF"/><path d="M97.474 57.75h.448v-6.08h-.448v6.08z" fill="#FFF9EB"/><path d="M113.542 57.747v-6.08h-5.515v6.08h5.515z" fill="#275954"/><path d="M108.467 57.315h4.639v-5.21h-4.639v5.21z" fill="#0D677C"/><path d="M112.658 57.315h.448v-5.21h-.448v5.21z" fill="#73DBDF"/><path d="M107.578 57.75h.448v-6.08h-.448v6.08z" fill="#FFF9EB"/><path d="M83.228 68.23v-6.08h-5.515v6.08h5.515z" fill="#275954"/><path d="M78.152 67.797h4.639v-5.211h-4.639v5.21z" fill="#0D677C"/><path d="M82.343 67.797h.448v-5.211h-.448v5.21z" fill="#73DBDF"/><path d="M77.262 68.231h.448v-6.08h-.448v6.08z" fill="#FFF9EB"/><path d="M93.333 68.23v-6.08h-5.515v6.08h5.515z" fill="#275954"/><path d="M88.257 67.797h4.639v-5.211h-4.639v5.21z" fill="#0D677C"/><path d="M92.448 67.797h.448v-5.211h-.448v5.21z" fill="#73DBDF"/><path d="M87.368 68.231h.448v-6.08h-.448v6.08z" fill="#FFF9EB"/><path d="M103.441 68.232v-6.08h-5.515v6.08h5.515z" fill="#275954"/><path d="M98.364 67.796h4.638v-5.21h-4.638v5.21z" fill="#0D677C"/><path d="M102.554 67.796h.448v-5.21h-.448v5.21z" fill="#73DBDF"/><path d="M97.474 68.23h.448v-6.08h-.448v6.08z" fill="#FFF9EB"/><path d="M113.544 68.232v-6.08h-5.515v6.08h5.515z" fill="#275954"/><path d="M108.467 67.796h4.639v-5.21h-4.639v5.21z" fill="#0D677C"/><path d="M112.658 67.796h.448v-5.21h-.448v5.21z" fill="#73DBDF"/><path d="M107.578 68.23h.448v-6.08h-.448v6.08z" fill="#FFF9EB"/><path d="M83.224 78.715v-6.08h-5.515v6.08h5.515z" fill="#275954"/><path d="M78.152 78.284h4.639v-5.21h-4.639v5.21z" fill="#0D677C"/><path d="M82.343 78.284h.448v-5.21h-.448v5.21z" fill="#73DBDF"/><path d="M77.262 78.719h.448v-6.08h-.448v6.08z" fill="#FFF9EB"/><path d="M93.33 78.716v-6.08h-5.515v6.08h5.515z" fill="#275954"/><path d="M88.257 78.284h4.639v-5.21h-4.639v5.21z" fill="#0D677C"/><path d="M92.448 78.284h.448v-5.21h-.448v5.21z" fill="#73DBDF"/><path d="M87.368 78.719h.448v-6.08h-.448v6.08z" fill="#FFF9EB"/><path d="M103.437 78.717v-6.08h-5.515v6.08h5.515z" fill="#275954"/><path d="M98.364 78.284h4.639v-5.21h-4.639v5.21z" fill="#0D677C"/><path d="M102.555 78.284h.448v-5.21h-.448v5.21z" fill="#73DBDF"/><path d="M97.474 78.719h.448v-6.08h-.448v6.08z" fill="#FFF9EB"/><path d="M113.54 78.718v-6.08h-5.515v6.08h5.515z" fill="#275954"/><path d="M108.467 78.284h4.639v-5.21h-4.639v5.21z" fill="#0D677C"/><path d="M112.658 78.284h.448v-5.21h-.448v5.21z" fill="#73DBDF"/><path d="M107.578 78.72h.448v-6.08h-.448v6.08z" fill="#FFF9EB"/><path d="M103.439 89.202v-6.08h-5.514v6.08h5.514z" fill="#275954"/><path d="M98.364 88.766h4.639v-5.211h-4.639v5.21z" fill="#0D677C"/><path d="M102.555 88.766h.448v-5.211h-.448v5.21z" fill="#73DBDF"/><path d="M97.474 89.207h.448v-6.08h-.448v6.08z" fill="#FFF9EB"/><path d="M113.543 89.203v-6.08h-5.515v6.08h5.515z" fill="#275954"/><path d="M108.467 88.766h4.639v-5.21h-4.639v5.21z" fill="#0D677C"/><path d="M112.658 88.766h.448v-5.21h-.448v5.21z" fill="#73DBDF"/><path d="M107.578 89.207h.448v-6.08h-.448v6.08z" fill="#FFF9EB"/><path d="M103.436 99.687v-6.08h-5.515v6.08h5.515z" fill="#275954"/><path d="M98.364 99.253h4.639v-5.21h-4.639v5.21z" fill="#0D677C"/><path d="M102.555 99.253h.448v-5.21h-.448v5.21z" fill="#73DBDF"/><path d="M97.474 99.688h.448v-6.08h-.448v6.08z" fill="#FFF9EB"/><path d="M113.539 99.688v-6.08h-5.515v6.08h5.515z" fill="#275954"/><path d="M108.467 99.253h4.639v-5.21h-4.639v5.21z" fill="#0D677C"/><path d="M112.658 99.253h.448v-5.21h-.448v5.21z" fill="#73DBDF"/><path d="M107.578 99.688h.448v-6.08h-.448v6.08z" fill="#FFF9EB"/><path d="m52.482.728 17.475 21.29h53.451l-1.705 1.224-53.492.006-15.73-19.164-14.724 17.935h-2.75L52.481.728z" fill="#6DC3CD"/><path stroke="#275954" stroke-width="2.822" d="M.454 117.71h135.757"/></svg>