<svg width="97" height="97" fill="none" xmlns="http://www.w3.org/2000/svg"><path d="M76.792 16.167H72.75V8.083h-8.083v8.084H32.333V8.083H24.25v8.084h-4.042c-4.486 0-8.043 3.637-8.043 8.083l-.04 56.583a8.083 8.083 0 0 0 8.083 8.084h56.584c4.445 0 8.083-3.638 8.083-8.084V24.25c0-4.446-3.638-8.083-8.083-8.083zm0 64.666H20.208V40.417h56.584v40.416zm0-48.5H20.208V24.25h56.584v8.083zm-40.417 24.25h-8.083V48.5h8.083v8.083zm16.167 0h-8.084V48.5h8.084v8.083zm16.166 0h-8.083V48.5h8.083v8.083zM36.375 72.75h-8.083v-8.083h8.083v8.083zm16.167 0h-8.084v-8.083h8.084v8.083zm16.166 0h-8.083v-8.083h8.083v8.083z" fill="url(#a)"/><defs><linearGradient id="a" x1="48.5" y1="8.083" x2="48.5" y2="88.917" gradientUnits="userSpaceOnUse"><stop stop-color="#28C985"/><stop offset="1" stop-color="#18808A"/></linearGradient></defs></svg>