<svg width="144" height="96" fill="none" xmlns="http://www.w3.org/2000/svg"><path d="M143 85.888H1v9.347h142v-9.347z" fill="url(#a)"/><path d="M1 1h142M138.856 85.905v-17.12M132.791 85.905v-17.12M126.707 85.905v-17.12M120.642 85.905v-17.12M114.576 85.905v-17.12M138.856 68.785h-24.28M114.576 68.785l24.28 17.12M52.294 69.166l-3.43 1.409a2.716 2.716 0 0 0-1.508 3.497l2.767 7.242a.65.65 0 0 0 .614.415H89.6a.667.667 0 0 0 .613-.415l2.85-7.441a2.732 2.732 0 0 0-1.292-3.398l-3.199-1.64" stroke="#062023" stroke-width=".5" stroke-miterlimit="10" stroke-linecap="round" stroke-linejoin="round"/><path d="M69.448 74.95H53.073a.612.612 0 0 1-.613-.613V67.21c0-.348.282-.613.613-.613h16.375c.348 0 .613.282.613.613v7.11c0 .348-.282.63-.614.63zM69.548 79.458H51.15a.612.612 0 0 1-.613-.613V76.74c0-.348.282-.613.613-.613h18.397c.348 0 .613.282.613.613v2.105c.016.331-.265.613-.613.613zM89.7 79.458H71.305a.612.612 0 0 1-.613-.613V76.74c0-.348.282-.613.613-.613h18.397c.348 0 .613.282.613.613v2.105c.016.331-.265.613-.613.613zM87.679 74.95H71.304a.612.612 0 0 1-.613-.613V67.21c0-.348.282-.613.613-.613H87.68c.348 0 .613.282.613.613v7.11c0 .348-.265.63-.613.63zM51.051 81.728l-.248 4.028c0 .1.132.132.182.033l1.757-4.06M89.303 81.728l.249 4.028c0 .1-.133.132-.183.033l-1.756-4.06M22.992 85.921h-3.911c-1.011 0-1.89-.63-2.055-1.491l-.995-4.906c-.215-1.094.763-2.105 2.055-2.105h5.9c1.293 0 2.288 1.011 2.056 2.105l-.995 4.906c-.166.862-1.027 1.491-2.055 1.491z" stroke="#062023" stroke-width=".5" stroke-miterlimit="10" stroke-linecap="round" stroke-linejoin="round"/><path d="M22.164 77.42s-.05-1.343.961-2.437c1.011-1.094 3.597-4.823 4.823-5.138 1.227-.314 3.912-.232 3.912-.232s-2.868.183-3.597 1.276c-.729 1.094-1.624 3.78-3.812 4.508-.828.266-1.276 2.022-1.276 2.022" stroke="#062023" stroke-width=".5" stroke-miterlimit="10" stroke-linecap="round" stroke-linejoin="round"/><path d="M21.335 77.237s.348-6.447 3.812-8.933c1.591-1.143 2.088-2.652 3.547-2.917-.78.862.215 2.9-1.807 3.812 0 0-1.524.398-2.22 2.652-.431 1.392-1.542 3.132-1.542 3.132" stroke="#062023" stroke-width=".5" stroke-miterlimit="10" stroke-linecap="round" stroke-linejoin="round"/><path d="M21.749 74.502s-.348-5.75-1.74-6.513c-1.376-.762-3.414-1.657-4.707-.911-1.06.596-1.541 1.872-2.52 2.104 1.31-.05 3.017-2.651 4.575-1.723.696.414 3.149 1.458 3.68 9.795" stroke="#062023" stroke-width=".5" stroke-miterlimit="10" stroke-linecap="round" stroke-linejoin="round"/><path d="M19.313 77.237s-1.59-4.193-2.784-5.072c-.68-.497-3.63-1.756-5.618-1.657.63.564 1.79 1.79 2.75 1.956 2.238.38 4.476 2.95 5.188 4.773" stroke="#062023" stroke-width=".5" stroke-miterlimit="10" stroke-linecap="round" stroke-linejoin="round"/><path d="M20.622 77.237s-1.143-5.503-2.287-6.48c-1.143-.962-1.906-1.558-2.983-2.636-1.077-1.077-3.563-2.138-4.309-2.138 1.409 0 1.989.962 2.138 1.343.713 1.939 3.398 2.884 3.845 4.276.696 2.121 2.52 3.762 2.453 5.618M21.27 70.873s.33-2.701 1.458-3.828c.281-.282.546-1.127.546-1.575-.033 1.011.846 2.934.464 4.26M71.999 1.017v27.727M74.767 32.887c.73 1.873-.48 4.027-2.486 4.21-.1.016-.199.016-.281.016-.083 0-.2 0-.282-.016-1.989-.183-3.199-2.32-2.503-4.193l.746-1.956c.133-.348.199-.73.199-1.11v-.481c0-.332.265-.613.613-.613h2.436c.332 0 .614.265.614.613v.464c0 .381.066.762.215 1.127l.73 1.939z" stroke="#062023" stroke-width=".5" stroke-miterlimit="10" stroke-linecap="round" stroke-linejoin="round"/><defs><linearGradient id="a" x1="1.001" y1="90.566" x2="142.998" y2="90.566" gradientUnits="userSpaceOnUse"><stop offset=".002" stop-color="#28C985"/><stop offset="1" stop-color="#18808A"/></linearGradient></defs></svg>