<svg width="144" height="95" fill="none" xmlns="http://www.w3.org/2000/svg"><path d="M1 94.169h142" stroke="#062023" stroke-miterlimit="10" stroke-linecap="round" stroke-linejoin="round"/><path d="M143 0H1v9.347h142V0z" fill="url(#a)"/><path d="M138.857 93.97V76.866M132.791 93.97V76.866M126.708 93.97V76.866M120.642 93.97V76.866M114.577 93.97V76.866M138.857 76.866h-24.28M114.577 76.866l24.28 17.104" stroke="#062023" stroke-miterlimit="10" stroke-linecap="round" stroke-linejoin="round"/><path d="m52.295 77.247-3.431 1.409a2.716 2.716 0 0 0-1.508 3.497l2.767 7.242a.65.65 0 0 0 .614.415H89.6a.667.667 0 0 0 .613-.415l2.85-7.441a2.731 2.731 0 0 0-1.292-3.398l-3.198-1.64" stroke="#062023" stroke-width=".5" stroke-miterlimit="10" stroke-linecap="round" stroke-linejoin="round"/><path d="M69.448 83.015H53.074a.612.612 0 0 1-.613-.614v-7.11c0-.348.282-.613.613-.613h16.374c.348 0 .614.282.614.613v7.11a.612.612 0 0 1-.614.614zM69.548 87.54H51.152a.612.612 0 0 1-.613-.614v-2.104c0-.348.282-.614.613-.614h18.396c.348 0 .614.282.614.614v2.105a.612.612 0 0 1-.614.613zM89.7 87.54H71.305a.612.612 0 0 1-.613-.614v-2.104c0-.348.282-.614.613-.614h18.397c.348 0 .613.282.613.614v2.105c.016.331-.265.613-.613.613zM87.679 83.015H71.304a.612.612 0 0 1-.613-.614v-7.11c0-.348.282-.613.613-.613H87.68c.348 0 .613.282.613.613v7.11a.602.602 0 0 1-.613.614zM51.052 89.81l-.249 4.027c0 .1.133.132.183.033l1.757-4.06M89.302 89.81l.25 4.027c0 .1-.134.132-.183.033l-1.757-4.06M22.993 93.986H19.08c-1.01 0-1.889-.63-2.055-1.492l-.994-4.905c-.216-1.094.762-2.105 2.055-2.105h5.9c1.293 0 2.287 1.01 2.055 2.105l-.994 4.905c-.166.879-1.028 1.492-2.055 1.492zM22.165 85.484s-.05-1.342.961-2.436c.994-1.094 3.596-4.823 4.823-5.138 1.226-.315 3.911-.232 3.911-.232s-2.867.183-3.596 1.276c-.73 1.094-1.624 3.78-3.812 4.508-.829.266-1.276 2.022-1.276 2.022" stroke="#062023" stroke-width=".5" stroke-miterlimit="10" stroke-linecap="round" stroke-linejoin="round"/><path d="M21.336 85.319s.348-6.447 3.812-8.933c1.59-1.144 2.088-2.652 3.546-2.917-.779.862.216 2.9-1.806 3.812 0 0-1.525.397-2.22 2.651-.432 1.392-1.542 3.133-1.542 3.133" stroke="#062023" stroke-width=".5" stroke-miterlimit="10" stroke-linecap="round" stroke-linejoin="round"/><path d="M21.75 82.568s-.348-5.751-1.74-6.513c-1.376-.763-3.415-1.658-4.707-.912-1.061.597-1.542 1.873-2.52 2.105 1.31-.05 3.017-2.652 4.575-1.724.696.415 3.149 1.459 3.68 9.795" stroke="#062023" stroke-width=".5" stroke-miterlimit="10" stroke-linecap="round" stroke-linejoin="round"/><path d="M19.314 85.319s-1.591-4.193-2.784-5.072c-.68-.497-3.63-1.756-5.619-1.657.614.547 1.774 1.79 2.735 1.956 2.237.38 4.475 2.95 5.187 4.773" stroke="#062023" stroke-width=".5" stroke-miterlimit="10" stroke-linecap="round" stroke-linejoin="round"/><path d="M20.622 85.319s-1.143-5.503-2.287-6.48c-1.143-.962-1.906-1.558-2.983-2.636-1.094-1.077-3.563-2.138-4.309-2.138 1.409 0 1.989.962 2.138 1.343.713 1.939 3.397 2.884 3.845 4.276.696 2.121 2.52 3.762 2.453 5.618M21.269 78.938s.331-2.701 1.458-3.828c.282-.282.547-1.127.547-1.575-.033 1.011.845 2.934.464 4.26M72 9.099v27.727M74.767 40.953c.73 1.873-.48 4.027-2.486 4.21-.1.016-.199.016-.282.016-.099 0-.198 0-.281-.017-1.989-.182-3.199-2.32-2.503-4.193l.746-1.955c.133-.348.199-.73.199-1.11v-.481c0-.332.265-.613.613-.613h2.436c.332 0 .614.265.614.613v.464c0 .381.066.762.215 1.127l.73 1.939z" stroke="#062023" stroke-width=".5" stroke-miterlimit="10" stroke-linecap="round" stroke-linejoin="round"/><defs><linearGradient id="a" x1="1.001" y1="4.675" x2="142.996" y2="4.675" gradientUnits="userSpaceOnUse"><stop offset=".002" stop-color="#28C985"/><stop offset="1" stop-color="#18808A"/></linearGradient></defs></svg>