<svg width="79" height="103" fill="none" xmlns="http://www.w3.org/2000/svg"><path d="M78.335 103H.665a.662.662 0 0 1-.665-.671V.671C0 .295.293 0 .666 0h77.669c.372 0 .665.295.665.67V102.33a.67.67 0 0 1-.665.671z" fill="url(#a)"/><path d="M63.094 98.693H15.92a1.39 1.39 0 0 1-1.384-1.315L9.598 5.715c-.04-.765.572-1.422 1.33-1.422h57.157c.773 0 1.372.644 1.332 1.422l-4.952 91.663a1.379 1.379 0 0 1-1.371 1.315z" fill="#FEF7EC" stroke="#062023" stroke-width="3" stroke-miterlimit="10" stroke-linecap="round" stroke-linejoin="round"/><path d="M54.814 93.541H24.186c-1.465 0-2.663-1.207-2.663-2.683V77.226c0-1.475 1.198-2.683 2.663-2.683h30.628c1.464 0 2.662 1.207 2.662 2.683v13.632c0 1.475-1.198 2.683-2.662 2.683z" fill="url(#b)"/><path d="M51.22 86.27c1.22 0 2.21-.998 2.21-2.228 0-1.23-.99-2.227-2.21-2.227s-2.21.997-2.21 2.227.99 2.227 2.21 2.227zM27.78 86.27c1.22 0 2.21-.997 2.21-2.227s-.99-2.228-2.21-2.228-2.21.998-2.21 2.228c0 1.23.99 2.227 2.21 2.227z" fill="#FEF7EC"/><path d="M46.775 79.266H32.239v9.552h14.536v-9.552z" fill="#062023"/><g clip-path="url(#c)"><path d="m35.652 60.709 18.446-32.014c.418-.724-.175-1.616-.999-1.503l-12.27 1.68 2.932-15.513c.099-.523-.57-.822-.889-.398L24.736 37.09c-.529.703.03 1.702.9 1.61l13.528-1.435L34.73 60.36c-.106.557.64.839.923.348z" fill="#FFDC64"/><path d="M30.407 35.382a.417.417 0 0 1-.383-.637l13.56-21.868c-.202-.161-.52-.172-.712.084l-18.136 24.13c-.529.703.03 1.703.9 1.61l13.528-1.435-4.435 23.095c-.06.311.15.53.393.583l7.599-24.238c.356-1.136-.542-2.274-1.72-2.179l-10.594.855z" fill="#FFC850"/></g><defs><linearGradient id="a" x1="-5.6" y1="6.037" x2="85.32" y2="96.24" gradientUnits="userSpaceOnUse"><stop offset=".002" stop-color="#28C985"/><stop offset="1" stop-color="#18808A"/></linearGradient><linearGradient id="b" x1="26.584" y1="71.017" x2="52.625" y2="96.852" gradientUnits="userSpaceOnUse"><stop offset=".002" stop-color="#28C985"/><stop offset="1" stop-color="#18808A"/></linearGradient><clipPath id="c"><path fill="#fff" transform="translate(15.472 12.76)" d="M0 0h47.822v48.203H0z"/></clipPath></defs></svg>