<svg width="118" height="98" fill="none" xmlns="http://www.w3.org/2000/svg"><path d="M107.24 97.6H2.012A2.012 2.012 0 0 1 0 95.586V27.083c0-1.118.907-2.012 2.012-2.012H107.24c1.118 0 2.013.907 2.013 2.012v68.504a1.996 1.996 0 0 1-2.013 2.012z" fill="url(#a)"/><path d="M12.614 92.64H9.258a1.131 1.131 0 0 1-1.13-1.13V31.16c0-.63.512-1.13 1.13-1.13H12.6c.632 0 1.132.512 1.132 1.13v60.336c.013.63-.5 1.144-1.118 1.144zM25.096 92.64h-3.34a1.131 1.131 0 0 1-1.132-1.13V31.16c0-.63.513-1.13 1.132-1.13h3.34c.632 0 1.132.512 1.132 1.13v60.336c0 .63-.513 1.144-1.132 1.144zM37.578 92.64h-3.34a1.131 1.131 0 0 1-1.132-1.13V31.16c0-.63.513-1.13 1.131-1.13h3.341c.632 0 1.132.512 1.132 1.13v60.336c0 .63-.5 1.144-1.132 1.144zM50.062 92.64H46.72a1.131 1.131 0 0 1-1.131-1.13V31.16c0-.63.513-1.13 1.13-1.13h3.342c.631 0 1.131.512 1.131 1.13v60.336c0 .63-.5 1.144-1.131 1.144zM62.544 92.64h-3.341a1.131 1.131 0 0 1-1.132-1.13V31.16c0-.63.514-1.13 1.132-1.13h3.34c.632 0 1.132.512 1.132 1.13v60.336c0 .63-.5 1.144-1.131 1.144zM75.027 92.64h-3.34a1.131 1.131 0 0 1-1.132-1.13V31.16c0-.63.513-1.13 1.131-1.13h3.341c.632 0 1.131.512 1.131 1.13v60.336c.013.63-.5 1.144-1.13 1.144zM87.509 92.64h-3.34a1.131 1.131 0 0 1-1.132-1.13V31.16c0-.63.513-1.13 1.131-1.13h3.341c.631 0 1.131.512 1.131 1.13v60.336c.013.63-.5 1.144-1.131 1.144zM99.993 92.64h-3.341a1.131 1.131 0 0 1-1.132-1.13V31.16c0-.63.513-1.13 1.132-1.13h3.34c.632 0 1.132.512 1.132 1.13v60.336c.013.63-.5 1.144-1.131 1.144z" fill="#FEF7EC" stroke="#FEF7EC" stroke-miterlimit="10" stroke-linecap="round" stroke-linejoin="round"/><path d="M110.988 30.938h-1.723v-3.184h1.723" fill="url(#b)"/><path d="M114.316 33.029a3.683 3.683 0 1 0 0-7.366 3.683 3.683 0 0 0 0 7.366z" fill="url(#c)"/><path d="M114.315 32.016a2.67 2.67 0 1 0 0-5.34 2.67 2.67 0 0 0 0 5.34z" stroke="#FEF7EC" stroke-width=".5" stroke-miterlimit="10" stroke-linecap="round" stroke-linejoin="round"/><path d="M32.582 19.086c3.183-8.102-8.84-10.26-.145-18.086M54.338 19.086C57.522 10.984 45.5 8.826 54.194 1M76.106 19.086C79.29 10.984 67.267 8.826 75.962 1" stroke="#F5AE3D" stroke-width="2" stroke-miterlimit="10" stroke-linecap="round" stroke-linejoin="round"/><defs><linearGradient id="a" x1="30.931" y1="17.778" x2="87.481" y2="121.703" gradientUnits="userSpaceOnUse"><stop offset=".002" stop-color="#28C985"/><stop offset="1" stop-color="#18808A"/></linearGradient><linearGradient id="b" x1="109.398" y1="29.351" x2="110.909" y2="29.351" gradientUnits="userSpaceOnUse"><stop offset=".002" stop-color="#28C985"/><stop offset="1" stop-color="#18808A"/></linearGradient><linearGradient id="c" x1="114.328" y1="24.442" x2="114.29" y2="36.68" gradientUnits="userSpaceOnUse"><stop offset=".002" stop-color="#28C985"/><stop offset="1" stop-color="#18808A"/></linearGradient></defs></svg>