<svg width="79" height="103" fill="none" xmlns="http://www.w3.org/2000/svg"><path d="M78.335 103H.665a.662.662 0 0 1-.665-.671V.671C0 .295.293 0 .666 0h77.669c.372 0 .665.295.665.67V102.33a.67.67 0 0 1-.665.671z" fill="url(#a)"/><path d="M63.094 98.693H15.92a1.39 1.39 0 0 1-1.384-1.315L9.598 5.715c-.04-.765.572-1.422 1.33-1.422h57.157c.773 0 1.372.644 1.332 1.422l-4.952 91.663a1.379 1.379 0 0 1-1.371 1.315z" fill="#FEF7EC" stroke="#062023" stroke-width="3" stroke-miterlimit="10" stroke-linecap="round" stroke-linejoin="round"/><path d="M54.814 93.541H24.186c-1.465 0-2.663-1.207-2.663-2.683V77.226c0-1.475 1.198-2.683 2.663-2.683h30.628c1.464 0 2.662 1.207 2.662 2.683v13.632c0 1.475-1.198 2.683-2.662 2.683z" fill="url(#b)"/><path d="M51.22 86.27c1.22 0 2.21-.998 2.21-2.228 0-1.23-.99-2.227-2.21-2.227s-2.21.997-2.21 2.227.99 2.227 2.21 2.227zM27.78 86.27c1.22 0 2.21-.997 2.21-2.227s-.99-2.228-2.21-2.228-2.21.998-2.21 2.228c0 1.23.99 2.227 2.21 2.227z" fill="#FEF7EC"/><path d="M46.775 79.266H32.239v9.552h14.536v-9.552z" fill="#062023"/><g clip-path="url(#c)"><path d="M44.76 56.66c-.357.192-.734-.223-.516-.566 1.187-1.862 2.312-4.996.52-9.031-2.986-6.73-4.803-10.216-4.803-10.216s-.967 4.068-3.587 7.685c-2.523 3.48-3.903 7.858-1.678 11.505.21.343-.159.746-.514.563-2.755-1.42-5.844-4.27-6.193-9.939-.128-1.732.064-4.157 1.028-7.218 1.24-3.88 2.763-5.69 3.645-6.467.264-.232.674-.026.652.326-.257 4.186 1.306 5.248 2.195 2.854.355-.956.562-2.61.562-4.623 0-3.353.965-6.804 3.093-9.609.553-.73 1.2-1.41 1.943-1.992a.394.394 0 0 1 .634.343c-.163 2.273-.015 8.787 5.654 16.569 5.14 7.219 3.149 12.762 2.442 14.264-1.351 2.877-3.236 4.566-5.077 5.553z" fill="#009D8F"/></g><defs><linearGradient id="a" x1="-5.6" y1="6.037" x2="85.32" y2="96.24" gradientUnits="userSpaceOnUse"><stop offset=".002" stop-color="#28C985"/><stop offset="1" stop-color="#18808A"/></linearGradient><linearGradient id="b" x1="26.584" y1="71.017" x2="52.625" y2="96.852" gradientUnits="userSpaceOnUse"><stop offset=".002" stop-color="#28C985"/><stop offset="1" stop-color="#18808A"/></linearGradient><clipPath id="c"><path fill="#fff" transform="matrix(-1 0 0 1 57.668 19.848)" d="M0 0h36.57v36.861H0z"/></clipPath></defs></svg>