<svg width="79" height="103" viewBox="0 0 79 103" fill="none" xmlns="http://www.w3.org/2000/svg">
<path d="M78.334 103H0.665055C0.292351 103 -0.000488281 102.705 -0.000488281 102.329V0.670835C-0.000488281 0.295167 0.292351 0 0.665055 0H78.334C78.7067 0 78.9995 0.295167 78.9995 0.670835V102.329C78.9995 102.691 78.7067 103 78.334 103Z" fill="url(#paint0_linear_57_236)"/>
<path d="M63.0935 98.6929H15.9197C15.1876 98.6929 14.5753 98.116 14.5354 97.378L9.59706 5.71514C9.55713 4.95039 10.1694 4.29297 10.9282 4.29297H68.085C68.8571 4.29297 69.456 4.93697 69.4161 5.71514L64.4645 97.378C64.4245 98.116 63.8256 98.6929 63.0935 98.6929Z" fill="#FEF7EC" stroke="#062023" stroke-width="3" stroke-miterlimit="10" stroke-linecap="round" stroke-linejoin="round"/>
<path d="M54.8134 93.541H24.1851C22.7209 93.541 21.5229 92.3335 21.5229 90.8577V77.2263C21.5229 75.7505 22.7209 74.543 24.1851 74.543H54.8134C56.2776 74.543 57.4756 75.7505 57.4756 77.2263V90.8577C57.4756 92.3335 56.2776 93.541 54.8134 93.541Z" fill="url(#paint1_linear_57_236)"/>
<path d="M51.2199 86.2693C52.4402 86.2693 53.4295 85.2722 53.4295 84.0421C53.4295 82.8121 52.4402 81.8149 51.2199 81.8149C49.9995 81.8149 49.0103 82.8121 49.0103 84.0421C49.0103 85.2722 49.9995 86.2693 51.2199 86.2693Z" fill="#FEF7EC"/>
<path d="M27.7794 86.2698C28.9998 86.2698 29.989 85.2726 29.989 84.0426C29.989 82.8126 28.9998 81.8154 27.7794 81.8154C26.5591 81.8154 25.5698 82.8126 25.5698 84.0426C25.5698 85.2726 26.5591 86.2698 27.7794 86.2698Z" fill="#FEF7EC"/>
<path d="M46.7742 79.2656H32.2388V88.8183H46.7742V79.2656Z" fill="#062023"/>
<ellipse cx="38.679" cy="37.5694" rx="13.3621" ry="13.4683" fill="#009D8F"/>
<defs>
<linearGradient id="paint0_linear_57_236" x1="-5.60038" y1="6.03738" x2="85.3192" y2="96.2398" gradientUnits="userSpaceOnUse">
<stop offset="0.00249518" stop-color="#28C985"/>
<stop offset="1" stop-color="#18808A"/>
</linearGradient>
<linearGradient id="paint1_linear_57_236" x1="26.5839" y1="71.0166" x2="52.6247" y2="96.852" gradientUnits="userSpaceOnUse">
<stop offset="0.00249518" stop-color="#28C985"/>
<stop offset="1" stop-color="#18808A"/>
</linearGradient>
</defs>
</svg>
