<svg width="79" height="103" fill="none" xmlns="http://www.w3.org/2000/svg"><path d="M78.334 103H.665a.662.662 0 0 1-.665-.671V.671C0 .295.292 0 .665 0h77.669c.373 0 .665.295.665.67V102.33a.67.67 0 0 1-.665.671z" fill="url(#a)"/><path d="M63.093 98.693H15.92a1.39 1.39 0 0 1-1.385-1.315L9.597 5.715c-.04-.765.572-1.422 1.331-1.422h57.157c.772 0 1.371.644 1.331 1.422l-4.951 91.663a1.379 1.379 0 0 1-1.372 1.315z" fill="#FEF7EC" stroke="#062023" stroke-width="3" stroke-miterlimit="10" stroke-linecap="round" stroke-linejoin="round"/><path d="M54.813 93.541H24.185c-1.464 0-2.662-1.207-2.662-2.683V77.226c0-1.475 1.198-2.683 2.662-2.683h30.628c1.465 0 2.663 1.207 2.663 2.683v13.632c0 1.475-1.198 2.683-2.663 2.683z" fill="url(#b)"/><path d="M51.22 86.27c1.22 0 2.21-.998 2.21-2.228 0-1.23-.99-2.227-2.21-2.227s-2.21.997-2.21 2.227.99 2.227 2.21 2.227zM27.78 86.27c1.22 0 2.209-.997 2.209-2.227s-.99-2.228-2.21-2.228-2.21.998-2.21 2.228c0 1.23.99 2.227 2.21 2.227z" fill="#FEF7EC"/><path d="M46.774 79.266H32.24v9.552h14.535v-9.552z" fill="#062023"/><ellipse cx="38.679" cy="37.569" rx="13.362" ry="13.468" fill="#009D8F"/><defs><linearGradient id="a" x1="-5.6" y1="6.037" x2="85.319" y2="96.24" gradientUnits="userSpaceOnUse"><stop offset=".002" stop-color="#28C985"/><stop offset="1" stop-color="#18808A"/></linearGradient><linearGradient id="b" x1="26.584" y1="71.017" x2="52.625" y2="96.852" gradientUnits="userSpaceOnUse"><stop offset=".002" stop-color="#28C985"/><stop offset="1" stop-color="#18808A"/></linearGradient></defs></svg>