<svg width="123" height="102" fill="none" xmlns="http://www.w3.org/2000/svg"><path d="M111.784 101.692H2.097a2.098 2.098 0 0 1-2.098-2.097V28.189c0-1.166.946-2.098 2.098-2.098h109.687c1.165 0 2.097.946 2.097 2.098v71.406a2.08 2.08 0 0 1-2.097 2.097z" fill="url(#a)"/><path d="M13.148 96.524H9.652a1.18 1.18 0 0 1-1.18-1.18V32.44c0-.658.535-1.179 1.18-1.179h3.482c.659 0 1.18.535 1.18 1.18V95.33a1.17 1.17 0 0 1-1.166 1.193zM26.16 96.524h-3.483c-.658 0-1.179-.535-1.179-1.18V32.44c0-.658.535-1.179 1.18-1.179h3.482c.658 0 1.18.535 1.18 1.18V95.33a1.19 1.19 0 0 1-1.18 1.193zM39.172 96.524H35.69c-.658 0-1.18-.535-1.18-1.18V32.44c0-.658.535-1.179 1.18-1.179h3.482c.658 0 1.18.535 1.18 1.18V95.33c0 .658-.522 1.193-1.18 1.193zM52.182 96.524h-3.483a1.18 1.18 0 0 1-1.179-1.18V32.44c0-.658.535-1.179 1.18-1.179h3.482c.658 0 1.179.535 1.179 1.18V95.33c0 .658-.521 1.193-1.18 1.193zM65.194 96.524h-3.482c-.659 0-1.18-.535-1.18-1.18V32.44c0-.658.535-1.179 1.18-1.179h3.482c.658 0 1.18.535 1.18 1.18V95.33c0 .658-.522 1.193-1.18 1.193zM78.206 96.524h-3.482c-.658 0-1.18-.535-1.18-1.18V32.44c0-.658.535-1.179 1.18-1.179h3.482c.659 0 1.18.535 1.18 1.18V95.33a1.173 1.173 0 0 1-1.18 1.193zM91.219 96.524h-3.483c-.658 0-1.18-.535-1.18-1.18V32.44c0-.658.536-1.179 1.18-1.179h3.483c.658 0 1.179.535 1.179 1.18V95.33a1.173 1.173 0 0 1-1.18 1.193zM104.228 96.524h-3.482c-.659 0-1.18-.535-1.18-1.18V32.44c0-.658.535-1.179 1.18-1.179h3.482c.658 0 1.179.535 1.179 1.18V95.33a1.173 1.173 0 0 1-1.179 1.193z" fill="#56BEDB" stroke="#FEF7EC" stroke-miterlimit="10" stroke-linecap="round" stroke-linejoin="round"/><path d="M115.692 32.206h-1.796v-3.318h1.796" fill="url(#b)"/><path d="M119.159 34.386a3.84 3.84 0 1 0 0-7.678 3.84 3.84 0 0 0 0 7.678z" fill="url(#c)"/><path d="M119.158 33.33a2.784 2.784 0 1 0 0-5.568 2.784 2.784 0 0 0 0 5.568z" stroke="#FEF7EC" stroke-width=".5" stroke-miterlimit="10" stroke-linecap="round" stroke-linejoin="round"/><path d="M33.96 19.852C37.28 11.406 24.748 9.158 33.81 1M56.638 19.852C59.956 11.406 47.424 9.158 56.487 1M79.33 19.852C82.65 11.406 70.118 9.158 79.18 1" stroke="#F5AE3D" stroke-width="2" stroke-miterlimit="10" stroke-linecap="round" stroke-linejoin="round"/><defs><linearGradient id="a" x1="32.241" y1="18.489" x2="91.187" y2="126.818" gradientUnits="userSpaceOnUse"><stop offset=".002" stop-color="#28C985"/><stop offset="1" stop-color="#18808A"/></linearGradient><linearGradient id="b" x1="114.034" y1="30.553" x2="115.61" y2="30.553" gradientUnits="userSpaceOnUse"><stop offset=".002" stop-color="#28C985"/><stop offset="1" stop-color="#18808A"/></linearGradient><linearGradient id="c" x1="119.172" y1="25.435" x2="119.132" y2="38.192" gradientUnits="userSpaceOnUse"><stop offset=".002" stop-color="#28C985"/><stop offset="1" stop-color="#18808A"/></linearGradient></defs></svg>