<svg width="75" height="113" fill="none" xmlns="http://www.w3.org/2000/svg"><path d="M75 15.796H0v97.013h75V15.796z" fill="url(#a)"/><path d="M69.404 19.992H5.6V95.41h63.804V19.992z" fill="#FEF7EC"/><path d="M64.26 26.082H10.755v63.235H64.26V26.082z" fill="#F7F9FC"/><path d="M67.178 68.82h-.366c-.341 0-.62-.29-.62-.657l-.745-20.914c0-.367.278-.657.62-.657h1.845c.34 0 .619.29.619.657l-.746 20.914c.013.354-.265.657-.606.657z" fill="#062023"/><g clip-path="url(#b)"><path d="M42.792 78.386c-.39.208-.803-.242-.564-.614 1.298-2.02 2.527-5.42.57-9.798-3.267-7.3-5.254-11.082-5.254-11.082s-1.057 4.413-3.922 8.336c-2.758 3.777-4.268 8.526-1.834 12.483.228.37-.175.809-.563.61-3.012-1.54-6.39-4.631-6.772-10.782-.14-1.88.07-4.51 1.125-7.831 1.355-4.209 3.021-6.172 3.985-7.016a.431.431 0 0 1 .713.354c-.28 4.54 1.427 5.693 2.4 3.096.388-1.037.615-2.831.615-5.016 0-3.637 1.055-7.381 3.381-10.424a11.803 11.803 0 0 1 2.126-2.16.431.431 0 0 1 .693.372c-.179 2.465-.017 9.532 6.183 17.974 5.62 7.832 3.443 13.846 2.67 15.475-1.478 3.12-3.54 4.953-5.552 6.023z" fill="#009D8F"/></g><path d="M47.756 0H27.259v15.796h20.497V0z" fill="url(#c)"/><defs><linearGradient id="a" x1="-5.502" y1="21.295" x2="80.506" y2="107.303" gradientUnits="userSpaceOnUse"><stop offset=".002" stop-color="#28C985"/><stop offset="1" stop-color="#18808A"/></linearGradient><linearGradient id="c" x1="28.43" y1="-1.177" x2="46.577" y2="16.971" gradientUnits="userSpaceOnUse"><stop offset=".002" stop-color="#28C985"/><stop offset="1" stop-color="#18808A"/></linearGradient><clipPath id="b"><path fill="#fff" transform="matrix(-1 0 0 1 56.907 38.45)" d="M0 0h39.989v39.989H0z"/></clipPath></defs></svg>