<svg width="83" height="61" fill="none" xmlns="http://www.w3.org/2000/svg"><path d="M69.572 0c-6.527 0-11.965 4.662-13.167 10.832h7.006l5.063 15.964c.366.026.732.044 1.107.044 7.407 0 13.42-6.005 13.42-13.42C82.99 6.004 76.978 0 69.57 0z" fill="#F5AE3D"/><path d="M1 10.832h62.402L79.035 59.84h-62.41M63.402 10.832 79.035 59.84M56.474 10.832 72.1 59.84M49.538 10.832 65.162 59.84M42.601 10.832 58.234 59.84M35.673 10.832 51.298 59.84M28.737 10.832 44.362 59.84M21.8 10.832 37.435 59.84M14.864 10.832 30.497 59.84M7.937 10.832 23.56 59.84M1 10.832 16.624 59.84" stroke="#062023" stroke-width="1.844" stroke-miterlimit="10" stroke-linecap="round" stroke-linejoin="round"/><path d="M14.21 52.268c0-1.116 1.552-2.013 3.469-2.013 1.917 0 3.468.906 3.468 2.013 0-1.116 1.551-2.013 3.468-2.013s3.468.906 3.468 2.013c0-1.116 1.552-2.013 3.469-2.013 1.917 0 3.468.906 3.468 2.013 0-1.116 1.55-2.013 3.468-2.013 1.917 0 3.468.906 3.468 2.013 0-1.116 1.551-2.013 3.468-2.013 1.918 0 3.469.906 3.469 2.013 0-1.116 1.55-2.013 3.468-2.013 1.917 0 3.468.906 3.468 2.013 0-1.116 1.551-2.013 3.468-2.013 1.918 0 3.469.906 3.469 2.013 0-1.116 1.55-2.013 3.468-2.013 1.917 0 3.468.906 3.468 2.013 0-1.116 1.551-2.013 3.468-2.013s3.468.906 3.468 2.013M10.89 41.872c0-1.116 1.552-2.013 3.469-2.013 1.917 0 3.468.906 3.468 2.013 0-1.116 1.551-2.013 3.468-2.013s3.468.906 3.468 2.013c0-1.116 1.552-2.013 3.469-2.013 1.917 0 3.468.906 3.468 2.013 0-1.116 1.551-2.013 3.468-2.013s3.468.906 3.468 2.013c0-1.116 1.551-2.013 3.469-2.013 1.917 0 3.468.906 3.468 2.013 0-1.116 1.551-2.013 3.468-2.013s3.468.906 3.468 2.013c0-1.116 1.551-2.013 3.468-2.013 1.918 0 3.469.906 3.469 2.013 0-1.116 1.55-2.013 3.468-2.013 1.917 0 3.468.906 3.468 2.013 0-1.116 1.551-2.013 3.468-2.013 1.918 0 3.469.906 3.469 2.013M7.57 31.467c0-1.116 1.551-2.013 3.469-2.013 1.917 0 3.468.906 3.468 2.013 0-1.116 1.55-2.013 3.468-2.013 1.917 0 3.468.906 3.468 2.013 0-1.116 1.551-2.013 3.468-2.013s3.469.906 3.469 2.013c0-1.116 1.55-2.013 3.468-2.013 1.917 0 3.468.906 3.468 2.013 0-1.116 1.551-2.013 3.468-2.013s3.468.906 3.468 2.013c0-1.116 1.552-2.013 3.469-2.013 1.917 0 3.468.906 3.468 2.013 0-1.116 1.551-2.013 3.468-2.013s3.468.906 3.468 2.013c0-1.116 1.552-2.013 3.469-2.013 1.917 0 3.468.906 3.468 2.013 0-1.116 1.551-2.013 3.468-2.013s3.468.906 3.468 2.013M4.25 21.062c0-1.115 1.552-2.013 3.469-2.013 1.917 0 3.468.906 3.468 2.013 0-1.115 1.551-2.013 3.468-2.013s3.468.906 3.468 2.013c0-1.115 1.551-2.013 3.469-2.013 1.917 0 3.468.906 3.468 2.013 0-1.115 1.55-2.013 3.468-2.013 1.917 0 3.468.906 3.468 2.013 0-1.115 1.551-2.013 3.469-2.013 1.917 0 3.468.906 3.468 2.013 0-1.115 1.55-2.013 3.468-2.013 1.917 0 3.468.906 3.468 2.013 0-1.115 1.551-2.013 3.468-2.013s3.469.906 3.469 2.013c0-1.115 1.55-2.013 3.468-2.013 1.917 0 3.468.906 3.468 2.013 0-1.115 1.551-2.013 3.468-2.013s3.468.906 3.468 2.013" stroke="#062023" stroke-width="1.844" stroke-miterlimit="10" stroke-linecap="round" stroke-linejoin="round"/><path d="M70.383 58.254H51.561l-7.19-22.579h18.823l7.19 22.579z" fill="url(#a)"/><path d="M52.24 57.914 45.27 36.015M54.706 57.914l-6.972-21.899M57.172 57.914l-6.98-21.899M59.63 57.914l-6.971-21.899M62.096 57.914l-6.971-21.899M64.562 57.914 57.59 36.015M67.028 57.914l-6.971-21.899M69.494 57.914l-6.98-21.899M52.703 57.914 45.73 36.015M55.169 57.914l-6.98-21.899M57.626 57.914l-6.971-21.899M60.092 57.914l-6.97-21.899M62.558 57.914l-6.971-21.899M65.025 57.914l-6.972-21.899M67.49 57.914l-6.98-21.899M69.948 57.914l-6.971-21.899M51.778 57.914l-6.971-21.899M54.244 57.914l-6.98-21.899M56.71 57.914l-6.98-21.899M59.176 57.914l-6.98-21.899M61.633 57.914l-6.97-21.899M64.1 57.914l-6.972-21.899M66.566 57.914l-6.971-21.899M69.032 57.914l-6.98-21.899M44.807 36.015h18.169M45.966 39.666h18.178M47.124 43.318h18.178M48.292 46.96h18.17M49.451 50.611H67.63M50.62 54.263h18.168M51.778 57.914h18.169" stroke="#FEF7EC" stroke-width=".615" stroke-miterlimit="10" stroke-linecap="round" stroke-linejoin="round"/><path d="M62.853 34.996H44.04l-7.19-22.579h18.814l7.19 22.579z" fill="url(#b)"/><path d="M44.712 34.656 37.74 12.757M47.178 34.656l-6.971-21.899M49.644 34.656l-6.972-21.899M52.11 34.656l-6.972-21.899M54.576 34.656l-6.971-21.899M57.033 34.656l-6.971-21.899M59.5 34.656l-6.972-21.899M61.966 34.656l-6.971-21.899M45.173 34.656l-6.971-21.899M47.64 34.656l-6.972-21.899M50.105 34.656l-6.971-21.899M52.57 34.656 45.6 12.757M55.028 34.656l-6.97-21.899M57.495 34.656l-6.972-21.899M59.961 34.656 52.99 12.757M62.427 34.656l-6.97-21.899M44.258 34.656l-6.98-21.899M46.715 34.656l-6.971-21.899M49.181 34.656 42.21 12.757M51.648 34.656l-6.972-21.899M54.114 34.656l-6.98-21.899M56.58 34.656 49.6 12.757M59.037 34.656l-6.972-21.899M61.503 34.656l-6.971-21.899M37.278 12.757h18.178M38.446 16.409h18.169M39.605 20.06h18.169M40.764 23.71H58.94M41.931 27.353h18.17M43.09 31.005h18.177M44.258 34.656h18.169" stroke="#FEF7EC" stroke-width=".615" stroke-miterlimit="10" stroke-linecap="round" stroke-linejoin="round"/><path d="M50.017 58.254H31.203l-7.189-22.579h18.814l7.19 22.579z" fill="url(#c)"/><path d="m31.874 57.914-6.972-21.899M34.34 57.914l-6.971-21.899M36.806 57.914l-6.971-21.899M39.272 57.914 32.3 36.015M41.738 57.914l-6.98-21.899M44.195 57.914l-6.97-21.899M46.662 57.914 39.69 36.015M49.128 57.914l-6.971-21.899M32.336 57.914l-6.971-21.899M34.802 57.914l-6.97-21.899M37.268 57.914l-6.971-21.899M39.734 57.914l-6.98-21.899M42.192 57.914l-6.971-21.899M44.658 57.914l-6.971-21.899M47.124 57.914l-6.971-21.899M49.59 57.914l-6.97-21.899M31.42 57.914l-6.98-21.899M33.879 57.914l-6.972-21.899M36.344 57.914l-6.971-21.899M38.81 57.914l-6.97-21.899M41.276 57.914l-6.98-21.899M43.743 57.914l-6.98-21.899M46.2 57.914 39.23 36.015M48.667 57.914l-6.972-21.899M24.44 36.015H42.62M25.609 39.666h18.169M26.768 43.318h18.169M27.926 46.96h18.178M29.094 50.611h18.17M30.253 54.263h18.17M31.42 57.914h18.17" stroke="#FEF7EC" stroke-width=".615" stroke-miterlimit="10" stroke-linecap="round" stroke-linejoin="round"/><path d="M42.655 34.996H23.832l-7.189-22.578h18.823l7.189 22.578z" fill="url(#d)"/><path d="M24.512 34.656 17.54 12.758M26.978 34.656l-6.98-21.898M29.435 34.656l-6.971-21.898M31.901 34.656 24.93 12.758M34.367 34.656l-6.971-21.898M36.834 34.656l-6.972-21.898M39.3 34.656l-6.971-21.898M41.757 34.656l-6.971-21.898M24.974 34.656l-6.98-21.898M27.431 34.656 20.46 12.758M29.897 34.656l-6.971-21.898M32.363 34.656l-6.971-21.898M34.83 34.656l-6.972-21.898M37.295 34.656l-6.98-21.898M39.753 34.656l-6.971-21.898M42.218 34.656l-6.97-21.898M24.05 34.656l-6.972-21.898M26.515 34.656l-6.98-21.898M28.982 34.656l-6.98-21.898M31.44 34.656l-6.972-21.898M33.905 34.656l-6.971-21.898M36.371 34.656 29.4 12.758M38.837 34.656l-6.98-21.898M41.303 34.656l-6.98-21.898M17.078 12.758h18.17M18.237 16.409h18.17M19.396 20.06h18.178M20.564 23.711h18.169M21.723 27.354H39.9M22.89 31.005h18.17M24.05 34.656h18.168" stroke="#FEF7EC" stroke-width=".615" stroke-miterlimit="10" stroke-linecap="round" stroke-linejoin="round"/><defs><linearGradient id="a" x1="63.922" y1="35.628" x2="50.483" y2="58.906" gradientUnits="userSpaceOnUse"><stop offset=".002" stop-color="#28C985"/><stop offset="1" stop-color="#18808A"/></linearGradient><linearGradient id="b" x1="56.812" y1="11.653" x2="42.251" y2="36.874" gradientUnits="userSpaceOnUse"><stop offset=".002" stop-color="#28C985"/><stop offset="1" stop-color="#18808A"/></linearGradient><linearGradient id="c" x1="43.357" y1="35.98" x2="30.674" y2="57.948" gradientUnits="userSpaceOnUse"><stop offset=".002" stop-color="#28C985"/><stop offset="1" stop-color="#18808A"/></linearGradient><linearGradient id="d" x1="35.989" y1="12.724" x2="23.306" y2="34.692" gradientUnits="userSpaceOnUse"><stop offset=".002" stop-color="#28C985"/><stop offset="1" stop-color="#18808A"/></linearGradient></defs></svg>