<svg width="83" height="61" viewBox="0 0 83 61" fill="none" xmlns="http://www.w3.org/2000/svg">
<path d="M69.5718 0C63.045 0 57.6073 4.66206 56.4048 10.8317H63.411L68.4739 26.7959C68.8399 26.8221 69.2058 26.8395 69.5806 26.8395C76.9876 26.8395 83.0003 20.8355 83.0003 13.4198C82.9916 6.00404 76.9789 0 69.5718 0Z" fill="#F5AE3D"/>
<path d="M1 10.8318H63.4019L79.035 59.8401H16.6244" stroke="#062023" stroke-width="1.84384" stroke-miterlimit="10" stroke-linecap="round" stroke-linejoin="round"/>
<path d="M63.4019 10.8318L79.035 59.8401" stroke="#062023" stroke-width="1.84384" stroke-miterlimit="10" stroke-linecap="round" stroke-linejoin="round"/>
<path d="M56.4741 10.8318L72.0986 59.8401" stroke="#062023" stroke-width="1.84384" stroke-miterlimit="10" stroke-linecap="round" stroke-linejoin="round"/>
<path d="M49.5376 10.8318L65.162 59.8401" stroke="#062023" stroke-width="1.84384" stroke-miterlimit="10" stroke-linecap="round" stroke-linejoin="round"/>
<path d="M42.6011 10.8318L58.2342 59.8401" stroke="#062023" stroke-width="1.84384" stroke-miterlimit="10" stroke-linecap="round" stroke-linejoin="round"/>
<path d="M35.6733 10.8318L51.2978 59.8401" stroke="#062023" stroke-width="1.84384" stroke-miterlimit="10" stroke-linecap="round" stroke-linejoin="round"/>
<path d="M28.7373 10.8318L44.3617 59.8401" stroke="#062023" stroke-width="1.84384" stroke-miterlimit="10" stroke-linecap="round" stroke-linejoin="round"/>
<path d="M21.8008 10.8318L37.4339 59.8401" stroke="#062023" stroke-width="1.84384" stroke-miterlimit="10" stroke-linecap="round" stroke-linejoin="round"/>
<path d="M14.8643 10.8318L30.4974 59.8401" stroke="#062023" stroke-width="1.84384" stroke-miterlimit="10" stroke-linecap="round" stroke-linejoin="round"/>
<path d="M7.93652 10.8318L23.561 59.8401" stroke="#062023" stroke-width="1.84384" stroke-miterlimit="10" stroke-linecap="round" stroke-linejoin="round"/>
<path d="M1 10.8318L16.6244 59.8401" stroke="#062023" stroke-width="1.84384" stroke-miterlimit="10" stroke-linecap="round" stroke-linejoin="round"/>
<path d="M14.2104 52.2676C14.2104 51.1522 15.7616 50.2546 17.6787 50.2546C19.5958 50.2546 21.1469 51.1609 21.1469 52.2676C21.1469 51.1522 22.698 50.2546 24.6151 50.2546C26.5322 50.2546 28.0833 51.1609 28.0833 52.2676C28.0833 51.1522 29.6345 50.2546 31.5516 50.2546C33.4687 50.2546 35.0198 51.1609 35.0198 52.2676C35.0198 51.1522 36.5709 50.2546 38.488 50.2546C40.4051 50.2546 41.9562 51.1609 41.9562 52.2676C41.9562 51.1522 43.5074 50.2546 45.4245 50.2546C47.3416 50.2546 48.8927 51.1609 48.8927 52.2676C48.8927 51.1522 50.4438 50.2546 52.3609 50.2546C54.278 50.2546 55.8291 51.1609 55.8291 52.2676C55.8291 51.1522 57.3803 50.2546 59.2974 50.2546C61.2145 50.2546 62.7656 51.1609 62.7656 52.2676C62.7656 51.1522 64.3167 50.2546 66.2338 50.2546C68.1509 50.2546 69.702 51.1609 69.702 52.2676C69.702 51.1522 71.2531 50.2546 73.1702 50.2546C75.0874 50.2546 76.6385 51.1609 76.6385 52.2676" stroke="#062023" stroke-width="1.84384" stroke-miterlimit="10" stroke-linecap="round" stroke-linejoin="round"/>
<path d="M10.8906 41.8716C10.8906 40.7562 12.4417 39.8586 14.3588 39.8586C16.276 39.8586 17.8271 40.7649 17.8271 41.8716C17.8271 40.7562 19.3782 39.8586 21.2953 39.8586C23.2124 39.8586 24.7635 40.7649 24.7635 41.8716C24.7635 40.7562 26.3146 39.8586 28.2317 39.8586C30.1489 39.8586 31.7 40.7649 31.7 41.8716C31.7 40.7562 33.2511 39.8586 35.1682 39.8586C37.0853 39.8586 38.6364 40.7649 38.6364 41.8716C38.6364 40.7562 40.1875 39.8586 42.1046 39.8586C44.0217 39.8586 45.5729 40.7649 45.5729 41.8716C45.5729 40.7562 47.124 39.8586 49.0411 39.8586C50.9582 39.8586 52.5093 40.7649 52.5093 41.8716C52.5093 40.7562 54.0604 39.8586 55.9775 39.8586C57.8946 39.8586 59.4458 40.7649 59.4458 41.8716C59.4458 40.7562 60.9969 39.8586 62.914 39.8586C64.8311 39.8586 66.3822 40.7649 66.3822 41.8716C66.3822 40.7562 67.9333 39.8586 69.8504 39.8586C71.7675 39.8586 73.3187 40.7649 73.3187 41.8716" stroke="#062023" stroke-width="1.84384" stroke-miterlimit="10" stroke-linecap="round" stroke-linejoin="round"/>
<path d="M7.57031 31.4666C7.57031 30.3512 9.12143 29.4536 11.0385 29.4536C12.9556 29.4536 14.5068 30.3599 14.5068 31.4666C14.5068 30.3512 16.0579 29.4536 17.975 29.4536C19.8921 29.4536 21.4432 30.3599 21.4432 31.4666C21.4432 30.3512 22.9943 29.4536 24.9114 29.4536C26.8285 29.4536 28.3797 30.3599 28.3797 31.4666C28.3797 30.3512 29.9308 29.4536 31.8479 29.4536C33.765 29.4536 35.3161 30.3599 35.3161 31.4666C35.3161 30.3512 36.8672 29.4536 38.7843 29.4536C40.7014 29.4536 42.2525 30.3599 42.2525 31.4666C42.2525 30.3512 43.8037 29.4536 45.7208 29.4536C47.6379 29.4536 49.189 30.3599 49.189 31.4666C49.189 30.3512 50.7401 29.4536 52.6572 29.4536C54.5743 29.4536 56.1254 30.3599 56.1254 31.4666C56.1254 30.3512 57.6766 29.4536 59.5937 29.4536C61.5108 29.4536 63.0619 30.3599 63.0619 31.4666C63.0619 30.3512 64.613 29.4536 66.5301 29.4536C68.4472 29.4536 69.9983 30.3599 69.9983 31.4666" stroke="#062023" stroke-width="1.84384" stroke-miterlimit="10" stroke-linecap="round" stroke-linejoin="round"/>
<path d="M4.25049 21.062C4.25049 19.9466 5.8016 19.0491 7.71871 19.0491C9.63582 19.0491 11.1869 19.9553 11.1869 21.062C11.1869 19.9466 12.7381 19.0491 14.6552 19.0491C16.5723 19.0491 18.1234 19.9553 18.1234 21.062C18.1234 19.9466 19.6745 19.0491 21.5916 19.0491C23.5087 19.0491 25.0598 19.9553 25.0598 21.062C25.0598 19.9466 26.6109 19.0491 28.5281 19.0491C30.4452 19.0491 31.9963 19.9553 31.9963 21.062C31.9963 19.9466 33.5474 19.0491 35.4645 19.0491C37.3816 19.0491 38.9327 19.9553 38.9327 21.062C38.9327 19.9466 40.4838 19.0491 42.401 19.0491C44.3181 19.0491 45.8692 19.9553 45.8692 21.062C45.8692 19.9466 47.4203 19.0491 49.3374 19.0491C51.2545 19.0491 52.8056 19.9553 52.8056 21.062C52.8056 19.9466 54.3567 19.0491 56.2738 19.0491C58.191 19.0491 59.7421 19.9553 59.7421 21.062C59.7421 19.9466 61.2932 19.0491 63.2103 19.0491C65.1274 19.0491 66.6785 19.9553 66.6785 21.062" stroke="#062023" stroke-width="1.84384" stroke-miterlimit="10" stroke-linecap="round" stroke-linejoin="round"/>
<path d="M70.3833 58.2536H51.5607L44.3716 35.6753H63.1941L70.3833 58.2536Z" fill="url(#paint0_linear_37_92)"/>
<path d="M52.2403 57.9137L45.269 36.0151" stroke="#FEF7EC" stroke-width="0.614613" stroke-miterlimit="10" stroke-linecap="round" stroke-linejoin="round"/>
<path d="M54.7057 57.9137L47.7344 36.0151" stroke="#FEF7EC" stroke-width="0.614613" stroke-miterlimit="10" stroke-linecap="round" stroke-linejoin="round"/>
<path d="M57.1724 57.9137L50.1924 36.0151" stroke="#FEF7EC" stroke-width="0.614613" stroke-miterlimit="10" stroke-linecap="round" stroke-linejoin="round"/>
<path d="M59.63 57.9137L52.6587 36.0151" stroke="#FEF7EC" stroke-width="0.614613" stroke-miterlimit="10" stroke-linecap="round" stroke-linejoin="round"/>
<path d="M62.0958 57.9137L55.1245 36.0151" stroke="#FEF7EC" stroke-width="0.614613" stroke-miterlimit="10" stroke-linecap="round" stroke-linejoin="round"/>
<path d="M64.5616 57.9137L57.5903 36.0151" stroke="#FEF7EC" stroke-width="0.614613" stroke-miterlimit="10" stroke-linecap="round" stroke-linejoin="round"/>
<path d="M67.0279 57.9137L60.0566 36.0151" stroke="#FEF7EC" stroke-width="0.614613" stroke-miterlimit="10" stroke-linecap="round" stroke-linejoin="round"/>
<path d="M69.4942 57.9137L62.5142 36.0151" stroke="#FEF7EC" stroke-width="0.614613" stroke-miterlimit="10" stroke-linecap="round" stroke-linejoin="round"/>
<path d="M52.7028 57.9137L45.7314 36.0151" stroke="#FEF7EC" stroke-width="0.614613" stroke-miterlimit="10" stroke-linecap="round" stroke-linejoin="round"/>
<path d="M55.1685 57.9137L48.1885 36.0151" stroke="#FEF7EC" stroke-width="0.614613" stroke-miterlimit="10" stroke-linecap="round" stroke-linejoin="round"/>
<path d="M57.6261 57.9137L50.6548 36.0151" stroke="#FEF7EC" stroke-width="0.614613" stroke-miterlimit="10" stroke-linecap="round" stroke-linejoin="round"/>
<path d="M60.0924 57.9137L53.1211 36.0151" stroke="#FEF7EC" stroke-width="0.614613" stroke-miterlimit="10" stroke-linecap="round" stroke-linejoin="round"/>
<path d="M62.5582 57.9137L55.5869 36.0151" stroke="#FEF7EC" stroke-width="0.614613" stroke-miterlimit="10" stroke-linecap="round" stroke-linejoin="round"/>
<path d="M65.0245 57.9137L58.0532 36.0151" stroke="#FEF7EC" stroke-width="0.614613" stroke-miterlimit="10" stroke-linecap="round" stroke-linejoin="round"/>
<path d="M67.4903 57.9137L60.5103 36.0151" stroke="#FEF7EC" stroke-width="0.614613" stroke-miterlimit="10" stroke-linecap="round" stroke-linejoin="round"/>
<path d="M69.9479 57.9137L62.9766 36.0151" stroke="#FEF7EC" stroke-width="0.614613" stroke-miterlimit="10" stroke-linecap="round" stroke-linejoin="round"/>
<path d="M51.7779 57.9137L44.8066 36.0151" stroke="#FEF7EC" stroke-width="0.614613" stroke-miterlimit="10" stroke-linecap="round" stroke-linejoin="round"/>
<path d="M54.2437 57.9137L47.2637 36.0151" stroke="#FEF7EC" stroke-width="0.614613" stroke-miterlimit="10" stroke-linecap="round" stroke-linejoin="round"/>
<path d="M56.71 57.9137L49.73 36.0151" stroke="#FEF7EC" stroke-width="0.614613" stroke-miterlimit="10" stroke-linecap="round" stroke-linejoin="round"/>
<path d="M59.1763 57.9137L52.1963 36.0151" stroke="#FEF7EC" stroke-width="0.614613" stroke-miterlimit="10" stroke-linecap="round" stroke-linejoin="round"/>
<path d="M61.6334 57.9137L54.6621 36.0151" stroke="#FEF7EC" stroke-width="0.614613" stroke-miterlimit="10" stroke-linecap="round" stroke-linejoin="round"/>
<path d="M64.0997 57.9137L57.1284 36.0151" stroke="#FEF7EC" stroke-width="0.614613" stroke-miterlimit="10" stroke-linecap="round" stroke-linejoin="round"/>
<path d="M66.566 57.9137L59.5947 36.0151" stroke="#FEF7EC" stroke-width="0.614613" stroke-miterlimit="10" stroke-linecap="round" stroke-linejoin="round"/>
<path d="M69.0318 57.9137L62.0518 36.0151" stroke="#FEF7EC" stroke-width="0.614613" stroke-miterlimit="10" stroke-linecap="round" stroke-linejoin="round"/>
<path d="M44.8066 36.0151H62.9756" stroke="#FEF7EC" stroke-width="0.614613" stroke-miterlimit="10" stroke-linecap="round" stroke-linejoin="round"/>
<path d="M45.9658 39.6665H64.1435" stroke="#FEF7EC" stroke-width="0.614613" stroke-miterlimit="10" stroke-linecap="round" stroke-linejoin="round"/>
<path d="M47.1245 43.3176H65.3022" stroke="#FEF7EC" stroke-width="0.614613" stroke-miterlimit="10" stroke-linecap="round" stroke-linejoin="round"/>
<path d="M48.2925 46.9602H66.4614" stroke="#FEF7EC" stroke-width="0.614613" stroke-miterlimit="10" stroke-linecap="round" stroke-linejoin="round"/>
<path d="M49.4512 50.6113H67.6288" stroke="#FEF7EC" stroke-width="0.614613" stroke-miterlimit="10" stroke-linecap="round" stroke-linejoin="round"/>
<path d="M50.6191 54.2625H68.7881" stroke="#FEF7EC" stroke-width="0.614613" stroke-miterlimit="10" stroke-linecap="round" stroke-linejoin="round"/>
<path d="M51.7778 57.9141H69.9468" stroke="#FEF7EC" stroke-width="0.614613" stroke-miterlimit="10" stroke-linecap="round" stroke-linejoin="round"/>
<path d="M62.8535 34.9958H44.0397L36.8506 12.4175H55.6644L62.8535 34.9958Z" fill="url(#paint1_linear_37_92)"/>
<path d="M44.7115 34.6559L37.7402 12.7573" stroke="#FEF7EC" stroke-width="0.614613" stroke-miterlimit="10" stroke-linecap="round" stroke-linejoin="round"/>
<path d="M47.1779 34.6559L40.2065 12.7573" stroke="#FEF7EC" stroke-width="0.614613" stroke-miterlimit="10" stroke-linecap="round" stroke-linejoin="round"/>
<path d="M49.6437 34.6559L42.6724 12.7573" stroke="#FEF7EC" stroke-width="0.614613" stroke-miterlimit="10" stroke-linecap="round" stroke-linejoin="round"/>
<path d="M52.1095 34.6559L45.1382 12.7573" stroke="#FEF7EC" stroke-width="0.614613" stroke-miterlimit="10" stroke-linecap="round" stroke-linejoin="round"/>
<path d="M54.5758 34.6559L47.6045 12.7573" stroke="#FEF7EC" stroke-width="0.614613" stroke-miterlimit="10" stroke-linecap="round" stroke-linejoin="round"/>
<path d="M57.0333 34.6559L50.062 12.7573" stroke="#FEF7EC" stroke-width="0.614613" stroke-miterlimit="10" stroke-linecap="round" stroke-linejoin="round"/>
<path d="M59.4996 34.6559L52.5283 12.7573" stroke="#FEF7EC" stroke-width="0.614613" stroke-miterlimit="10" stroke-linecap="round" stroke-linejoin="round"/>
<path d="M61.9659 34.6559L54.9946 12.7573" stroke="#FEF7EC" stroke-width="0.614613" stroke-miterlimit="10" stroke-linecap="round" stroke-linejoin="round"/>
<path d="M45.173 34.6559L38.2017 12.7573" stroke="#FEF7EC" stroke-width="0.614613" stroke-miterlimit="10" stroke-linecap="round" stroke-linejoin="round"/>
<path d="M47.6393 34.6559L40.668 12.7573" stroke="#FEF7EC" stroke-width="0.614613" stroke-miterlimit="10" stroke-linecap="round" stroke-linejoin="round"/>
<path d="M50.1051 34.6559L43.1338 12.7573" stroke="#FEF7EC" stroke-width="0.614613" stroke-miterlimit="10" stroke-linecap="round" stroke-linejoin="round"/>
<path d="M52.5709 34.6559L45.5996 12.7573" stroke="#FEF7EC" stroke-width="0.614613" stroke-miterlimit="10" stroke-linecap="round" stroke-linejoin="round"/>
<path d="M55.0284 34.6559L48.0571 12.7573" stroke="#FEF7EC" stroke-width="0.614613" stroke-miterlimit="10" stroke-linecap="round" stroke-linejoin="round"/>
<path d="M57.4947 34.6559L50.5234 12.7573" stroke="#FEF7EC" stroke-width="0.614613" stroke-miterlimit="10" stroke-linecap="round" stroke-linejoin="round"/>
<path d="M59.9611 34.6559L52.9897 12.7573" stroke="#FEF7EC" stroke-width="0.614613" stroke-miterlimit="10" stroke-linecap="round" stroke-linejoin="round"/>
<path d="M62.4274 34.6559L55.4561 12.7573" stroke="#FEF7EC" stroke-width="0.614613" stroke-miterlimit="10" stroke-linecap="round" stroke-linejoin="round"/>
<path d="M44.2583 34.6559L37.2783 12.7573" stroke="#FEF7EC" stroke-width="0.614613" stroke-miterlimit="10" stroke-linecap="round" stroke-linejoin="round"/>
<path d="M46.715 34.6559L39.7437 12.7573" stroke="#FEF7EC" stroke-width="0.614613" stroke-miterlimit="10" stroke-linecap="round" stroke-linejoin="round"/>
<path d="M49.1813 34.6559L42.21 12.7573" stroke="#FEF7EC" stroke-width="0.614613" stroke-miterlimit="10" stroke-linecap="round" stroke-linejoin="round"/>
<path d="M51.6476 34.6559L44.6763 12.7573" stroke="#FEF7EC" stroke-width="0.614613" stroke-miterlimit="10" stroke-linecap="round" stroke-linejoin="round"/>
<path d="M54.1138 34.6559L47.1338 12.7573" stroke="#FEF7EC" stroke-width="0.614613" stroke-miterlimit="10" stroke-linecap="round" stroke-linejoin="round"/>
<path d="M56.5796 34.6559L49.5996 12.7573" stroke="#FEF7EC" stroke-width="0.614613" stroke-miterlimit="10" stroke-linecap="round" stroke-linejoin="round"/>
<path d="M59.0367 34.6559L52.0654 12.7573" stroke="#FEF7EC" stroke-width="0.614613" stroke-miterlimit="10" stroke-linecap="round" stroke-linejoin="round"/>
<path d="M61.503 34.6559L54.5317 12.7573" stroke="#FEF7EC" stroke-width="0.614613" stroke-miterlimit="10" stroke-linecap="round" stroke-linejoin="round"/>
<path d="M37.2783 12.7573H55.456" stroke="#FEF7EC" stroke-width="0.614613" stroke-miterlimit="10" stroke-linecap="round" stroke-linejoin="round"/>
<path d="M38.4458 16.4087H56.6148" stroke="#FEF7EC" stroke-width="0.614613" stroke-miterlimit="10" stroke-linecap="round" stroke-linejoin="round"/>
<path d="M39.6045 20.0596H57.7735" stroke="#FEF7EC" stroke-width="0.614613" stroke-miterlimit="10" stroke-linecap="round" stroke-linejoin="round"/>
<path d="M40.7637 23.7109H58.9413" stroke="#FEF7EC" stroke-width="0.614613" stroke-miterlimit="10" stroke-linecap="round" stroke-linejoin="round"/>
<path d="M41.9312 27.3533H60.1001" stroke="#FEF7EC" stroke-width="0.614613" stroke-miterlimit="10" stroke-linecap="round" stroke-linejoin="round"/>
<path d="M43.0898 31.0049H61.2675" stroke="#FEF7EC" stroke-width="0.614613" stroke-miterlimit="10" stroke-linecap="round" stroke-linejoin="round"/>
<path d="M44.2578 34.656H62.4268" stroke="#FEF7EC" stroke-width="0.614613" stroke-miterlimit="10" stroke-linecap="round" stroke-linejoin="round"/>
<path d="M50.0171 58.2536H31.2033L24.0142 35.6753H42.828L50.0171 58.2536Z" fill="url(#paint2_linear_37_92)"/>
<path d="M31.8736 57.9137L24.9023 36.0151" stroke="#FEF7EC" stroke-width="0.614613" stroke-miterlimit="10" stroke-linecap="round" stroke-linejoin="round"/>
<path d="M34.34 57.9137L27.3687 36.0151" stroke="#FEF7EC" stroke-width="0.614613" stroke-miterlimit="10" stroke-linecap="round" stroke-linejoin="round"/>
<path d="M36.8058 57.9137L29.8345 36.0151" stroke="#FEF7EC" stroke-width="0.614613" stroke-miterlimit="10" stroke-linecap="round" stroke-linejoin="round"/>
<path d="M39.2716 57.9137L32.3003 36.0151" stroke="#FEF7EC" stroke-width="0.614613" stroke-miterlimit="10" stroke-linecap="round" stroke-linejoin="round"/>
<path d="M41.7378 57.9137L34.7578 36.0151" stroke="#FEF7EC" stroke-width="0.614613" stroke-miterlimit="10" stroke-linecap="round" stroke-linejoin="round"/>
<path d="M44.1954 57.9137L37.2241 36.0151" stroke="#FEF7EC" stroke-width="0.614613" stroke-miterlimit="10" stroke-linecap="round" stroke-linejoin="round"/>
<path d="M46.6617 57.9137L39.6904 36.0151" stroke="#FEF7EC" stroke-width="0.614613" stroke-miterlimit="10" stroke-linecap="round" stroke-linejoin="round"/>
<path d="M49.128 57.9137L42.1567 36.0151" stroke="#FEF7EC" stroke-width="0.614613" stroke-miterlimit="10" stroke-linecap="round" stroke-linejoin="round"/>
<path d="M32.3361 57.9137L25.3647 36.0151" stroke="#FEF7EC" stroke-width="0.614613" stroke-miterlimit="10" stroke-linecap="round" stroke-linejoin="round"/>
<path d="M34.8024 57.9137L27.8311 36.0151" stroke="#FEF7EC" stroke-width="0.614613" stroke-miterlimit="10" stroke-linecap="round" stroke-linejoin="round"/>
<path d="M37.2682 57.9137L30.2969 36.0151" stroke="#FEF7EC" stroke-width="0.614613" stroke-miterlimit="10" stroke-linecap="round" stroke-linejoin="round"/>
<path d="M39.7344 57.9137L32.7544 36.0151" stroke="#FEF7EC" stroke-width="0.614613" stroke-miterlimit="10" stroke-linecap="round" stroke-linejoin="round"/>
<path d="M42.192 57.9137L35.2207 36.0151" stroke="#FEF7EC" stroke-width="0.614613" stroke-miterlimit="10" stroke-linecap="round" stroke-linejoin="round"/>
<path d="M44.6578 57.9137L37.6865 36.0151" stroke="#FEF7EC" stroke-width="0.614613" stroke-miterlimit="10" stroke-linecap="round" stroke-linejoin="round"/>
<path d="M47.1241 57.9137L40.1528 36.0151" stroke="#FEF7EC" stroke-width="0.614613" stroke-miterlimit="10" stroke-linecap="round" stroke-linejoin="round"/>
<path d="M49.5904 57.9137L42.6191 36.0151" stroke="#FEF7EC" stroke-width="0.614613" stroke-miterlimit="10" stroke-linecap="round" stroke-linejoin="round"/>
<path d="M31.4209 57.9137L24.4409 36.0151" stroke="#FEF7EC" stroke-width="0.614613" stroke-miterlimit="10" stroke-linecap="round" stroke-linejoin="round"/>
<path d="M33.8785 57.9137L26.9072 36.0151" stroke="#FEF7EC" stroke-width="0.614613" stroke-miterlimit="10" stroke-linecap="round" stroke-linejoin="round"/>
<path d="M36.3444 57.9137L29.373 36.0151" stroke="#FEF7EC" stroke-width="0.614613" stroke-miterlimit="10" stroke-linecap="round" stroke-linejoin="round"/>
<path d="M38.8107 57.9137L31.8394 36.0151" stroke="#FEF7EC" stroke-width="0.614613" stroke-miterlimit="10" stroke-linecap="round" stroke-linejoin="round"/>
<path d="M41.2764 57.9137L34.2964 36.0151" stroke="#FEF7EC" stroke-width="0.614613" stroke-miterlimit="10" stroke-linecap="round" stroke-linejoin="round"/>
<path d="M43.7427 57.9137L36.7627 36.0151" stroke="#FEF7EC" stroke-width="0.614613" stroke-miterlimit="10" stroke-linecap="round" stroke-linejoin="round"/>
<path d="M46.2003 57.9137L39.229 36.0151" stroke="#FEF7EC" stroke-width="0.614613" stroke-miterlimit="10" stroke-linecap="round" stroke-linejoin="round"/>
<path d="M48.6666 57.9137L41.6953 36.0151" stroke="#FEF7EC" stroke-width="0.614613" stroke-miterlimit="10" stroke-linecap="round" stroke-linejoin="round"/>
<path d="M24.4409 36.0151H42.6186" stroke="#FEF7EC" stroke-width="0.614613" stroke-miterlimit="10" stroke-linecap="round" stroke-linejoin="round"/>
<path d="M25.6089 39.6665H43.7778" stroke="#FEF7EC" stroke-width="0.614613" stroke-miterlimit="10" stroke-linecap="round" stroke-linejoin="round"/>
<path d="M26.7676 43.3179H44.9365" stroke="#FEF7EC" stroke-width="0.614613" stroke-miterlimit="10" stroke-linecap="round" stroke-linejoin="round"/>
<path d="M27.9263 46.9604H46.1039" stroke="#FEF7EC" stroke-width="0.614613" stroke-miterlimit="10" stroke-linecap="round" stroke-linejoin="round"/>
<path d="M29.0942 50.6113H47.2632" stroke="#FEF7EC" stroke-width="0.614613" stroke-miterlimit="10" stroke-linecap="round" stroke-linejoin="round"/>
<path d="M30.2534 54.2627H48.4224" stroke="#FEF7EC" stroke-width="0.614613" stroke-miterlimit="10" stroke-linecap="round" stroke-linejoin="round"/>
<path d="M31.4209 57.9141H49.5899" stroke="#FEF7EC" stroke-width="0.614613" stroke-miterlimit="10" stroke-linecap="round" stroke-linejoin="round"/>
<path d="M42.6547 34.996H23.8322L16.6431 12.4177H35.4656L42.6547 34.996Z" fill="url(#paint3_linear_37_92)"/>
<path d="M24.5118 34.6562L17.5405 12.7576" stroke="#FEF7EC" stroke-width="0.614613" stroke-miterlimit="10" stroke-linecap="round" stroke-linejoin="round"/>
<path d="M26.9776 34.6562L19.9976 12.7576" stroke="#FEF7EC" stroke-width="0.614613" stroke-miterlimit="10" stroke-linecap="round" stroke-linejoin="round"/>
<path d="M29.4352 34.6562L22.4639 12.7576" stroke="#FEF7EC" stroke-width="0.614613" stroke-miterlimit="10" stroke-linecap="round" stroke-linejoin="round"/>
<path d="M31.901 34.6562L24.9297 12.7576" stroke="#FEF7EC" stroke-width="0.614613" stroke-miterlimit="10" stroke-linecap="round" stroke-linejoin="round"/>
<path d="M34.3673 34.6562L27.396 12.7576" stroke="#FEF7EC" stroke-width="0.614613" stroke-miterlimit="10" stroke-linecap="round" stroke-linejoin="round"/>
<path d="M36.8336 34.6562L29.8623 12.7576" stroke="#FEF7EC" stroke-width="0.614613" stroke-miterlimit="10" stroke-linecap="round" stroke-linejoin="round"/>
<path d="M39.2999 34.6562L32.3286 12.7576" stroke="#FEF7EC" stroke-width="0.614613" stroke-miterlimit="10" stroke-linecap="round" stroke-linejoin="round"/>
<path d="M41.7569 34.6562L34.7856 12.7576" stroke="#FEF7EC" stroke-width="0.614613" stroke-miterlimit="10" stroke-linecap="round" stroke-linejoin="round"/>
<path d="M24.9737 34.6562L17.9937 12.7576" stroke="#FEF7EC" stroke-width="0.614613" stroke-miterlimit="10" stroke-linecap="round" stroke-linejoin="round"/>
<path d="M27.4313 34.6562L20.46 12.7576" stroke="#FEF7EC" stroke-width="0.614613" stroke-miterlimit="10" stroke-linecap="round" stroke-linejoin="round"/>
<path d="M29.8971 34.6562L22.9258 12.7576" stroke="#FEF7EC" stroke-width="0.614613" stroke-miterlimit="10" stroke-linecap="round" stroke-linejoin="round"/>
<path d="M32.3629 34.6562L25.3916 12.7576" stroke="#FEF7EC" stroke-width="0.614613" stroke-miterlimit="10" stroke-linecap="round" stroke-linejoin="round"/>
<path d="M34.8292 34.6562L27.8579 12.7576" stroke="#FEF7EC" stroke-width="0.614613" stroke-miterlimit="10" stroke-linecap="round" stroke-linejoin="round"/>
<path d="M37.2955 34.6562L30.3154 12.7576" stroke="#FEF7EC" stroke-width="0.614613" stroke-miterlimit="10" stroke-linecap="round" stroke-linejoin="round"/>
<path d="M39.753 34.6562L32.7817 12.7576" stroke="#FEF7EC" stroke-width="0.614613" stroke-miterlimit="10" stroke-linecap="round" stroke-linejoin="round"/>
<path d="M42.2184 34.6562L35.2471 12.7576" stroke="#FEF7EC" stroke-width="0.614613" stroke-miterlimit="10" stroke-linecap="round" stroke-linejoin="round"/>
<path d="M24.0494 34.6562L17.0781 12.7576" stroke="#FEF7EC" stroke-width="0.614613" stroke-miterlimit="10" stroke-linecap="round" stroke-linejoin="round"/>
<path d="M26.5152 34.6562L19.5352 12.7576" stroke="#FEF7EC" stroke-width="0.614613" stroke-miterlimit="10" stroke-linecap="round" stroke-linejoin="round"/>
<path d="M28.9815 34.6562L22.0015 12.7576" stroke="#FEF7EC" stroke-width="0.614613" stroke-miterlimit="10" stroke-linecap="round" stroke-linejoin="round"/>
<path d="M31.4391 34.6562L24.4678 12.7576" stroke="#FEF7EC" stroke-width="0.614613" stroke-miterlimit="10" stroke-linecap="round" stroke-linejoin="round"/>
<path d="M33.9049 34.6562L26.9336 12.7576" stroke="#FEF7EC" stroke-width="0.614613" stroke-miterlimit="10" stroke-linecap="round" stroke-linejoin="round"/>
<path d="M36.3712 34.6562L29.3999 12.7576" stroke="#FEF7EC" stroke-width="0.614613" stroke-miterlimit="10" stroke-linecap="round" stroke-linejoin="round"/>
<path d="M38.837 34.6562L31.8569 12.7576" stroke="#FEF7EC" stroke-width="0.614613" stroke-miterlimit="10" stroke-linecap="round" stroke-linejoin="round"/>
<path d="M41.3033 34.6562L34.3232 12.7576" stroke="#FEF7EC" stroke-width="0.614613" stroke-miterlimit="10" stroke-linecap="round" stroke-linejoin="round"/>
<path d="M17.0781 12.7576H35.2471" stroke="#FEF7EC" stroke-width="0.614613" stroke-miterlimit="10" stroke-linecap="round" stroke-linejoin="round"/>
<path d="M18.2373 16.4089H36.4063" stroke="#FEF7EC" stroke-width="0.614613" stroke-miterlimit="10" stroke-linecap="round" stroke-linejoin="round"/>
<path d="M19.396 20.0598H37.5737" stroke="#FEF7EC" stroke-width="0.614613" stroke-miterlimit="10" stroke-linecap="round" stroke-linejoin="round"/>
<path d="M20.564 23.7112H38.7329" stroke="#FEF7EC" stroke-width="0.614613" stroke-miterlimit="10" stroke-linecap="round" stroke-linejoin="round"/>
<path d="M21.7227 27.3535H39.9003" stroke="#FEF7EC" stroke-width="0.614613" stroke-miterlimit="10" stroke-linecap="round" stroke-linejoin="round"/>
<path d="M22.8901 31.0051H41.0591" stroke="#FEF7EC" stroke-width="0.614613" stroke-miterlimit="10" stroke-linecap="round" stroke-linejoin="round"/>
<path d="M24.0493 34.6562H42.2183" stroke="#FEF7EC" stroke-width="0.614613" stroke-miterlimit="10" stroke-linecap="round" stroke-linejoin="round"/>
<defs>
<linearGradient id="paint0_linear_37_92" x1="63.9224" y1="35.6279" x2="50.4829" y2="58.9058" gradientUnits="userSpaceOnUse">
<stop offset="0.00249518" stop-color="#28C985"/>
<stop offset="1" stop-color="#18808A"/>
</linearGradient>
<linearGradient id="paint1_linear_37_92" x1="56.8119" y1="11.6532" x2="42.2508" y2="36.8737" gradientUnits="userSpaceOnUse">
<stop offset="0.00249518" stop-color="#28C985"/>
<stop offset="1" stop-color="#18808A"/>
</linearGradient>
<linearGradient id="paint2_linear_37_92" x1="43.3567" y1="35.98" x2="30.6736" y2="57.9478" gradientUnits="userSpaceOnUse">
<stop offset="0.00249518" stop-color="#28C985"/>
<stop offset="1" stop-color="#18808A"/>
</linearGradient>
<linearGradient id="paint3_linear_37_92" x1="35.9894" y1="12.7243" x2="23.3062" y2="34.6921" gradientUnits="userSpaceOnUse">
<stop offset="0.00249518" stop-color="#28C985"/>
<stop offset="1" stop-color="#18808A"/>
</linearGradient>
</defs>
</svg>
