<svg width="79" height="88" fill="none" xmlns="http://www.w3.org/2000/svg"><path d="m39.268 3.825-30.02 26.02v54.28c0 1.186 1.057 2.155 2.383 2.155h55.441c1.31 0 2.385-.97 2.385-2.156V29.377L39.267 3.825zm23.49 71.626c0 .92-.824 1.671-1.848 1.671H17.793c-1.024 0-1.847-.752-1.847-1.671V33.238L39.285 13l23.489 19.87v42.58h-.017z" fill="url(#a)"/><path d="M77.918 33.69 40.41 1.303c-.638-.552-1.662-.552-2.3 0L.583 33.723c-.319.267-.52.652-.52 1.086 0 .836.738 1.504 1.662 1.504.453 0 .873-.167 1.175-.434l3.526-3.042v50.235c0 2.306 2.065 4.178 4.617 4.178h56.398c2.552 0 4.618-1.872 4.618-4.178V32.82L75.6 35.88c.303.267.722.434 1.176.434.923 0 1.662-.668 1.662-1.504.017-.434-.202-.835-.52-1.12zm-9.2 49.382c0 .652-.588 1.17-1.293 1.17H11.077c-.722 0-1.293-.518-1.293-1.17V29.93L39.267 4.461l29.467 25.452v53.16h-.017z" fill="#18808A"/><defs><linearGradient id="a" x1="10.578" y1="28.53" x2="68.096" y2="86.319" gradientUnits="userSpaceOnUse"><stop stop-color="#28C985"/><stop offset="1" stop-color="#18808A"/></linearGradient></defs></svg>