<svg width="82" height="78" fill="none" xmlns="http://www.w3.org/2000/svg"><g clip-path="url(#a)"><path d="M77.937 18.366H3.24c-1.778 0-3.217 1.43-3.217 3.154v52.75c0 1.744 1.439 3.155 3.217 3.155h74.696c1.778 0 3.216-1.41 3.216-3.155V21.52c0-1.724-1.438-3.154-3.216-3.154zM11.69 69.058c0 1.646-1.358 2.978-3.036 2.978s-3.037-1.332-3.037-2.978V26.752c0-1.646 1.359-2.978 3.037-2.978s3.036 1.332 3.036 2.978v42.306zm10.648 0c0 1.646-1.358 2.978-3.036 2.978s-3.037-1.332-3.037-2.978V26.752c0-1.646 1.359-2.978 3.037-2.978s3.036 1.332 3.036 2.978v42.306zm10.648 0c0 1.646-1.358 2.978-3.036 2.978s-3.037-1.332-3.037-2.978V26.752c0-1.646 1.359-2.978 3.037-2.978s3.036 1.332 3.036 2.978v42.306zm10.648 0c0 1.646-1.358 2.978-3.036 2.978s-3.037-1.332-3.037-2.978V26.752c0-1.646 1.359-2.978 3.037-2.978s3.036 1.332 3.036 2.978v42.306zm10.648 0c0 1.646-1.358 2.978-3.036 2.978s-3.037-1.332-3.037-2.978V26.752c0-1.646 1.359-2.978 3.037-2.978s3.036 1.332 3.036 2.978v42.306zm10.648 0c0 1.646-1.358 2.978-3.036 2.978s-3.037-1.332-3.037-2.978V26.752c0-1.646 1.359-2.978 3.037-2.978s3.036 1.332 3.036 2.978v42.306zm10.629 0c0 1.646-1.359 2.978-3.037 2.978s-3.037-1.332-3.037-2.978V26.752c0-1.646 1.359-2.978 3.037-2.978s3.037 1.332 3.037 2.978v42.306z" fill="#18808A"/></g><defs><clipPath id="a"><path fill="#fff" transform="translate(.024 .475)" d="M0 0h81.129v76.95H0z"/></clipPath></defs></svg>