<svg width="54" height="83" fill="none" xmlns="http://www.w3.org/2000/svg"><path d="M53.318 55.378a26.193 26.193 0 1 1-52.386 0C.932 40.912 27.125.699 27.125.699s26.193 40.213 26.193 54.679z" fill="#3D4C66"/><path d="M7.858 60.742a.752.752 0 0 1-.587-.123.86.86 0 0 1-.345-.526A14.733 14.733 0 0 1 6.7 58.65a.873.873 0 0 1 .023-.32.82.82 0 0 1 .138-.285.73.73 0 0 1 .823-.261c.099.032.19.085.271.154a.885.885 0 0 1 .292.561c.044.425.11.847.195 1.265a.88.88 0 0 1 .01.324.837.837 0 0 1-.108.3.776.776 0 0 1-.208.229.733.733 0 0 1-.278.125zM15.34 73.197a.812.812 0 0 1-.69-.168 22.804 22.804 0 0 1-6.608-8.938.817.817 0 1 1 1.508-.62 21.209 21.209 0 0 0 6.137 8.295.816.816 0 0 1-.347 1.431z" fill="#fff"/><path d="M26.997.466s-1.566 2.407-3.926 6.24c6.033 9.592 24.27 39.588 24.27 51.663a26.12 26.12 0 0 1-10.765 21.135 26.181 26.181 0 0 0 16.608-24.36C53.19 40.679 26.997.467 26.997.467z" fill="#3D4C66" style="mix-blend-mode:soft-light" opacity=".5"/><path d="M9.706 22.605a.617.617 0 0 1-.593-.438.605.605 0 0 1 .05-.465c1.303-2.38 2.94-5.259 4.16-7.4l.66-1.17a.615.615 0 0 1 .373-.291.63.63 0 0 1 .657.21.609.609 0 0 1 .055.678l-.666 1.171a540.162 540.162 0 0 0-4.15 7.384.616.616 0 0 1-.546.321zM15.724 11.652a.543.543 0 0 1-.289-.084.602.602 0 0 1-.21-.228.664.664 0 0 1 0-.624l.691-1.276a.62.62 0 0 1 .144-.202.565.565 0 0 1 .206-.122.535.535 0 0 1 .458.057c.068.043.128.1.175.17a.65.65 0 0 1 .102.486.653.653 0 0 1-.09.235l-.688 1.276a.603.603 0 0 1-.211.228.543.543 0 0 1-.288.084zM27 82.459a27.03 27.03 0 0 1-27-27C0 40.92 25.25 1.991 26.324.342a.839.839 0 0 1 1.35 0C28.75 1.992 54 40.929 54 55.459a27.03 27.03 0 0 1-27 27zm0-80.185c-4.096 6.42-25.388 40.41-25.388 53.185a25.389 25.389 0 0 0 50.776 0c0-12.775-21.292-46.765-25.389-53.185z" fill="#323C6B"/></svg>