<svg width="110" height="110" fill="none" xmlns="http://www.w3.org/2000/svg"><path d="M55.487 54.5a38.455 38.455 0 0 1-.003-.875c.006-.868.04-2.11.15-3.6.224-2.986.758-6.955 1.998-10.917 1.24-3.965 3.177-7.89 6.186-10.82 2.997-2.917 7.08-4.871 12.678-4.871 4.416 0 7.716 1.923 10.067 4.827 2.362 2.919 3.77 6.836 4.334 10.785.564 3.95.277 7.88-.696 10.8-.987 2.962-2.592 4.671-4.538 4.671-1.805 0-3.734-.805-5.825-1.878-.574-.295-1.16-.61-1.756-.93-1.535-.826-3.135-1.686-4.744-2.314-2.253-.879-4.62-1.346-7.038-.66-2.369.673-4.698 2.428-6.982 5.782h-3.83zM39.245 28.713c.9 1.555 1.166 3.622 1.28 5.966.03.642.05 1.304.07 1.978.051 1.742.105 3.557.365 5.266.365 2.388 1.143 4.672 2.947 6.421 1.767 1.715 4.452 2.853 8.501 3.154l1.916 3.33c-.19.114-.444.264-.757.442a53.539 53.539 0 0 1-3.192 1.671c-2.696 1.3-6.4 2.825-10.45 3.735-4.052.91-8.419 1.197-12.459.057-4.024-1.134-7.757-3.692-10.556-8.54-2.208-3.825-2.192-7.645-.853-11.132 1.346-3.505 4.035-6.682 7.173-9.146 3.139-2.463 6.685-4.18 9.7-4.797 3.06-.626 5.342-.091 6.315 1.595zM55.19 55.672c.194.108.45.253.76.434a53.634 53.634 0 0 1 3.043 1.93c2.474 1.683 5.646 4.129 8.459 7.181 2.815 3.055 5.246 6.693 6.28 10.762 1.028 4.052.68 8.564-2.12 13.412-2.208 3.824-5.524 5.72-9.214 6.304-3.708.587-7.804-.153-11.506-1.64-3.703-1.486-6.963-3.699-9.005-6.002-2.072-2.336-2.75-4.58-1.776-6.266.9-1.553 2.56-2.816 4.535-4.086.537-.346 1.099-.692 1.67-1.044 1.486-.917 3.036-1.873 4.388-2.956 1.888-1.51 3.477-3.326 4.09-5.763.602-2.387.245-5.281-1.52-8.936l1.916-3.33z" fill="#009D8F" stroke="#000"/><path d="M67.75 55c0 7.042-5.708 12.75-12.75 12.75S42.25 62.042 42.25 55 47.958 42.25 55 42.25 67.75 47.958 67.75 55z" fill="#759996" stroke="#000" stroke-width="2"/></svg>