<svg width="65" height="90" fill="none" xmlns="http://www.w3.org/2000/svg"><path d="M32.392 89.43c-39.196 0-37.366-43.423-22.963-58.929-1.05 3.877-1.83 13.541 5.142 17.31C11.394 38.604 7.975 21.563 38.315 0c-11.388 15.587 13.433 17.175 7.134 53.545 9.233-5.788 4.522-29.505-1.993-34.27C68.25 29.478 79.8 89.43 32.392 89.43z" fill="#F5AE3D"/><path d="M32.878 87.897c-14.968 0-21.86-13.595-15.507-28.051-.565 2.046 1.293 6.488 6.084 6.057-1.669-4.873-3.365-15.156 11.253-22.829-2.665 9.665 6.3 11.657 6.327 21.887 1.75-.727 4.388-3.285 4.36-8.05 8.696 19.087.431 30.986-12.517 30.986z" fill="#FEF7EC"/></svg>