<svg width="84" height="84" viewBox="0 0 84 84" fill="none" xmlns="http://www.w3.org/2000/svg">
<g clip-path="url(#clip0_37_306)">
<path d="M35.4468 83.5599L67.8471 27.7714C68.5807 26.5083 67.5404 24.9539 66.093 25.1508L44.5411 28.0802L49.6905 1.04561C49.8641 0.13424 48.6891 -0.387971 48.129 0.351458L16.2723 42.4023C15.3444 43.627 16.3269 45.3686 17.855 45.2078L41.6159 42.7067L33.8263 82.9525C33.6385 83.9233 34.9502 84.415 35.4468 83.5599Z" fill="#FFDC64"/>
<path d="M26.2345 39.4222C25.6395 39.4698 25.2442 38.8193 25.5605 38.3132L49.379 0.203729C49.0246 -0.0766539 48.4668 -0.0947008 48.129 0.351221L16.2723 42.4021C15.3444 43.627 16.3269 45.3683 17.855 45.2075L41.6159 42.7064L33.8263 82.9523C33.7213 83.4951 34.0875 83.8771 34.5156 83.9685L47.8635 41.7311C48.4893 39.7513 46.9107 37.768 44.841 37.9337L26.2345 39.4222Z" fill="#FFC850"/>
</g>
<defs>
<clipPath id="clip0_37_306">
<rect width="84" height="84" fill="white"/>
</clipPath>
</defs>
</svg>
