<svg width="118" height="81" fill="none" xmlns="http://www.w3.org/2000/svg"><path d="M25.407 66.44v8.475l18.305-2.034-6.101-2.034v-4.406H25.407z" fill="#000" stroke="#000"/><path d="m1 57.627 1.017 11.865 23.05 6.101V67.12L1 57.627z" fill="#42403C"/><path d="M86.084 53.56 65.745 67.457V79.66l24.407-2.712 2.034-4.068h-2.034l-4.068-1.695v-6.78l6.102-4.067-6.102-6.78z" fill="#000" stroke="#000"/><path d="M86.423 64.746v6.102l16.272 5.424 2.711-1.017v-4.746l-14.237-9.492h-1.695l-3.05 3.73z" fill="#42403C" stroke="#42403C"/><path d="M46.763 19.661H27.102L37.61 5.085 59.644 0l3.73 3.729-14.577 14.576-2.034 1.356z" fill="#63645F"/><path d="M48.457 18.644 63.373 4.068l5.423 6.102 3.73 3.728 4.745 28.475v3.05l-4.746-3.05-16.949 4.407L44.73 56.27l-1.017-.678 3.39-35.932 1.355-1.017z" fill="#000"/><path d="M105.746 71.186v4.407l10.847-2.373v-5.085l-10.847 3.051z" fill="#000" stroke="#000"/><path d="m27.101 19.661-13.22 17.627 4.746 17.289h10.508l10.509 8.474 5.762-5.763 2.034-37.627H27.101z" fill="#42403C"/><path d="m91.51 61.356-4.407-7.458 3.39-13.56 11.186-7.118.339-2.034L109.136 40v5.424l-4.406 13.22-13.22 2.712z" fill="#000" stroke="#000"/><path d="m94.559 26.78-13.22 3.729 9.83 9.83 10.509-7.457v-2.373l-7.119-3.729z" fill="#63645F" stroke="#63645F"/><path d="M77.272 37.966v7.797l9.491 7.797 4.068-12.882-9.83-9.83-3.73 7.118z" fill="#42403C" stroke="#42403C"/><path d="M55.915 47.119 38.288 61.695l26.78 6.102 3.05-1.017 18.306-13.22-11.187-9.153-2.373-1.695-16.949 4.407z" fill="#63645F"/><path d="m11.508 55.254-9.491 2.712 23.39 9.153h13.22v-4.746l-10.509-8.475H17.61l-6.102 1.356z" fill="#63645F" stroke="#63645F"/><path d="M37.95 70.847v-9.152l27.796 6.101L65.406 80 37.95 70.847z" fill="#42403C"/><path d="m105.068 58.983-13.899 2.034 14.238 9.83 11.525-3.05-11.864-8.814z" fill="#63645F"/></svg>