<svg width="118" height="98" viewBox="0 0 118 98" fill="none" xmlns="http://www.w3.org/2000/svg">
<path d="M107.241 97.5997H2.01273C0.894682 97.5997 0.000244141 96.6921 0.000244141 95.5872V27.0838C0.000244141 25.9657 0.907835 25.0713 2.01273 25.0713H107.241C108.359 25.0713 109.253 25.9789 109.253 27.0838V95.5872C109.266 96.7052 108.359 97.5997 107.241 97.5997Z" fill="url(#paint0_linear_175_673)"/>
<path d="M12.614 92.6409H9.25986C8.6285 92.6409 8.12866 92.1279 8.12866 91.5097V31.1615C8.12866 30.5301 8.64165 30.0303 9.25986 30.0303H12.6009C13.2322 30.0303 13.7321 30.5433 13.7321 31.1615V91.4966C13.7452 92.1279 13.2322 92.6409 12.614 92.6409Z" fill="#FEF7EC" stroke="#FEF7EC" stroke-miterlimit="10" stroke-linecap="round" stroke-linejoin="round"/>
<path d="M25.0969 92.6409H21.756C21.1246 92.6409 20.6248 92.1279 20.6248 91.5097V31.1615C20.6248 30.5301 21.1377 30.0303 21.756 30.0303H25.0969C25.7283 30.0303 26.2281 30.5433 26.2281 31.1615V91.4966C26.2281 92.1279 25.7152 92.6409 25.0969 92.6409Z" fill="#FEF7EC" stroke="#FEF7EC" stroke-miterlimit="10" stroke-linecap="round" stroke-linejoin="round"/>
<path d="M37.5791 92.6409H34.2381C33.6068 92.6409 33.1069 92.1279 33.1069 91.5097V31.1615C33.1069 30.5301 33.6199 30.0303 34.2381 30.0303H37.5791C38.2105 30.0303 38.7103 30.5433 38.7103 31.1615V91.4966C38.7103 92.1279 38.2105 92.6409 37.5791 92.6409Z" fill="#FEF7EC" stroke="#FEF7EC" stroke-miterlimit="10" stroke-linecap="round" stroke-linejoin="round"/>
<path d="M50.0623 92.6409H46.7213C46.0899 92.6409 45.5901 92.1279 45.5901 91.5097V31.1615C45.5901 30.5301 46.1031 30.0303 46.7213 30.0303H50.0623C50.6936 30.0303 51.1935 30.5433 51.1935 31.1615V91.4966C51.1935 92.1279 50.6936 92.6409 50.0623 92.6409Z" fill="#FEF7EC" stroke="#FEF7EC" stroke-miterlimit="10" stroke-linecap="round" stroke-linejoin="round"/>
<path d="M62.5442 92.6409H59.2032C58.5719 92.6409 58.072 92.1279 58.072 91.5097V31.1615C58.072 30.5301 58.585 30.0303 59.2032 30.0303H62.5442C63.1756 30.0303 63.6754 30.5433 63.6754 31.1615V91.4966C63.6754 92.1279 63.1756 92.6409 62.5442 92.6409Z" fill="#FEF7EC" stroke="#FEF7EC" stroke-miterlimit="10" stroke-linecap="round" stroke-linejoin="round"/>
<path d="M75.0276 92.6409H71.6866C71.0553 92.6409 70.5554 92.1279 70.5554 91.5097V31.1615C70.5554 30.5301 71.0684 30.0303 71.6866 30.0303H75.0276C75.659 30.0303 76.1588 30.5433 76.1588 31.1615V91.4966C76.172 92.1279 75.659 92.6409 75.0276 92.6409Z" fill="#FEF7EC" stroke="#FEF7EC" stroke-miterlimit="10" stroke-linecap="round" stroke-linejoin="round"/>
<path d="M87.5095 92.6409H84.1686C83.5372 92.6409 83.0374 92.1279 83.0374 91.5097V31.1615C83.0374 30.5301 83.5503 30.0303 84.1686 30.0303H87.5095C88.1409 30.0303 88.6407 30.5433 88.6407 31.1615V91.4966C88.6539 92.1279 88.1409 92.6409 87.5095 92.6409Z" fill="#FEF7EC" stroke="#FEF7EC" stroke-miterlimit="10" stroke-linecap="round" stroke-linejoin="round"/>
<path d="M99.9929 92.6409H96.6519C96.0206 92.6409 95.5208 92.1279 95.5208 91.5097V31.1615C95.5208 30.5301 96.0337 30.0303 96.6519 30.0303H99.9929C100.624 30.0303 101.124 30.5433 101.124 31.1615V91.4966C101.137 92.1279 100.624 92.6409 99.9929 92.6409Z" fill="#FEF7EC" stroke="#FEF7EC" stroke-miterlimit="10" stroke-linecap="round" stroke-linejoin="round"/>
<path d="M110.988 30.938H109.265V27.7549H110.988" fill="url(#paint1_linear_175_673)"/>
<path d="M114.316 33.029C116.35 33.029 117.999 31.3801 117.999 29.3461C117.999 27.312 116.35 25.6631 114.316 25.6631C112.282 25.6631 110.633 27.312 110.633 29.3461C110.633 31.3801 112.282 33.029 114.316 33.029Z" fill="url(#paint2_linear_175_673)"/>
<path d="M114.316 32.0161C115.79 32.0161 116.986 30.8206 116.986 29.3459C116.986 27.8713 115.79 26.6758 114.316 26.6758C112.841 26.6758 111.646 27.8713 111.646 29.3459C111.646 30.8206 112.841 32.0161 114.316 32.0161Z" stroke="#FEF7EC" stroke-width="0.5" stroke-miterlimit="10" stroke-linecap="round" stroke-linejoin="round"/>
<path d="M32.5824 19.0861C35.7655 10.9835 23.7432 8.82633 32.4377 1" stroke="#F5AE3D" stroke-width="2" stroke-miterlimit="10" stroke-linecap="round" stroke-linejoin="round"/>
<path d="M54.339 19.0861C57.5221 10.9835 45.4998 8.82633 54.1943 1" stroke="#F5AE3D" stroke-width="2" stroke-miterlimit="10" stroke-linecap="round" stroke-linejoin="round"/>
<path d="M76.107 19.0861C79.2902 10.9835 67.2679 8.82633 75.9623 1" stroke="#F5AE3D" stroke-width="2" stroke-miterlimit="10" stroke-linecap="round" stroke-linejoin="round"/>
<defs>
<linearGradient id="paint0_linear_175_673" x1="30.9318" y1="17.7787" x2="87.4815" y2="121.704" gradientUnits="userSpaceOnUse">
<stop offset="0.00249518" stop-color="#28C985"/>
<stop offset="1" stop-color="#18808A"/>
</linearGradient>
<linearGradient id="paint1_linear_175_673" x1="109.398" y1="29.3516" x2="110.909" y2="29.3516" gradientUnits="userSpaceOnUse">
<stop offset="0.00249518" stop-color="#28C985"/>
<stop offset="1" stop-color="#18808A"/>
</linearGradient>
<linearGradient id="paint2_linear_175_673" x1="114.329" y1="24.4421" x2="114.29" y2="36.6804" gradientUnits="userSpaceOnUse">
<stop offset="0.00249518" stop-color="#28C985"/>
<stop offset="1" stop-color="#18808A"/>
</linearGradient>
</defs>
</svg>
