<svg width="118" height="81" viewBox="0 0 118 81" fill="none" xmlns="http://www.w3.org/2000/svg">
<path d="M25.4072 66.4407V74.9153L43.7123 72.8814L37.6106 70.8475V66.4407H25.4072Z" fill="black" stroke="black"/>
<path d="M1 57.6272L2.01695 69.4916L25.0678 75.5933V67.1187L1 57.6272Z" fill="#42403C"/>
<path d="M86.0844 53.5593L65.7454 67.4577V79.6611L90.1522 76.9492L92.1861 72.8814H90.1522L86.0844 71.1865V64.4068L92.1861 60.339L86.0844 53.5593Z" fill="black" stroke="black"/>
<path d="M86.4233 64.7462V70.8479L102.695 76.2716L105.406 75.2547V70.5089L91.1691 61.0173H89.4742L86.4233 64.7462Z" fill="#42403C" stroke="#42403C"/>
<path d="M46.7629 19.6611H27.1018L37.6103 5.08476L59.6442 0L63.3731 3.72882L48.7968 18.3051L46.7629 19.6611Z" fill="#63645F"/>
<path d="M48.4574 18.6442L63.3727 4.06787L68.7965 10.1696L72.5253 13.8984L77.2711 42.373V45.4239L72.5253 42.373L55.5761 46.7798L44.7286 56.2714L43.7117 55.5934L47.1015 19.6611L48.4574 18.6442Z" fill="black"/>
<path d="M105.746 71.1864V75.5931L116.593 73.2203V68.1355L105.746 71.1864Z" fill="black" stroke="black"/>
<path d="M27.1012 19.6611L13.8809 37.2883L18.6266 54.5765H29.1351L39.6436 63.051L45.4063 57.2883L47.4402 19.6611H27.1012Z" fill="#42403C"/>
<path d="M91.5093 61.3558L87.1025 53.8982L90.4924 40.3388L101.679 33.2202L102.018 31.1863L109.136 39.9999V45.4236L104.73 58.644L91.5093 61.3558Z" fill="black" stroke="black"/>
<path d="M94.559 26.78L81.3386 30.5088L91.1692 40.3394L101.678 32.8817V30.5088L94.559 26.78Z" fill="#63645F" stroke="#63645F"/>
<path d="M77.2717 37.9663V45.7629L86.7633 53.5596L90.8311 40.6782L81.0005 30.8477L77.2717 37.9663Z" fill="#42403C" stroke="#42403C"/>
<path d="M55.9152 47.1187L38.2881 61.695L65.0678 67.7967L68.1187 66.7798L86.4238 53.5594L75.2373 44.4068L72.8644 42.7119L55.9152 47.1187Z" fill="#63645F"/>
<path d="M11.5081 55.2544L2.0166 57.9662L25.4065 67.1188H38.6268V62.373L28.1183 53.8984H17.6099L11.5081 55.2544Z" fill="#63645F" stroke="#63645F"/>
<path d="M37.9492 70.8474V61.6948L65.7459 67.7965L65.4069 79.9999L37.9492 70.8474Z" fill="#42403C"/>
<path d="M105.068 58.9834L91.1692 61.0173L105.407 70.8478L116.932 67.797L105.068 58.9834Z" fill="#63645F"/>
</svg>
