<svg width="84" height="84" fill="none" xmlns="http://www.w3.org/2000/svg"><g clip-path="url(#a)"><path d="m35.447 83.56 32.4-55.789c.734-1.263-.307-2.817-1.754-2.62l-21.552 2.93 5.15-27.035c.173-.912-1.002-1.434-1.562-.695L16.272 42.402c-.928 1.225.055 2.967 1.583 2.806l23.76-2.501-7.789 40.245c-.188.971 1.124 1.463 1.62.608z" fill="#FFDC64"/><path d="M26.235 39.422a.726.726 0 0 1-.674-1.109L49.379.203c-.354-.28-.912-.298-1.25.148L16.272 42.402c-.928 1.225.055 2.966 1.583 2.806l23.76-2.502-7.789 40.246c-.105.543.261.925.69 1.017L47.864 41.73c.625-1.98-.953-3.963-3.023-3.797l-18.607 1.488z" fill="#FFC850"/></g><defs><clipPath id="a"><path fill="#fff" d="M0 0h84v84H0z"/></clipPath></defs></svg>