<svg width="85" height="85" fill="none" xmlns="http://www.w3.org/2000/svg"><g clip-path="url(#a)"><path d="M54.997 84.888c-.83.442-1.706-.514-1.198-1.305 2.76-4.295 5.372-11.52 1.21-20.827-6.943-15.52-11.167-23.557-11.167-23.557s-2.246 9.38-8.337 17.72c-5.862 8.027-9.07 18.122-3.898 26.532.486.79-.37 1.72-1.195 1.299-6.403-3.276-13.584-9.846-14.395-22.92-.298-3.994.15-9.588 2.39-16.645 2.88-8.946 6.422-13.12 8.471-14.912.613-.537 1.566-.061 1.516.752-.597 9.651 3.034 12.1 5.1 6.58.826-2.204 1.308-6.017 1.308-10.661 0-7.731 2.243-15.69 7.188-22.157 1.286-1.682 2.79-3.254 4.517-4.594.625-.485 1.53.003 1.474.792-.38 5.241-.036 20.262 13.142 38.207 11.948 16.646 7.318 29.43 5.676 32.892-3.142 6.634-7.523 10.529-11.802 12.804z" fill="#009D8F"/></g><defs><clipPath id="a"><path fill="#fff" transform="matrix(-1 0 0 1 85 0)" d="M0 0h85v85H0z"/></clipPath></defs></svg>