<svg width="126" height="80" fill="none" xmlns="http://www.w3.org/2000/svg"><path d="M38.983 24.378H1.275L21.178 1h80.729l16.979 21.641M3.31 24.396v45.707h37.342" stroke="#201F3B" stroke-width="1.5" stroke-miterlimit="10" stroke-linecap="round" stroke-linejoin="round"/><path d="M119.881 27.418v48.204h-9.186V43.739H50.542v31.883H40.56V27.418L80.228 8.636l39.653 18.782z" fill="url(#a)"/><path d="M123.663 28.051 80.229 7.46 36.779 28.05l-1.929-1.7L80.32 4.545l45.272 21.207-1.929 2.298z" fill="#201F3B"/><path d="M123.563 29.051 80.272 8.545l-.043-.02-.043.02L36.88 29.051v-.937L80.23 7.57l43.334 20.544v.937z" stroke="#201F3B" stroke-width=".2"/><path d="m40.56 33.226-.703-.054-3.078-3.963 3.782-1.791v5.808zM119.882 31.435l3.797-2.244-3.797-1.773v4.017z" fill="#201F3B"/><path d="M96.478 57.462c-.508-.846-2.178-5.923-4.9-8.788-1.525-1.615-21.85-1.654-23.266 0-2.668 3.115-4.065 6.654-4.9 8.788-.69 1.346-2.56 3.404-3.394 4.942.109 1.789-.018 9.596.49 11.654.127.5.417 1.846.907 1.846 5.118-.038 27.64-.115 35.934.52.58.038 1.361-1.212 1.597-1.77.799-1.788.563-8.384.69-12.019-.708-1.557-2.505-3.923-3.158-5.173z" stroke="#201F3B" stroke-width=".9" stroke-miterlimit="10" stroke-linecap="round" stroke-linejoin="round"/><path d="M68.897 49.974a.3.3 0 0 0 .166-.05h0l-.002.001h.001l.012-.007a3.554 3.554 0 0 1 .391-.178c.313-.12.83-.287 1.629-.455 1.596-.336 4.307-.677 8.732-.677 4.426 0 7.137.34 8.733.677.798.168 1.316.334 1.63.456a3.567 3.567 0 0 1 .39.177l.012.007h-.001.001a.3.3 0 0 0 .164.05.58.58 0 0 1 .536.382l3.013 5.472c.198.433-.12.891-.513.891H66.007c-.406 0-.717-.456-.528-.897l2.885-5.47a.58.58 0 0 1 .533-.378zM69.6 66.135s-7.313-.596-7.875-1.096c-.509-.442-.29-2.385.254-2.75.635-.423 6.66 1.192 6.66 1.192l.962 2.654zM90.308 66.52s7.313-.596 7.876-1.096c.508-.443.29-2.385-.254-2.75-.635-.423-6.66 1.192-6.66 1.192l-.962 2.654zM94.445 76.289v1.98c0 .404.308.731.69.731h3.52c.381 0 .69-.327.69-.73V73M65.262 75.904v2.365c0 .404-.308.731-.69.731h-3.52c-.381 0-.69-.327-.69-.73v-4.885M63.992 56.02l-.145-1.057s-.436-.366-.708-.385c-.272-.039-1.905.211-2.486 1.038-.182.27-.109 1.193.617 1.827.127.116 1.633.366 2.05.193l.672-1.616zM96.096 56.366l.145-1.057s.436-.366.708-.385c.272-.038 1.906.212 2.486 1.039.182.269.11 1.192-.617 1.826-.127.116-1.633.366-2.05.193l-.672-1.616zM86.932 68.443h-13.72c-.744 0-1.397-.48-1.67-1.212L70.4 64.116c-.109-.308.109-.635.417-.635h18.512c.308 0 .526.327.417.635l-1.143 3.115c-.273.731-.926 1.212-1.67 1.212z" stroke="#201F3B" stroke-width=".6" stroke-miterlimit="10" stroke-linecap="round" stroke-linejoin="round"/><defs><linearGradient id="a" x1="80.221" y1="88.232" x2="80.221" y2="-3.31" gradientUnits="userSpaceOnUse"><stop stop-color="#28C985"/><stop offset="1" stop-color="#18808A"/></linearGradient></defs></svg>