<svg width="143" height="94" viewBox="0 0 143 94" fill="none" xmlns="http://www.w3.org/2000/svg">
<path d="M7.40503 39.8483V81.7412H89.8715H135.487V38.6577" stroke="#062023" stroke-width="1.2922" stroke-miterlimit="10" stroke-linecap="round" stroke-linejoin="round"/>
<path d="M89.871 93.8685L7.40454 90.977V81.7412H89.871V93.8685Z" fill="url(#paint0_linear_57_402)"/>
<path d="M135.487 91.1471L89.8708 93.8685V81.7412H135.487V91.1471Z" fill="url(#paint1_linear_57_402)"/>
<path d="M89.8708 93.8685V81.7412" stroke="#FEF7EC" stroke-width="1.2922" stroke-miterlimit="10" stroke-linejoin="round"/>
<path d="M89.8713 27.5V81.7413" stroke="#062023" stroke-width="1.2922" stroke-miterlimit="10" stroke-linecap="round" stroke-linejoin="round"/>
<path d="M90.5134 25.833L1.27466 39.2359V40.7497L91.0201 27.2447L120.693 3.26218L141.094 38.5726L141.787 37.0928L120.963 1L90.5134 25.833Z" stroke="#062023" stroke-width="1.2922" stroke-miterlimit="10" stroke-linecap="round" stroke-linejoin="round"/>
<path d="M90.5134 25.833L1.27466 39.2359L35.0516 19.4376L120.963 1L90.5134 25.833Z" stroke="#062023" stroke-width="1.2922" stroke-miterlimit="10" stroke-linecap="round" stroke-linejoin="round"/>
<path d="M135.522 38.9128L141.095 38.5726L120.694 3.26221L117.299 6.05166L135.522 38.9128Z" stroke="#062023" stroke-width="1.2922" stroke-miterlimit="10" stroke-linecap="round" stroke-linejoin="round"/>
<defs>
<linearGradient id="paint0_linear_57_402" x1="-6.63856" y1="87.8069" x2="105.542" y2="87.8069" gradientUnits="userSpaceOnUse">
<stop stop-color="#18808A"/>
<stop offset="1" stop-color="#28C985"/>
</linearGradient>
<linearGradient id="paint1_linear_57_402" x1="84.7991" y1="87.8061" x2="151.555" y2="87.8061" gradientUnits="userSpaceOnUse">
<stop stop-color="#28C985"/>
<stop offset="1" stop-color="#18808A"/>
</linearGradient>
</defs>
</svg>
