<svg width="148" height="85" fill="none" xmlns="http://www.w3.org/2000/svg"><path d="M92.986 28.213 7.533 41.039v43.32h85.453V28.212z" fill="url(#a)"/><path d="M140.196 40.231v44.127h-47.21V28.265l1.171-.192L121.354 6.21l18.842 34.02z" fill="url(#b)"/><path d="M140.196 40.231v44.127h-47.21V28.265l1.171-.192L121.354 6.21l18.842 34.02z" fill="url(#c)"/><path d="M92.986 84.358V28.266" stroke="#FEF7EC" stroke-miterlimit="10" stroke-linejoin="round"/><path d="M93.633 26.616 1.275 40.442v1.562l92.882-13.931 30.71-24.74 21.114 36.425.717-1.527L125.147 1 93.633 26.616z" stroke="#062023" stroke-miterlimit="10" stroke-linecap="round" stroke-linejoin="round"/><path d="M93.633 26.616 1.275 40.442l34.958-20.423L125.147 1 93.633 26.616zM140.214 40.109l5.768-.351-21.114-36.425-3.514 2.878 18.86 33.898z" stroke="#062023" stroke-miterlimit="10" stroke-linecap="round" stroke-linejoin="round"/><defs><linearGradient id="a" x1="-14.95" y1="56.283" x2="119.94" y2="56.283" gradientUnits="userSpaceOnUse"><stop stop-color="#18808A"/><stop offset="1" stop-color="#28C985"/></linearGradient><linearGradient id="b" x1="89.138" y1="45.283" x2="151.067" y2="45.283" gradientUnits="userSpaceOnUse"><stop stop-color="#28C985"/><stop offset="1" stop-color="#18808A"/></linearGradient><linearGradient id="c" x1="116.59" y1="84.628" x2="116.59" y2="1.947" gradientUnits="userSpaceOnUse"><stop offset=".668" stop-color="#18808A" stop-opacity="0"/><stop offset="1" stop-color="#18808A"/></linearGradient></defs></svg>