<svg width="119" height="101" fill="none" xmlns="http://www.w3.org/2000/svg"><g clip-path="url(#a)"><path d="M73.2 101 7.66 92.72V66.23H73.2V101z" fill="url(#b)"/><path d="M109.445 93.214 73.2 101V66.231h36.245v26.983z" fill="url(#c)"/><path d="M73.2 101V66.231" stroke="#FEF7EC" stroke-miterlimit="10" stroke-linejoin="round"/><path d="M7.66 34.473V66.23h101.786V33.536M73.2 24.627V66.23" stroke="#062023" stroke-miterlimit="10" stroke-linecap="round" stroke-linejoin="round"/><path d="M73.75 23.316 2.842 33.857v1.19l71.31-10.621L97.732 5.563l16.21 27.773.55-1.164L97.945 3.784 73.75 23.316z" stroke="#062023" stroke-width=".5" stroke-miterlimit="10" stroke-linecap="round" stroke-linejoin="round"/><path d="M73.75 23.316 2.842 33.857l26.839-15.571L97.945 3.784 73.75 23.316zM109.513 33.603l4.428-.267-16.21-27.773-2.698 2.194 14.48 25.846z" stroke="#062023" stroke-miterlimit="10" stroke-linecap="round" stroke-linejoin="round"/></g><defs><linearGradient id="b" x1="-.661" y1="83.612" x2="95.981" y2="83.612" gradientUnits="userSpaceOnUse"><stop stop-color="#18808A"/><stop offset="1" stop-color="#28C985"/></linearGradient><linearGradient id="c" x1="67.271" y1="83.61" x2="121.722" y2="83.61" gradientUnits="userSpaceOnUse"><stop stop-color="#28C985"/><stop offset="1" stop-color="#18808A"/></linearGradient><clipPath id="a"><path fill="#fff" transform="translate(.275)" d="M0 0h118v101H0z"/></clipPath></defs></svg>