<svg width="137" height="74" fill="none" xmlns="http://www.w3.org/2000/svg"><path d="M79.225 28.2h-41.82v45.41h41.82V28.2z" fill="#275954"/><path d="M76.457 73.61V29.186L56.531 4.902 37.406 28.199v45.41h39.051z" fill="#275954"/><path d="M79.228 73.614h53.153v-45.41H79.228v45.41zM113.002.548H56.531L79.225 28.2h56.471L113.002.55z" fill="#6DC3CD"/><path d="M124.863 50.924V38.292h-8.426v12.632h8.426z" fill="#6DC3CD"/><path d="M117.102 50.259h7.092v-11.3h-7.092v11.3z" fill="#0D677C"/><path d="M123.509 50.259h.689v-11.3h-.689v11.3z" fill="#73DBDF"/><path d="M115.742 50.92h.689V38.288h-.689V50.92z" fill="#FFF9EB"/><path d="M109.691 50.923V38.29h-8.426v12.633h8.426z" fill="#6DC3CD"/><path d="M101.931 50.259h7.093v-11.3h-7.093v11.3z" fill="#0D677C"/><path d="M108.338 50.259h.69v-11.3h-.69v11.3z" fill="#73DBDF"/><path d="M100.571 50.92h.69V38.288h-.69V50.92z" fill="#FFF9EB"/><path d="M94.52 50.92V38.288h-8.425v12.633h8.425z" fill="#6DC3CD"/><path d="M86.762 50.259h7.093v-11.3h-7.093v11.3z" fill="#0D677C"/><path d="M93.16 50.259h.69v-11.3h-.69v11.3z" fill="#73DBDF"/><path d="M85.402 50.92h.69V38.288h-.69V50.92zM56.531.548 79.226 28.2h56.471l-2.209 1.585-56.527.01-20.43-24.892-19.125 23.297h-3.579L56.531.55z" fill="#FFF9EB"/><path d="m18.57 54.954 45.827-1.482.998 1.482-15.313 18.655H3.256l-.997-1.483 16.31-17.172z" fill="#A5B2BF"/><path d="M17.573 53.472h46.824L49.084 72.126H2.26l15.313-18.654z" fill="#FFF9EB"/><path d="M18.915 55.112h12.396l-5.779 7.057H13.127l5.788-7.057zM33.427 55.112h12.396l-5.788 7.057H27.639l5.788-7.057zM47.928 55.112h12.405l-5.788 7.057H42.14l5.788-7.057zM12.111 63.437h12.405l-5.788 7.048H6.323l5.788-7.048zM26.623 63.437h12.396l-5.788 7.048H20.835l5.788-7.048zM41.134 63.437h12.395l-5.787 7.048H35.346l5.788-7.048z" fill="#2B7D9C"/><path d="m18.123 56.072-4.996 6.097h12.405l1.035-1.277-8.444-4.82zM11.328 64.398l-5.005 6.087h12.405l1.044-1.267-8.444-4.82zM25.83 64.398l-4.995 6.087h12.396l1.044-1.267-8.444-4.82zM40.342 64.398l-4.995 6.087h12.396l1.043-1.267-8.444-4.82zM32.635 56.072l-4.996 6.097h12.396l1.044-1.277-8.444-4.82zM47.146 56.072l-5.005 6.097h12.405l1.044-1.277-8.444-4.82z" fill="#73DBDF"/><path d="m50.081 73.609-.997-1.483H2.26l.997 1.483H50.08zM59.477 62.17l5.918 11.299-15.313.14 9.395-11.44z" fill="#808F9B"/><path d="m57.948 64.034 4.95 9.454-12.816.12 7.866-9.574z" fill="#657682"/><path stroke="#275954" stroke-width="2.822" d="M.849 72.507h135.757"/></svg>