<svg width="100" height="87" fill="none" xmlns="http://www.w3.org/2000/svg"><path d="M24.808 65.735c-.257-.292-.514-.579-.751-.885-1.281-1.652-.198-4.086-2.132-5.338-1.953-1.261-4.93.51-6.75-.94-.812-.643-1.108-1.746-1.835-2.483-1.261-1.276-3.739-1.024-4.911.282-2.305 2.563.539 5.634-1.39 8.39-.766 1.093-1.716 2.255-1.563 3.581.173 1.49 1.657 2.429 3.027 3.042 4.095 1.826 10.692 3.923 14.97 1.638 2.018-1.079 3.383-3.646 2.438-5.729-.267-.578-.677-1.073-1.103-1.558z" fill="#6FB331"/><path d="M21.926 59.517c-1.953-1.261-4.93.51-6.75-.94-.812-.643-1.108-1.746-1.835-2.483-1.261-1.276-3.74-1.024-4.911.282-2.305 2.563.539 5.635-1.39 8.39-.766 1.093-1.716 2.256-1.563 3.581.154 1.326 1.35 2.216 2.577 2.83.178-.396.282-.797.321-1.187.094-.935-.123-1.826-.281-2.721-.342-1.944 1.706-4.922 4.945-3.483.771.342 1.41.995 2.418.812 2.523-.46.99-2.73 1.979-3.725.633-.638 1.8-1.014 2.734-.89 1.192.158 1.87 1.004 2.928 1.31-.158-.692-.455-1.316-1.172-1.776z" fill="#8DD03C"/><path d="m14.908 84.375 3.24-19.292-1.717 19.292h-1.523z" fill="#684825"/><path d="m15.838 78.815-.93-11.823 2.018 11.69-1.088.133zM17.39 69.827l3.66-2.147-3.417 2.513-.242-.366z" fill="#684825"/><path d="m15.304 71.211-4.896-3.052 5.114 2.671-.218.381z" fill="#684825"/><path d="M51.517 15.791H28.075v68.864h23.442V15.79z" fill="#FFF9EB"/><path d="M49.969 84.654V16.346L38.797 2.732 28.075 15.79v68.864H49.97z" fill="#FFF9EB"/><path d="M51.52 84.656H88.58V15.793H51.52v68.863z" fill="#6DC3CD"/><path d="M77.72.288H38.799l12.724 15.503h38.921L77.72.288zM61.187 26.537v-4.428H57.17v4.428h4.016z" fill="#ABDAD5"/><path d="M57.491 26.22h3.378v-3.795h-3.378v3.794z" fill="#0D677C"/><path d="M60.543 26.22h.326v-3.795h-.326v3.794z" fill="#73DBDF"/><path d="M56.843 26.541h.327v-4.427h-.327v4.427z" fill="#FFF9EB"/><path d="M68.544 26.537v-4.428h-4.016v4.428h4.016z" fill="#ABDAD5"/><path d="M64.849 26.219h3.378v-3.794h-3.378v3.794z" fill="#0D677C"/><path d="M67.9 26.219h.327v-3.794H67.9v3.794z" fill="#73DBDF"/><path d="M64.2 26.54h.327v-4.427h-.326v4.428z" fill="#FFF9EB"/><path d="M75.903 26.537V22.11h-4.015v4.427h4.015z" fill="#ABDAD5"/><path d="M72.208 26.22h3.378v-3.795h-3.378v3.794z" fill="#0D677C"/><path d="M75.26 26.22h.326v-3.795h-.326v3.794z" fill="#73DBDF"/><path d="M71.56 26.541h.327v-4.427h-.327v4.427z" fill="#FFF9EB"/><path d="M83.26 26.538v-4.427h-4.016v4.427h4.016z" fill="#ABDAD5"/><path d="M79.566 26.22h3.377v-3.794h-3.377v3.794z" fill="#0D677C"/><path d="M82.617 26.22h.326v-3.794h-.326v3.794z" fill="#73DBDF"/><path d="M78.916 26.542h.326v-4.428h-.326v4.428z" fill="#FFF9EB"/><path d="M61.183 34.171v-4.427h-4.016v4.427h4.016z" fill="#ABDAD5"/><path d="M57.491 33.856h3.378v-3.794h-3.378v3.794z" fill="#0D677C"/><path d="M60.543 33.856h.326v-3.794h-.326v3.794z" fill="#73DBDF"/><path d="M56.843 34.173h.327v-4.427h-.327v4.427z" fill="#FFF9EB"/><path d="M68.541 34.172v-4.428h-4.016v4.428h4.016z" fill="#ABDAD5"/><path d="M64.849 33.856h3.378v-3.794h-3.378v3.794z" fill="#0D677C"/><path d="M67.9 33.856h.327v-3.794H67.9v3.794z" fill="#73DBDF"/><path d="M64.2 34.173h.327v-4.427h-.326v4.427z" fill="#FFF9EB"/><path d="M75.9 34.172v-4.427h-4.015v4.427H75.9z" fill="#ABDAD5"/><path d="M72.208 33.856h3.378v-3.794h-3.378v3.794z" fill="#0D677C"/><path d="M75.26 33.856h.326v-3.794h-.326v3.794z" fill="#73DBDF"/><path d="M71.56 34.172h.327v-4.427h-.327v4.427z" fill="#FFF9EB"/><path d="M83.257 34.172v-4.427H79.24v4.427h4.016z" fill="#ABDAD5"/><path d="M79.566 33.855h3.377v-3.794h-3.377v3.794z" fill="#0D677C"/><path d="M82.617 33.855h.326v-3.794h-.326v3.794z" fill="#73DBDF"/><path d="M78.916 34.172h.326v-4.427h-.326v4.427z" fill="#FFF9EB"/><path d="M61.185 41.806V37.38h-4.016v4.427h4.016z" fill="#ABDAD5"/><path d="M57.491 41.493h3.378v-3.794h-3.378v3.794z" fill="#0D677C"/><path d="M60.543 41.493h.326v-3.794h-.326v3.794z" fill="#73DBDF"/><path d="M56.843 41.81h.327v-4.427h-.327v4.427z" fill="#FFF9EB"/><path d="M68.544 41.806V37.38h-4.016v4.427h4.016z" fill="#ABDAD5"/><path d="M64.849 41.493h3.378V37.7h-3.378v3.794z" fill="#0D677C"/><path d="M67.9 41.493h.327V37.7H67.9v3.794z" fill="#73DBDF"/><path d="M64.2 41.81h.327v-4.427h-.326v4.427z" fill="#FFF9EB"/><path d="M75.903 41.807v-4.428h-4.015v4.428h4.015z" fill="#ABDAD5"/><path d="M72.208 41.493h3.378V37.7h-3.378v3.794z" fill="#0D677C"/><path d="M75.26 41.493h.326V37.7h-.326v3.794z" fill="#73DBDF"/><path d="M71.56 41.81h.327v-4.428h-.327v4.428z" fill="#FFF9EB"/><path d="M83.26 41.807v-4.428h-4.016v4.428h4.016z" fill="#ABDAD5"/><path d="M79.566 41.492h3.377v-3.794h-3.377v3.794z" fill="#0D677C"/><path d="M82.617 41.492h.326v-3.794h-.326v3.794z" fill="#73DBDF"/><path d="M78.916 41.81h.326v-4.428h-.326v4.427z" fill="#FFF9EB"/><path d="M61.187 49.441v-4.427H57.17v4.427h4.016z" fill="#ABDAD5"/><path d="M57.491 49.125h3.378V45.33h-3.378v3.794z" fill="#0D677C"/><path d="M60.543 49.125h.326V45.33h-.326v3.794z" fill="#73DBDF"/><path d="M56.843 49.441h.327v-4.427h-.327v4.427z" fill="#FFF9EB"/><path d="M68.544 49.441v-4.427h-4.016v4.427h4.016z" fill="#ABDAD5"/><path d="M64.849 49.125h3.378V45.33h-3.378v3.794z" fill="#0D677C"/><path d="M67.9 49.125h.327V45.33H67.9v3.794z" fill="#73DBDF"/><path d="M64.2 49.441h.327v-4.427h-.326v4.427z" fill="#FFF9EB"/><path d="M75.905 49.442v-4.428H71.89v4.428h4.016z" fill="#ABDAD5"/><path d="M72.21 49.124h3.377V45.33h-3.378v3.794z" fill="#0D677C"/><path d="M75.26 49.124h.327V45.33h-.327v3.794z" fill="#73DBDF"/><path d="M71.56 49.44h.326v-4.426h-.327v4.427z" fill="#FFF9EB"/><path d="M83.262 49.442v-4.428h-4.016v4.428h4.016z" fill="#ABDAD5"/><path d="M79.566 49.124h3.377V45.33h-3.377v3.794z" fill="#0D677C"/><path d="M82.617 49.124h.326V45.33h-.326v3.794z" fill="#73DBDF"/><path d="M78.916 49.44h.326v-4.426h-.326v4.427z" fill="#FFF9EB"/><path d="M61.184 57.075v-4.427h-4.016v4.427h4.016z" fill="#ABDAD5"/><path d="M57.491 56.761h3.378v-3.794h-3.378v3.794z" fill="#0D677C"/><path d="M60.543 56.761h.326v-3.794h-.326v3.794z" fill="#73DBDF"/><path d="M56.843 57.078h.327V52.65h-.327v4.428z" fill="#FFF9EB"/><path d="M68.542 57.076V52.65h-4.016v4.427h4.016z" fill="#ABDAD5"/><path d="M64.849 56.761h3.378v-3.794h-3.378v3.794z" fill="#0D677C"/><path d="M67.9 56.761h.327v-3.794H67.9v3.794z" fill="#73DBDF"/><path d="M64.2 57.078h.327V52.65h-.326v4.428z" fill="#FFF9EB"/><path d="M75.901 57.077v-4.428h-4.015v4.428H75.9z" fill="#ABDAD5"/><path d="M72.208 56.761h3.378v-3.794h-3.378v3.794z" fill="#0D677C"/><path d="M75.26 56.761h.326v-3.794h-.326v3.794z" fill="#73DBDF"/><path d="M71.56 57.078h.327V52.65h-.327v4.428z" fill="#FFF9EB"/><path d="M83.259 57.077V52.65h-4.016v4.427h4.016z" fill="#ABDAD5"/><path d="M79.566 56.761h3.377v-3.794h-3.377v3.794z" fill="#0D677C"/><path d="M82.617 56.761h.326v-3.794h-.326v3.794z" fill="#73DBDF"/><path d="M78.916 57.079h.326V52.65h-.326v4.428z" fill="#FFF9EB"/><path d="M75.903 64.712v-4.428h-4.015v4.428h4.015z" fill="#ABDAD5"/><path d="M72.208 64.394h3.378v-3.795h-3.378v3.795z" fill="#0D677C"/><path d="M75.26 64.394h.326v-3.795h-.326v3.795z" fill="#73DBDF"/><path d="M71.56 64.715h.327v-4.428h-.327v4.428z" fill="#FFF9EB"/><path d="M83.26 64.712v-4.428h-4.016v4.428h4.016z" fill="#ABDAD5"/><path d="M79.566 64.394h3.377v-3.795h-3.377v3.795z" fill="#0D677C"/><path d="M82.617 64.394h.326v-3.795h-.326v3.795z" fill="#73DBDF"/><path d="M78.916 64.715h.326v-4.427h-.326v4.427z" fill="#FFF9EB"/><path d="M75.9 72.346v-4.427h-4.015v4.427H75.9z" fill="#ABDAD5"/><path d="M72.208 72.03h3.378v-3.794h-3.378v3.794z" fill="#0D677C"/><path d="M75.26 72.03h.326v-3.794h-.326v3.794z" fill="#73DBDF"/><path d="M71.56 72.346h.327V67.92h-.327v4.427z" fill="#FFF9EB"/><path d="M83.257 72.346V67.92H79.24v4.427h4.016z" fill="#ABDAD5"/><path d="M79.566 72.03h3.377v-3.794h-3.377v3.794z" fill="#0D677C"/><path d="M82.617 72.03h.326v-3.794h-.326v3.794z" fill="#73DBDF"/><path d="M78.916 72.346h.326V67.92h-.326v4.427z" fill="#FFF9EB"/><path d="m38.798.288 12.725 15.503h38.92l-1.24.89-38.951.005L38.798 2.732l-10.722 13.06h-2.003L38.798.287z" fill="#6DC3CD"/><path stroke="#ABDAD5" stroke-width="2.055" d="M.914 85.469h98.852"/></svg>