<svg width="99" height="54" fill="none" xmlns="http://www.w3.org/2000/svg"><path d="M57.161 20.582H26.71v33.066h30.451V20.582z" fill="#ABDAD5"/><path d="M55.146 53.648V21.3L40.636 3.618 26.71 20.582v33.066h28.436z" fill="#ABDAD5"/><path d="M57.163 53.651h38.703V20.586H57.163V53.65zM81.755.448h-41.12l16.526 20.134h41.12L81.755.448z" fill="#6DC3CD"/><path d="M90.393 37.13V27.93h-6.136v9.198h6.136z" fill="#6DC3CD"/><path d="M84.742 36.645h5.164v-8.228h-5.164v8.228z" fill="#0D677C"/><path d="M89.407 36.645h.502v-8.228h-.502v8.228z" fill="#73DBDF"/><path d="M83.75 37.127h.503v-9.198h-.502v9.198z" fill="#FFF9EB"/><path d="M79.345 37.128V27.93H73.21v9.198h6.135z" fill="#6DC3CD"/><path d="M73.695 36.645h5.164v-8.228h-5.164v8.228z" fill="#0D677C"/><path d="M78.36 36.645h.502v-8.228h-.502v8.228z" fill="#73DBDF"/><path d="M72.704 37.127h.502v-9.198h-.502v9.198z" fill="#FFF9EB"/><path d="M68.299 37.127v-9.198h-6.135v9.198h6.135z" fill="#6DC3CD"/><path d="M62.649 36.645h5.165v-8.227h-5.165v8.227z" fill="#0D677C"/><path d="M67.307 36.645h.503v-8.227h-.503v8.227z" fill="#73DBDF"/><path d="M61.658 37.127h.502v-9.198h-.502v9.198zM40.636.448l16.526 20.134h41.12l-1.609 1.154-41.16.007L40.636 3.618 26.71 20.582h-2.605L40.636.448z" fill="#FFF9EB"/><path d="m12.994 40.063 33.37-1.079.725 1.08-11.15 13.583H1.843l-.726-1.08 11.877-12.504z" fill="#A5B2BF"/><path d="M12.268 38.984h34.095l-11.15 13.584H1.117l11.15-13.584z" fill="#FFF9EB"/><path d="M13.246 40.178h9.026l-4.208 5.139H9.031l4.215-5.139zM23.812 40.178h9.026l-4.214 5.139h-9.026l4.214-5.139zM34.37 40.178h9.034l-4.215 5.139h-9.033l4.215-5.139zM8.29 46.24h9.034l-4.215 5.132H4.076l4.215-5.132zM18.857 46.24h9.026l-4.214 5.132h-9.026l4.214-5.132zM29.424 46.24h9.027l-4.215 5.132H25.21l4.214-5.132z" fill="#2B7D9C"/><path d="m12.668 40.878-3.638 4.44h9.033l.754-.93-6.15-3.51zM7.72 46.94l-3.645 4.432h9.033l.76-.923-6.148-3.51zM18.281 46.94l-3.637 4.432h9.026l.76-.923-6.149-3.51zM28.848 46.94l-3.638 4.432h9.026l.76-.923-6.148-3.51zM23.234 40.878l-3.637 4.44h9.026l.76-.93-6.149-3.51zM33.8 40.878l-3.644 4.44h9.033l.76-.93-6.148-3.51z" fill="#73DBDF"/><path d="m35.939 53.647-.726-1.08H1.117l.726 1.08H35.94zM42.78 45.317l4.31 8.228-11.15.102 6.84-8.33z" fill="#808F9B"/><path d="m41.667 46.675 3.604 6.884-9.331.088 5.727-6.971z" fill="#657682"/><path stroke="#ABDAD5" stroke-width="2.055" d="M.09 52.845h98.852"/></svg>