<svg width="80" height="105" fill="none" xmlns="http://www.w3.org/2000/svg"><path d="M69.082 99.567H55.625v4.978h13.457v-4.978z" fill="url(#a)"/><path d="M25.495 99.567H12.038v4.978h13.457v-4.978z" fill="url(#b)"/><path d="M7.695 99.568H4.45v4.977h3.244v-4.977z" fill="url(#c)"/><path d="M78.987 99.567H.108V.834h78.88c.374 0 .67.283.67.644v97.446a.659.659 0 0 1-.67.643z" fill="url(#d)"/><path d="M63.64 95.439H16.137c-.737 0-1.354-.553-1.394-1.26L9.771 6.312c-.04-.733.577-1.363 1.34-1.363h57.555c.777 0 1.38.617 1.34 1.363L65.02 94.178c-.04.708-.643 1.26-1.38 1.26z" fill="#FEF7EC" stroke="#062023" stroke-width="3" stroke-miterlimit="10" stroke-linecap="round" stroke-linejoin="round"/><path d="M55.303 90.5H24.462c-1.474 0-2.68-1.157-2.68-2.572V74.862c0-1.415 1.206-2.572 2.68-2.572h30.841c1.474 0 2.68 1.157 2.68 2.572v13.066c0 1.415-1.206 2.573-2.68 2.573z" fill="url(#e)"/><path d="M51.683 83.53c1.229 0 2.225-.956 2.225-2.135 0-1.18-.996-2.135-2.225-2.135s-2.225.956-2.225 2.135c0 1.179.996 2.135 2.225 2.135zM28.08 83.53c1.228 0 2.224-.956 2.224-2.135 0-1.18-.996-2.135-2.225-2.135-1.228 0-2.224.956-2.224 2.135 0 1.179.996 2.135 2.224 2.135z" fill="#FEF7EC"/><path d="M47.207 76.816H32.57v9.157h14.637v-9.157z" fill="#062023"/><g clip-path="url(#f)"><path d="M45.745 56.193c-.376.192-.773-.224-.543-.568 1.25-1.866 2.433-5.006.548-9.05-3.144-6.744-5.057-10.237-5.057-10.237s-1.018 4.076-3.776 7.7c-2.655 3.489-4.108 7.876-1.765 11.53.22.343-.168.748-.542.564-2.9-1.423-6.152-4.278-6.519-9.96-.135-1.735.068-4.166 1.082-7.233 1.305-3.887 2.909-5.701 3.837-6.48.278-.233.71-.027.686.326-.27 4.195 1.375 5.26 2.31 2.86.374-.958.592-2.615.592-4.633 0-3.36 1.016-6.818 3.256-9.628a11.133 11.133 0 0 1 2.046-1.997c.283-.21.693.001.667.344-.172 2.278-.016 8.805 5.952 16.604 5.412 7.233 3.315 12.789 2.57 14.294-1.422 2.882-3.406 4.575-5.344 5.564z" fill="#009D8F"/></g><defs><linearGradient id="a" x1="55.622" y1="102.055" x2="69.077" y2="102.055" gradientUnits="userSpaceOnUse"><stop offset=".002" stop-color="#28C985"/><stop offset="1" stop-color="#18808A"/></linearGradient><linearGradient id="b" x1="12.035" y1="102.055" x2="25.49" y2="102.055" gradientUnits="userSpaceOnUse"><stop offset=".002" stop-color="#28C985"/><stop offset="1" stop-color="#18808A"/></linearGradient><linearGradient id="c" x1="4.451" y1="102.056" x2="7.701" y2="102.056" gradientUnits="userSpaceOnUse"><stop offset=".002" stop-color="#28C985"/><stop offset="1" stop-color="#18808A"/></linearGradient><linearGradient id="d" x1="-5.825" y1="6.528" x2="81.444" y2="97.478" gradientUnits="userSpaceOnUse"><stop offset=".002" stop-color="#28C985"/><stop offset="1" stop-color="#18808A"/></linearGradient><linearGradient id="e" x1="26.877" y1="68.909" x2="51.819" y2="94.903" gradientUnits="userSpaceOnUse"><stop offset=".002" stop-color="#28C985"/><stop offset="1" stop-color="#18808A"/></linearGradient><clipPath id="f"><path fill="#fff" transform="matrix(-1 0 0 1 59.333 19.303)" d="M0 0h38.496v36.938H0z"/></clipPath></defs></svg>