<svg width="79" height="103" fill="none" xmlns="http://www.w3.org/2000/svg"><path d="M68.498 98.056H55.134V103h13.364v-4.943z" fill="url(#a)"/><path d="M25.21 98.056H11.848V103H25.21v-4.943z" fill="url(#b)"/><path d="M7.534 98.057H4.313V103h3.221v-4.943z" fill="url(#c)"/><path d="M78.335 98.056H0V0h78.335c.372 0 .665.281.665.639v96.778a.654.654 0 0 1-.665.639z" fill="url(#d)"/><path d="M63.093 93.956H15.92c-.732 0-1.345-.55-1.385-1.252L9.597 5.44c-.04-.728.572-1.354 1.331-1.354h57.157c.772 0 1.371.613 1.331 1.354l-4.951 87.263c-.04.702-.64 1.252-1.372 1.252z" fill="#FEF7EC" stroke="#062023" stroke-width="3" stroke-miterlimit="10" stroke-linecap="round" stroke-linejoin="round"/><path d="M54.814 89.051H24.186c-1.464 0-2.662-1.15-2.662-2.554V73.52c0-1.405 1.198-2.555 2.662-2.555h30.628c1.464 0 2.662 1.15 2.662 2.555v12.977c0 1.405-1.198 2.554-2.662 2.554z" fill="url(#e)"/><path d="M51.22 82.128c1.22 0 2.21-.95 2.21-2.12 0-1.171-.99-2.12-2.21-2.12s-2.21.949-2.21 2.12c0 1.17.99 2.12 2.21 2.12zM27.78 82.128c1.22 0 2.21-.95 2.21-2.12 0-1.171-.99-2.12-2.21-2.12s-2.21.949-2.21 2.12c0 1.17.99 2.12 2.21 2.12z" fill="#FEF7EC"/><path d="M46.775 75.46H32.239v9.095h14.536v-9.094z" fill="#062023"/><path d="M40.555 59.503c-20.09 0-19.148-21.353-11.767-28.982-.544 1.913-.93 6.655 2.634 8.51-1.631-4.522-3.383-12.903 12.178-23.51-5.836 7.662 6.886 8.45 3.648 26.338 4.736-2.84 2.32-14.514-1.027-16.856 12.722 4.997 18.642 34.5-5.666 34.5z" fill="#F5AE3D"/><path d="M40.809 58.738c-7.684 0-11.2-6.689-7.937-13.795-.29 1.008.652 3.188 3.117 2.979-.858-2.388-1.728-7.454 5.774-11.222-1.377 4.753 3.226 5.727 3.238 10.77.906-.36 2.247-1.623 2.235-3.953 4.446 9.378.218 15.221-6.427 15.221z" fill="#FEF7EC"/><defs><linearGradient id="a" x1="55.13" y1="100.527" x2="68.493" y2="100.527" gradientUnits="userSpaceOnUse"><stop offset=".002" stop-color="#28C985"/><stop offset="1" stop-color="#18808A"/></linearGradient><linearGradient id="b" x1="11.844" y1="100.527" x2="25.206" y2="100.527" gradientUnits="userSpaceOnUse"><stop offset=".002" stop-color="#28C985"/><stop offset="1" stop-color="#18808A"/></linearGradient><linearGradient id="c" x1="4.313" y1="100.528" x2="7.54" y2="100.528" gradientUnits="userSpaceOnUse"><stop offset=".002" stop-color="#28C985"/><stop offset="1" stop-color="#18808A"/></linearGradient><linearGradient id="d" x1="-5.892" y1="5.654" x2="80.779" y2="95.977" gradientUnits="userSpaceOnUse"><stop offset=".002" stop-color="#28C985"/><stop offset="1" stop-color="#18808A"/></linearGradient><linearGradient id="e" x1="26.585" y1="67.608" x2="51.355" y2="93.422" gradientUnits="userSpaceOnUse"><stop offset=".002" stop-color="#28C985"/><stop offset="1" stop-color="#18808A"/></linearGradient></defs></svg>