<svg width="79" height="103" fill="none" xmlns="http://www.w3.org/2000/svg"><path d="M68.498 98.056H55.134V103h13.364v-4.943z" fill="url(#a)"/><path d="M25.21 98.056H11.848V103H25.21v-4.943z" fill="url(#b)"/><path d="M7.534 98.057H4.313V103h3.221v-4.943z" fill="url(#c)"/><path d="M78.335 98.056H0V0h78.335c.372 0 .665.281.665.639v96.778a.654.654 0 0 1-.665.639z" fill="url(#d)"/><path d="M63.093 93.956H15.92c-.732 0-1.345-.55-1.385-1.252L9.597 5.44c-.04-.728.572-1.354 1.331-1.354h57.157c.772 0 1.371.613 1.331 1.354l-4.951 87.263c-.04.702-.64 1.252-1.372 1.252z" fill="#FEF7EC" stroke="#062023" stroke-width="3" stroke-miterlimit="10" stroke-linecap="round" stroke-linejoin="round"/><path d="M54.814 89.051H24.186c-1.464 0-2.662-1.15-2.662-2.554V73.52c0-1.405 1.198-2.555 2.662-2.555h30.628c1.465 0 2.663 1.15 2.663 2.555v12.977c0 1.405-1.198 2.554-2.663 2.554z" fill="url(#e)"/><path d="M51.22 82.128c1.22 0 2.21-.95 2.21-2.12 0-1.171-.99-2.12-2.21-2.12s-2.21.949-2.21 2.12c0 1.17.99 2.12 2.21 2.12zM27.78 82.128c1.22 0 2.21-.95 2.21-2.12 0-1.171-.99-2.12-2.21-2.12s-2.21.949-2.21 2.12c0 1.17.99 2.12 2.21 2.12z" fill="#FEF7EC"/><path d="M46.775 75.46H32.239v9.095h14.536v-9.094z" fill="#062023"/><path d="M49.715 41.458c0 2.722-1.127 5.334-3.133 7.259-2.006 1.925-4.728 3.007-7.565 3.007-2.837 0-5.559-1.082-7.565-3.007-2.006-1.925-3.133-4.537-3.133-7.26 0-5.67 10.698-21.43 10.698-21.43s10.698 15.76 10.698 21.43z" fill="#3D4C66"/><path d="M31.147 43.56a.317.317 0 0 1-.24-.048.337.337 0 0 1-.14-.206 5.582 5.582 0 0 1-.093-.565.33.33 0 0 1 .066-.238.307.307 0 0 1 .336-.102.328.328 0 0 1 .192.159c.02.038.033.079.038.121.018.167.045.332.08.496a.33.33 0 0 1-.04.244.31.31 0 0 1-.199.14zM34.203 48.442a.345.345 0 0 1-.282-.066 8.973 8.973 0 0 1-2.699-3.503.307.307 0 0 1-.004-.249.318.318 0 0 1 .182-.177.347.347 0 0 1 .368.076c.03.03.055.067.07.107a8.347 8.347 0 0 0 2.507 3.25.32.32 0 0 1 .106.147.307.307 0 0 1-.084.332.337.337 0 0 1-.164.083z" fill="#fff"/><path d="M38.965 19.936s-.64.944-1.604 2.446c2.464 3.759 9.913 15.516 9.913 20.248a9.903 9.903 0 0 1-1.162 4.648 10.365 10.365 0 0 1-3.235 3.636c2-.754 3.715-2.068 4.925-3.77a9.973 9.973 0 0 0 1.858-5.778c.003-5.67-10.695-21.43-10.695-21.43z" fill="#3D4C66" style="mix-blend-mode:soft-light" opacity=".5"/><path d="M31.902 28.613a.26.26 0 0 1-.12-.029.243.243 0 0 1-.122-.143.229.229 0 0 1 .02-.182c.533-.933 1.201-2.061 1.7-2.9l.27-.46a.245.245 0 0 1 .152-.113.267.267 0 0 1 .193.021.25.25 0 0 1 .12.145.227.227 0 0 1-.023.182l-.272.46c-.497.837-1.164 1.962-1.695 2.893a.247.247 0 0 1-.093.092.265.265 0 0 1-.13.034zM34.36 24.32a.229.229 0 0 1-.117-.033.24.24 0 0 1-.087-.09.252.252 0 0 1 0-.244l.283-.5a.245.245 0 0 1 .143-.127.228.228 0 0 1 .258.089.25.25 0 0 1 .042.19.25.25 0 0 1-.037.093l-.28.5a.24.24 0 0 1-.087.09.228.228 0 0 1-.118.032zM38.965 52.071c-2.923-.003-5.726-1.119-7.794-3.102-2.067-1.984-3.23-4.674-3.233-7.48 0-5.698 10.313-20.955 10.752-21.602a.34.34 0 0 1 .276-.134.354.354 0 0 1 .275.134c.44.647 10.753 15.908 10.753 21.603-.004 2.805-1.166 5.495-3.234 7.479-2.067 1.984-4.87 3.1-7.794 3.102zm0-31.426C37.294 23.16 28.596 36.483 28.596 41.49c.022 2.625 1.124 5.135 3.067 6.984 1.942 1.85 4.567 2.887 7.303 2.887 2.736 0 5.36-1.038 7.303-2.887 1.942-1.849 3.044-4.36 3.066-6.984 0-5.007-8.696-18.33-10.37-20.846z" fill="#323C6B"/><defs><linearGradient id="a" x1="55.13" y1="100.527" x2="68.493" y2="100.527" gradientUnits="userSpaceOnUse"><stop offset=".002" stop-color="#28C985"/><stop offset="1" stop-color="#18808A"/></linearGradient><linearGradient id="b" x1="11.844" y1="100.527" x2="25.206" y2="100.527" gradientUnits="userSpaceOnUse"><stop offset=".002" stop-color="#28C985"/><stop offset="1" stop-color="#18808A"/></linearGradient><linearGradient id="c" x1="4.313" y1="100.528" x2="7.54" y2="100.528" gradientUnits="userSpaceOnUse"><stop offset=".002" stop-color="#28C985"/><stop offset="1" stop-color="#18808A"/></linearGradient><linearGradient id="d" x1="-5.892" y1="5.654" x2="80.779" y2="95.977" gradientUnits="userSpaceOnUse"><stop offset=".002" stop-color="#28C985"/><stop offset="1" stop-color="#18808A"/></linearGradient><linearGradient id="e" x1="26.585" y1="67.608" x2="51.355" y2="93.422" gradientUnits="userSpaceOnUse"><stop offset=".002" stop-color="#28C985"/><stop offset="1" stop-color="#18808A"/></linearGradient></defs></svg>