<svg width="136" height="99" fill="none" xmlns="http://www.w3.org/2000/svg"><path d="M113.568 0c-10.619 0-19.466 7.585-21.423 17.623h11.399l8.238 25.975c.595.043 1.191.071 1.801.071 12.051 0 21.834-9.769 21.834-21.834C135.403 9.768 125.62 0 113.568 0z" fill="#F5AE3D"/><path d="M2 17.624h101.53l25.436 79.738H27.422M103.531 17.624l25.436 79.738M92.259 17.624l25.421 79.738M80.973 17.624l25.422 79.738M69.687 17.624l25.436 79.738M58.416 17.624l25.421 79.738M47.13 17.624 72.55 97.362M35.844 17.624l25.435 79.738M24.558 17.624l25.435 79.738M13.286 17.624l25.422 79.738M2 17.624l25.422 79.738" stroke="#062023" stroke-width="3" stroke-miterlimit="10" stroke-linecap="round" stroke-linejoin="round"/><path d="M23.494 85.042c0-1.815 2.524-3.275 5.643-3.275 3.12 0 5.643 1.474 5.643 3.275 0-1.815 2.524-3.275 5.643-3.275 3.12 0 5.643 1.474 5.643 3.275 0-1.815 2.524-3.275 5.643-3.275 3.119 0 5.643 1.474 5.643 3.275 0-1.815 2.524-3.275 5.643-3.275 3.119 0 5.643 1.474 5.643 3.275 0-1.815 2.523-3.275 5.643-3.275 3.119 0 5.642 1.474 5.642 3.275 0-1.815 2.524-3.275 5.643-3.275 3.12 0 5.643 1.474 5.643 3.275 0-1.815 2.524-3.275 5.643-3.275 3.12 0 5.643 1.474 5.643 3.275 0-1.815 2.524-3.275 5.643-3.275 3.119 0 5.643 1.474 5.643 3.275 0-1.815 2.524-3.275 5.643-3.275 3.119 0 5.643 1.474 5.643 3.275M18.092 68.127c0-1.815 2.524-3.275 5.643-3.275 3.12 0 5.643 1.474 5.643 3.275 0-1.815 2.524-3.275 5.643-3.275 3.12 0 5.643 1.474 5.643 3.275 0-1.815 2.524-3.275 5.643-3.275 3.12 0 5.643 1.474 5.643 3.275 0-1.815 2.524-3.275 5.643-3.275 3.119 0 5.643 1.474 5.643 3.275 0-1.815 2.524-3.275 5.643-3.275 3.119 0 5.643 1.474 5.643 3.275 0-1.815 2.523-3.275 5.643-3.275 3.119 0 5.642 1.474 5.642 3.275 0-1.815 2.524-3.275 5.644-3.275 3.119 0 5.642 1.474 5.642 3.275 0-1.815 2.524-3.275 5.643-3.275 3.12 0 5.643 1.474 5.643 3.275 0-1.815 2.524-3.275 5.643-3.275 3.119 0 5.643 1.474 5.643 3.275M12.69 51.198c0-1.815 2.524-3.275 5.643-3.275 3.12 0 5.643 1.474 5.643 3.275 0-1.815 2.524-3.275 5.643-3.275 3.12 0 5.643 1.474 5.643 3.275 0-1.815 2.524-3.275 5.643-3.275 3.12 0 5.643 1.474 5.643 3.275 0-1.815 2.524-3.275 5.643-3.275 3.12 0 5.643 1.474 5.643 3.275 0-1.815 2.524-3.275 5.643-3.275 3.12 0 5.643 1.474 5.643 3.275 0-1.815 2.523-3.275 5.643-3.275 3.119 0 5.643 1.474 5.643 3.275 0-1.815 2.523-3.275 5.643-3.275 3.119 0 5.642 1.474 5.642 3.275 0-1.815 2.524-3.275 5.644-3.275 3.119 0 5.642 1.474 5.642 3.275 0-1.815 2.524-3.275 5.643-3.275 3.12 0 5.643 1.474 5.643 3.275M7.289 34.27c0-1.816 2.523-3.276 5.643-3.276 3.119 0 5.642 1.475 5.642 3.275 0-1.814 2.524-3.275 5.643-3.275 3.12 0 5.643 1.475 5.643 3.275 0-1.814 2.524-3.275 5.643-3.275 3.12 0 5.643 1.475 5.643 3.275 0-1.814 2.524-3.275 5.643-3.275 3.12 0 5.643 1.475 5.643 3.275 0-1.814 2.524-3.275 5.643-3.275 3.12 0 5.643 1.475 5.643 3.275 0-1.814 2.524-3.275 5.643-3.275 3.12 0 5.643 1.475 5.643 3.275 0-1.814 2.523-3.275 5.643-3.275 3.119 0 5.643 1.475 5.643 3.275 0-1.814 2.523-3.275 5.643-3.275 3.119 0 5.642 1.475 5.642 3.275 0-1.814 2.524-3.275 5.643-3.275 3.12 0 5.643 1.475 5.643 3.275" stroke="#062023" stroke-width="3" stroke-miterlimit="10" stroke-linecap="round" stroke-linejoin="round"/><path d="M114.887 94.78H84.263L72.565 58.046h30.625l11.697 36.736z" fill="url(#a)"/><path d="m85.368 94.228-11.342-35.63M89.38 94.228l-11.342-35.63M93.393 94.228l-11.357-35.63M97.391 94.228 86.05 58.598M101.404 94.228l-11.343-35.63M105.416 94.228l-11.342-35.63M109.429 94.228l-11.343-35.63M113.441 94.228l-11.357-35.63M86.12 94.228l-11.343-35.63M90.132 94.228l-11.357-35.63M94.13 94.228l-11.342-35.63M98.143 94.228 86.8 58.598M102.156 94.228l-11.343-35.63M106.168 94.228l-11.342-35.63M110.18 94.228l-11.356-35.63M114.179 94.228l-11.343-35.63M84.617 94.228l-11.343-35.63M88.63 94.228l-11.358-35.63M92.642 94.228l-11.357-35.63M96.655 94.228l-11.357-35.63M100.653 94.228 89.31 58.598M104.665 94.228l-11.342-35.63M108.678 94.228l-11.343-35.63M112.69 94.228l-11.357-35.63M73.274 58.598h29.562M75.16 64.54h29.575M77.046 70.48h29.576M78.946 76.406h29.561M80.832 82.347h29.575M82.731 88.287h29.562M84.617 94.228h29.562" stroke="#FEF7EC" stroke-miterlimit="10" stroke-linecap="round" stroke-linejoin="round"/><path d="M102.637 56.94h-30.61L60.328 20.204h30.61l11.698 36.736z" fill="url(#b)"/><path d="m73.118 56.387-11.343-35.63M77.13 56.387l-11.342-35.63M81.143 56.387 69.8 20.757M85.156 56.387l-11.343-35.63M89.168 56.387l-11.343-35.63M93.166 56.387l-11.342-35.63M97.178 56.387l-11.342-35.63M101.191 56.387l-11.343-35.63M73.87 56.387l-11.343-35.63M77.882 56.387l-11.343-35.63M81.894 56.387l-11.342-35.63M85.907 56.387l-11.343-35.63M89.905 56.387l-11.343-35.63M93.917 56.387l-11.342-35.63M97.93 56.387l-11.343-35.63M101.942 56.387 90.6 20.757M72.38 56.387l-11.356-35.63M76.379 56.387l-11.343-35.63M80.391 56.387 69.05 20.757M84.404 56.387 73.06 20.757M88.416 56.387l-11.357-35.63M92.428 56.387l-11.356-35.63M96.427 56.387l-11.343-35.63M100.439 56.387l-11.342-35.63M61.024 20.757H90.6M62.924 26.697h29.561M64.81 32.638h29.56M66.695 38.58h29.576M68.595 44.505h29.561M70.48 50.446h29.576M72.38 56.387h29.562" stroke="#FEF7EC" stroke-miterlimit="10" stroke-linecap="round" stroke-linejoin="round"/><path d="M81.753 94.78H51.142L39.445 58.046h30.61L81.754 94.78z" fill="url(#c)"/><path d="M52.234 94.228 40.89 58.598M56.246 94.228l-11.343-35.63M60.259 94.228l-11.343-35.63M64.27 94.228l-11.342-35.63M68.284 94.228l-11.357-35.63M72.282 94.228 60.94 58.598M76.294 94.228 64.95 58.598M80.306 94.228l-11.342-35.63M52.985 94.228l-11.342-35.63M56.998 94.228l-11.343-35.63M61.01 94.228l-11.343-35.63M65.022 94.228l-11.357-35.63M69.02 94.228l-11.342-35.63M73.034 94.228 61.69 58.598M77.046 94.228l-11.343-35.63M81.058 94.228l-11.342-35.63M51.496 94.228 40.14 58.598M55.495 94.228l-11.343-35.63M59.507 94.228l-11.342-35.63M63.52 94.228l-11.343-35.63M67.532 94.228l-11.357-35.63M71.544 94.228l-11.356-35.63M75.543 94.228 64.2 58.598M79.555 94.228l-11.343-35.63M40.14 58.598h29.575M42.04 64.54H71.6M43.925 70.48h29.562M45.811 76.406h29.576M47.71 82.347h29.562M49.596 88.287h29.562M51.497 94.228h29.561" stroke="#FEF7EC" stroke-miterlimit="10" stroke-linecap="round" stroke-linejoin="round"/><path d="M69.772 56.94H39.147L27.45 20.204h30.625L69.772 56.94z" fill="url(#d)"/><path d="m40.253 56.387-11.342-35.63M44.266 56.387l-11.357-35.63M48.264 56.387l-11.343-35.63M52.276 56.387l-11.342-35.63M56.288 56.387l-11.342-35.63M60.301 56.387l-11.343-35.63M64.313 56.387l-11.342-35.63M68.312 56.387l-11.343-35.63M41.005 56.387l-11.357-35.63M45.003 56.387l-11.342-35.63M49.015 56.387l-11.343-35.63M53.028 56.387l-11.343-35.63M57.04 56.387l-11.342-35.63M61.053 56.387l-11.357-35.63M65.051 56.387l-11.343-35.63M69.063 56.387l-11.342-35.63M39.502 56.387l-11.343-35.63M43.514 56.387l-11.357-35.63M47.527 56.387 36.17 20.757M51.525 56.387l-11.343-35.63M55.537 56.387l-11.343-35.63M59.55 56.387l-11.342-35.63M63.562 56.387l-11.356-35.63M67.575 56.387l-11.357-35.63M28.16 20.757h29.56M30.045 26.697h29.561M31.93 32.638h29.576M33.83 38.58h29.562M35.716 44.505h29.576M37.616 50.446h29.561M39.502 56.387h29.562" stroke="#FEF7EC" stroke-miterlimit="10" stroke-linecap="round" stroke-linejoin="round"/><defs><linearGradient id="a" x1="104.375" y1="57.968" x2="82.509" y2="95.842" gradientUnits="userSpaceOnUse"><stop offset=".002" stop-color="#28C985"/><stop offset="1" stop-color="#18808A"/></linearGradient><linearGradient id="b" x1="92.807" y1="18.96" x2="69.115" y2="59.995" gradientUnits="userSpaceOnUse"><stop offset=".002" stop-color="#28C985"/><stop offset="1" stop-color="#18808A"/></linearGradient><linearGradient id="c" x1="70.916" y1="58.541" x2="50.28" y2="94.283" gradientUnits="userSpaceOnUse"><stop offset=".002" stop-color="#28C985"/><stop offset="1" stop-color="#18808A"/></linearGradient><linearGradient id="d" x1="58.927" y1="20.703" x2="38.291" y2="56.445" gradientUnits="userSpaceOnUse"><stop offset=".002" stop-color="#28C985"/><stop offset="1" stop-color="#18808A"/></linearGradient></defs></svg>