<svg width="136" height="99" viewBox="0 0 136 99" fill="none" xmlns="http://www.w3.org/2000/svg">
<path d="M113.568 0C102.949 0 94.1016 7.58535 92.145 17.6235H103.544L111.782 43.5981C112.377 43.6406 112.973 43.669 113.583 43.669C125.634 43.669 135.417 33.9002 135.417 21.8345C135.403 9.7688 125.62 0 113.568 0Z" fill="#F5AE3D"/>
<path d="M2 17.624H103.53L128.966 97.3624H27.4216" stroke="#062023" stroke-width="3" stroke-miterlimit="10" stroke-linecap="round" stroke-linejoin="round"/>
<path d="M103.531 17.624L128.967 97.3624" stroke="#062023" stroke-width="3" stroke-miterlimit="10" stroke-linecap="round" stroke-linejoin="round"/>
<path d="M92.2588 17.624L117.68 97.3624" stroke="#062023" stroke-width="3" stroke-miterlimit="10" stroke-linecap="round" stroke-linejoin="round"/>
<path d="M80.9731 17.624L106.395 97.3624" stroke="#062023" stroke-width="3" stroke-miterlimit="10" stroke-linecap="round" stroke-linejoin="round"/>
<path d="M69.687 17.624L95.1228 97.3624" stroke="#062023" stroke-width="3" stroke-miterlimit="10" stroke-linecap="round" stroke-linejoin="round"/>
<path d="M58.4155 17.624L83.8371 97.3624" stroke="#062023" stroke-width="3" stroke-miterlimit="10" stroke-linecap="round" stroke-linejoin="round"/>
<path d="M47.1294 17.624L72.551 97.3624" stroke="#062023" stroke-width="3" stroke-miterlimit="10" stroke-linecap="round" stroke-linejoin="round"/>
<path d="M35.8438 17.624L61.2795 97.3624" stroke="#062023" stroke-width="3" stroke-miterlimit="10" stroke-linecap="round" stroke-linejoin="round"/>
<path d="M24.5576 17.624L49.9934 97.3624" stroke="#062023" stroke-width="3" stroke-miterlimit="10" stroke-linecap="round" stroke-linejoin="round"/>
<path d="M13.2861 17.624L38.7077 97.3624" stroke="#062023" stroke-width="3" stroke-miterlimit="10" stroke-linecap="round" stroke-linejoin="round"/>
<path d="M2 17.624L27.4216 97.3624" stroke="#062023" stroke-width="3" stroke-miterlimit="10" stroke-linecap="round" stroke-linejoin="round"/>
<path d="M23.4941 85.0418C23.4941 83.227 26.0179 81.7666 29.1371 81.7666C32.2563 81.7666 34.78 83.2411 34.78 85.0418C34.78 83.227 37.3037 81.7666 40.4229 81.7666C43.5422 81.7666 46.0659 83.2411 46.0659 85.0418C46.0659 83.227 48.5896 81.7666 51.7088 81.7666C54.828 81.7666 57.3518 83.2411 57.3518 85.0418C57.3518 83.227 59.8755 81.7666 62.9947 81.7666C66.1139 81.7666 68.6376 83.2411 68.6376 85.0418C68.6376 83.227 71.1614 81.7666 74.2806 81.7666C77.3998 81.7666 79.9235 83.2411 79.9235 85.0418C79.9235 83.227 82.4472 81.7666 85.5664 81.7666C88.6857 81.7666 91.2094 83.2411 91.2094 85.0418C91.2094 83.227 93.7331 81.7666 96.8523 81.7666C99.9715 81.7666 102.495 83.2411 102.495 85.0418C102.495 83.227 105.019 81.7666 108.138 81.7666C111.257 81.7666 113.781 83.2411 113.781 85.0418C113.781 83.227 116.305 81.7666 119.424 81.7666C122.543 81.7666 125.067 83.2411 125.067 85.0418" stroke="#062023" stroke-width="3" stroke-miterlimit="10" stroke-linecap="round" stroke-linejoin="round"/>
<path d="M18.0923 68.1267C18.0923 66.3119 20.616 64.8516 23.7352 64.8516C26.8544 64.8516 29.3782 66.3261 29.3782 68.1267C29.3782 66.3119 31.9019 64.8516 35.0211 64.8516C38.1403 64.8516 40.664 66.3261 40.664 68.1267C40.664 66.3119 43.1878 64.8516 46.307 64.8516C49.4262 64.8516 51.9499 66.3261 51.9499 68.1267C51.9499 66.3119 54.4736 64.8516 57.5928 64.8516C60.712 64.8516 63.2358 66.3261 63.2358 68.1267C63.2358 66.3119 65.7595 64.8516 68.8787 64.8516C71.9979 64.8516 74.5216 66.3261 74.5216 68.1267C74.5216 66.3119 77.0454 64.8516 80.1646 64.8516C83.2838 64.8516 85.8075 66.3261 85.8075 68.1267C85.8075 66.3119 88.3312 64.8516 91.4505 64.8516C94.5697 64.8516 97.0934 66.3261 97.0934 68.1267C97.0934 66.3119 99.6171 64.8516 102.736 64.8516C105.856 64.8516 108.379 66.3261 108.379 68.1267C108.379 66.3119 110.903 64.8516 114.022 64.8516C117.141 64.8516 119.665 66.3261 119.665 68.1267" stroke="#062023" stroke-width="3" stroke-miterlimit="10" stroke-linecap="round" stroke-linejoin="round"/>
<path d="M12.6904 51.198C12.6904 49.3832 15.2142 47.9229 18.3334 47.9229C21.4526 47.9229 23.9763 49.3974 23.9763 51.198C23.9763 49.3832 26.5 47.9229 29.6192 47.9229C32.7384 47.9229 35.2622 49.3974 35.2622 51.198C35.2622 49.3832 37.7859 47.9229 40.9051 47.9229C44.0243 47.9229 46.548 49.3974 46.548 51.198C46.548 49.3832 49.0718 47.9229 52.191 47.9229C55.3102 47.9229 57.8339 49.3974 57.8339 51.198C57.8339 49.3832 60.3576 47.9229 63.4769 47.9229C66.5961 47.9229 69.1198 49.3974 69.1198 51.198C69.1198 49.3832 71.6435 47.9229 74.7627 47.9229C77.8819 47.9229 80.4057 49.3974 80.4057 51.198C80.4057 49.3832 82.9294 47.9229 86.0486 47.9229C89.1678 47.9229 91.6915 49.3974 91.6915 51.198C91.6915 49.3832 94.2153 47.9229 97.3345 47.9229C100.454 47.9229 102.977 49.3974 102.977 51.198C102.977 49.3832 105.501 47.9229 108.62 47.9229C111.74 47.9229 114.263 49.3974 114.263 51.198" stroke="#062023" stroke-width="3" stroke-miterlimit="10" stroke-linecap="round" stroke-linejoin="round"/>
<path d="M7.28857 34.2693C7.28857 32.4545 9.8123 30.9941 12.9315 30.9941C16.0507 30.9941 18.5744 32.4687 18.5744 34.2693C18.5744 32.4545 21.0982 30.9941 24.2174 30.9941C27.3366 30.9941 29.8603 32.4687 29.8603 34.2693C29.8603 32.4545 32.384 30.9941 35.5033 30.9941C38.6225 30.9941 41.1462 32.4687 41.1462 34.2693C41.1462 32.4545 43.6699 30.9941 46.7891 30.9941C49.9083 30.9941 52.4321 32.4687 52.4321 34.2693C52.4321 32.4545 54.9558 30.9941 58.075 30.9941C61.1942 30.9941 63.7179 32.4687 63.7179 34.2693C63.7179 32.4545 66.2417 30.9941 69.3609 30.9941C72.4801 30.9941 75.0038 32.4687 75.0038 34.2693C75.0038 32.4545 77.5275 30.9941 80.6467 30.9941C83.766 30.9941 86.2897 32.4687 86.2897 34.2693C86.2897 32.4545 88.8134 30.9941 91.9326 30.9941C95.0518 30.9941 97.5755 32.4687 97.5755 34.2693C97.5755 32.4545 100.099 30.9941 103.218 30.9941C106.338 30.9941 108.861 32.4687 108.861 34.2693" stroke="#062023" stroke-width="3" stroke-miterlimit="10" stroke-linecap="round" stroke-linejoin="round"/>
<path d="M114.887 94.7807H84.2625L72.5654 58.0449H103.19L114.887 94.7807Z" fill="url(#paint0_linear_77_1313)"/>
<path d="M85.3685 94.2275L74.0259 58.5977" stroke="#FEF7EC" stroke-miterlimit="10" stroke-linecap="round" stroke-linejoin="round"/>
<path d="M89.3807 94.2275L78.0381 58.5977" stroke="#FEF7EC" stroke-miterlimit="10" stroke-linecap="round" stroke-linejoin="round"/>
<path d="M93.3929 94.2275L82.0361 58.5977" stroke="#FEF7EC" stroke-miterlimit="10" stroke-linecap="round" stroke-linejoin="round"/>
<path d="M97.3914 94.2275L86.0488 58.5977" stroke="#FEF7EC" stroke-miterlimit="10" stroke-linecap="round" stroke-linejoin="round"/>
<path d="M101.404 94.2275L90.061 58.5977" stroke="#FEF7EC" stroke-miterlimit="10" stroke-linecap="round" stroke-linejoin="round"/>
<path d="M105.416 94.2275L94.0737 58.5977" stroke="#FEF7EC" stroke-miterlimit="10" stroke-linecap="round" stroke-linejoin="round"/>
<path d="M109.429 94.2275L98.0864 58.5977" stroke="#FEF7EC" stroke-miterlimit="10" stroke-linecap="round" stroke-linejoin="round"/>
<path d="M113.441 94.2275L102.084 58.5977" stroke="#FEF7EC" stroke-miterlimit="10" stroke-linecap="round" stroke-linejoin="round"/>
<path d="M86.1199 94.2275L74.7773 58.5977" stroke="#FEF7EC" stroke-miterlimit="10" stroke-linecap="round" stroke-linejoin="round"/>
<path d="M90.1321 94.2275L78.7754 58.5977" stroke="#FEF7EC" stroke-miterlimit="10" stroke-linecap="round" stroke-linejoin="round"/>
<path d="M94.1307 94.2275L82.7881 58.5977" stroke="#FEF7EC" stroke-miterlimit="10" stroke-linecap="round" stroke-linejoin="round"/>
<path d="M98.1429 94.2275L86.8003 58.5977" stroke="#FEF7EC" stroke-miterlimit="10" stroke-linecap="round" stroke-linejoin="round"/>
<path d="M102.156 94.2275L90.813 58.5977" stroke="#FEF7EC" stroke-miterlimit="10" stroke-linecap="round" stroke-linejoin="round"/>
<path d="M106.168 94.2275L94.8257 58.5977" stroke="#FEF7EC" stroke-miterlimit="10" stroke-linecap="round" stroke-linejoin="round"/>
<path d="M110.18 94.2275L98.8237 58.5977" stroke="#FEF7EC" stroke-miterlimit="10" stroke-linecap="round" stroke-linejoin="round"/>
<path d="M114.179 94.2275L102.836 58.5977" stroke="#FEF7EC" stroke-miterlimit="10" stroke-linecap="round" stroke-linejoin="round"/>
<path d="M84.617 94.2275L73.2744 58.5977" stroke="#FEF7EC" stroke-miterlimit="10" stroke-linecap="round" stroke-linejoin="round"/>
<path d="M88.6292 94.2275L77.2725 58.5977" stroke="#FEF7EC" stroke-miterlimit="10" stroke-linecap="round" stroke-linejoin="round"/>
<path d="M92.6419 94.2275L81.2852 58.5977" stroke="#FEF7EC" stroke-miterlimit="10" stroke-linecap="round" stroke-linejoin="round"/>
<path d="M96.6546 94.2275L85.2979 58.5977" stroke="#FEF7EC" stroke-miterlimit="10" stroke-linecap="round" stroke-linejoin="round"/>
<path d="M100.653 94.2275L89.3101 58.5977" stroke="#FEF7EC" stroke-miterlimit="10" stroke-linecap="round" stroke-linejoin="round"/>
<path d="M104.665 94.2275L93.3228 58.5977" stroke="#FEF7EC" stroke-miterlimit="10" stroke-linecap="round" stroke-linejoin="round"/>
<path d="M108.678 94.2275L97.335 58.5977" stroke="#FEF7EC" stroke-miterlimit="10" stroke-linecap="round" stroke-linejoin="round"/>
<path d="M112.69 94.2275L101.333 58.5977" stroke="#FEF7EC" stroke-miterlimit="10" stroke-linecap="round" stroke-linejoin="round"/>
<path d="M73.2744 58.5977H102.836" stroke="#FEF7EC" stroke-miterlimit="10" stroke-linecap="round" stroke-linejoin="round"/>
<path d="M75.1597 64.5391H104.735" stroke="#FEF7EC" stroke-miterlimit="10" stroke-linecap="round" stroke-linejoin="round"/>
<path d="M77.0459 70.4795H106.622" stroke="#FEF7EC" stroke-miterlimit="10" stroke-linecap="round" stroke-linejoin="round"/>
<path d="M78.9458 76.4062H108.507" stroke="#FEF7EC" stroke-miterlimit="10" stroke-linecap="round" stroke-linejoin="round"/>
<path d="M80.8315 82.3467H110.407" stroke="#FEF7EC" stroke-miterlimit="10" stroke-linecap="round" stroke-linejoin="round"/>
<path d="M82.7314 88.2871H112.293" stroke="#FEF7EC" stroke-miterlimit="10" stroke-linecap="round" stroke-linejoin="round"/>
<path d="M84.6172 94.2275H114.179" stroke="#FEF7EC" stroke-miterlimit="10" stroke-linecap="round" stroke-linejoin="round"/>
<path d="M102.637 56.9399H72.0261L60.3291 20.2041H90.9399L102.637 56.9399Z" fill="url(#paint1_linear_77_1313)"/>
<path d="M73.118 56.3867L61.7754 20.7568" stroke="#FEF7EC" stroke-miterlimit="10" stroke-linecap="round" stroke-linejoin="round"/>
<path d="M77.1307 56.3867L65.7881 20.7568" stroke="#FEF7EC" stroke-miterlimit="10" stroke-linecap="round" stroke-linejoin="round"/>
<path d="M81.1429 56.3867L69.8003 20.7568" stroke="#FEF7EC" stroke-miterlimit="10" stroke-linecap="round" stroke-linejoin="round"/>
<path d="M85.1556 56.3867L73.813 20.7568" stroke="#FEF7EC" stroke-miterlimit="10" stroke-linecap="round" stroke-linejoin="round"/>
<path d="M89.1678 56.3867L77.8252 20.7568" stroke="#FEF7EC" stroke-miterlimit="10" stroke-linecap="round" stroke-linejoin="round"/>
<path d="M93.1663 56.3867L81.8237 20.7568" stroke="#FEF7EC" stroke-miterlimit="10" stroke-linecap="round" stroke-linejoin="round"/>
<path d="M97.1785 56.3867L85.8359 20.7568" stroke="#FEF7EC" stroke-miterlimit="10" stroke-linecap="round" stroke-linejoin="round"/>
<path d="M101.191 56.3867L89.8481 20.7568" stroke="#FEF7EC" stroke-miterlimit="10" stroke-linecap="round" stroke-linejoin="round"/>
<path d="M73.8694 56.3867L62.5269 20.7568" stroke="#FEF7EC" stroke-miterlimit="10" stroke-linecap="round" stroke-linejoin="round"/>
<path d="M77.8816 56.3867L66.5391 20.7568" stroke="#FEF7EC" stroke-miterlimit="10" stroke-linecap="round" stroke-linejoin="round"/>
<path d="M81.8943 56.3867L70.5518 20.7568" stroke="#FEF7EC" stroke-miterlimit="10" stroke-linecap="round" stroke-linejoin="round"/>
<path d="M85.9066 56.3867L74.564 20.7568" stroke="#FEF7EC" stroke-miterlimit="10" stroke-linecap="round" stroke-linejoin="round"/>
<path d="M89.9051 56.3867L78.5625 20.7568" stroke="#FEF7EC" stroke-miterlimit="10" stroke-linecap="round" stroke-linejoin="round"/>
<path d="M93.9173 56.3867L82.5747 20.7568" stroke="#FEF7EC" stroke-miterlimit="10" stroke-linecap="round" stroke-linejoin="round"/>
<path d="M97.93 56.3867L86.5874 20.7568" stroke="#FEF7EC" stroke-miterlimit="10" stroke-linecap="round" stroke-linejoin="round"/>
<path d="M101.942 56.3867L90.5996 20.7568" stroke="#FEF7EC" stroke-miterlimit="10" stroke-linecap="round" stroke-linejoin="round"/>
<path d="M72.3807 56.3867L61.0239 20.7568" stroke="#FEF7EC" stroke-miterlimit="10" stroke-linecap="round" stroke-linejoin="round"/>
<path d="M76.3787 56.3867L65.0361 20.7568" stroke="#FEF7EC" stroke-miterlimit="10" stroke-linecap="round" stroke-linejoin="round"/>
<path d="M80.3914 56.3867L69.0488 20.7568" stroke="#FEF7EC" stroke-miterlimit="10" stroke-linecap="round" stroke-linejoin="round"/>
<path d="M84.4036 56.3867L73.061 20.7568" stroke="#FEF7EC" stroke-miterlimit="10" stroke-linecap="round" stroke-linejoin="round"/>
<path d="M88.4158 56.3867L77.0591 20.7568" stroke="#FEF7EC" stroke-miterlimit="10" stroke-linecap="round" stroke-linejoin="round"/>
<path d="M92.4285 56.3867L81.0718 20.7568" stroke="#FEF7EC" stroke-miterlimit="10" stroke-linecap="round" stroke-linejoin="round"/>
<path d="M96.4266 56.3867L85.084 20.7568" stroke="#FEF7EC" stroke-miterlimit="10" stroke-linecap="round" stroke-linejoin="round"/>
<path d="M100.439 56.3867L89.0967 20.7568" stroke="#FEF7EC" stroke-miterlimit="10" stroke-linecap="round" stroke-linejoin="round"/>
<path d="M61.0239 20.7568H90.5997" stroke="#FEF7EC" stroke-miterlimit="10" stroke-linecap="round" stroke-linejoin="round"/>
<path d="M62.9238 26.6973H92.4854" stroke="#FEF7EC" stroke-miterlimit="10" stroke-linecap="round" stroke-linejoin="round"/>
<path d="M64.8091 32.6377H94.3707" stroke="#FEF7EC" stroke-miterlimit="10" stroke-linecap="round" stroke-linejoin="round"/>
<path d="M66.6953 38.5791H96.2711" stroke="#FEF7EC" stroke-miterlimit="10" stroke-linecap="round" stroke-linejoin="round"/>
<path d="M68.5947 44.5049H98.1563" stroke="#FEF7EC" stroke-miterlimit="10" stroke-linecap="round" stroke-linejoin="round"/>
<path d="M70.4805 50.4463H100.056" stroke="#FEF7EC" stroke-miterlimit="10" stroke-linecap="round" stroke-linejoin="round"/>
<path d="M72.3804 56.3867H101.942" stroke="#FEF7EC" stroke-miterlimit="10" stroke-linecap="round" stroke-linejoin="round"/>
<path d="M81.7527 94.7807H51.1419L39.4448 58.0449H70.0556L81.7527 94.7807Z" fill="url(#paint2_linear_77_1313)"/>
<path d="M52.2337 94.2275L40.8911 58.5977" stroke="#FEF7EC" stroke-miterlimit="10" stroke-linecap="round" stroke-linejoin="round"/>
<path d="M56.2459 94.2275L44.9033 58.5977" stroke="#FEF7EC" stroke-miterlimit="10" stroke-linecap="round" stroke-linejoin="round"/>
<path d="M60.2586 94.2275L48.916 58.5977" stroke="#FEF7EC" stroke-miterlimit="10" stroke-linecap="round" stroke-linejoin="round"/>
<path d="M64.2708 94.2275L52.9282 58.5977" stroke="#FEF7EC" stroke-miterlimit="10" stroke-linecap="round" stroke-linejoin="round"/>
<path d="M68.2835 94.2275L56.9268 58.5977" stroke="#FEF7EC" stroke-miterlimit="10" stroke-linecap="round" stroke-linejoin="round"/>
<path d="M72.282 94.2275L60.9395 58.5977" stroke="#FEF7EC" stroke-miterlimit="10" stroke-linecap="round" stroke-linejoin="round"/>
<path d="M76.2938 94.2275L64.9512 58.5977" stroke="#FEF7EC" stroke-miterlimit="10" stroke-linecap="round" stroke-linejoin="round"/>
<path d="M80.3065 94.2275L68.9639 58.5977" stroke="#FEF7EC" stroke-miterlimit="10" stroke-linecap="round" stroke-linejoin="round"/>
<path d="M52.9852 94.2275L41.6426 58.5977" stroke="#FEF7EC" stroke-miterlimit="10" stroke-linecap="round" stroke-linejoin="round"/>
<path d="M56.9979 94.2275L45.6553 58.5977" stroke="#FEF7EC" stroke-miterlimit="10" stroke-linecap="round" stroke-linejoin="round"/>
<path d="M61.0101 94.2275L49.6675 58.5977" stroke="#FEF7EC" stroke-miterlimit="10" stroke-linecap="round" stroke-linejoin="round"/>
<path d="M65.0223 94.2275L53.6655 58.5977" stroke="#FEF7EC" stroke-miterlimit="10" stroke-linecap="round" stroke-linejoin="round"/>
<path d="M69.0208 94.2275L57.6782 58.5977" stroke="#FEF7EC" stroke-miterlimit="10" stroke-linecap="round" stroke-linejoin="round"/>
<path d="M73.0335 94.2275L61.6909 58.5977" stroke="#FEF7EC" stroke-miterlimit="10" stroke-linecap="round" stroke-linejoin="round"/>
<path d="M77.0457 94.2275L65.7031 58.5977" stroke="#FEF7EC" stroke-miterlimit="10" stroke-linecap="round" stroke-linejoin="round"/>
<path d="M81.0584 94.2275L69.7158 58.5977" stroke="#FEF7EC" stroke-miterlimit="10" stroke-linecap="round" stroke-linejoin="round"/>
<path d="M51.4964 94.2275L40.1396 58.5977" stroke="#FEF7EC" stroke-miterlimit="10" stroke-linecap="round" stroke-linejoin="round"/>
<path d="M55.4949 94.2275L44.1523 58.5977" stroke="#FEF7EC" stroke-miterlimit="10" stroke-linecap="round" stroke-linejoin="round"/>
<path d="M59.5071 94.2275L48.1646 58.5977" stroke="#FEF7EC" stroke-miterlimit="10" stroke-linecap="round" stroke-linejoin="round"/>
<path d="M63.5193 94.2275L52.1768 58.5977" stroke="#FEF7EC" stroke-miterlimit="10" stroke-linecap="round" stroke-linejoin="round"/>
<path d="M67.5321 94.2275L56.1753 58.5977" stroke="#FEF7EC" stroke-miterlimit="10" stroke-linecap="round" stroke-linejoin="round"/>
<path d="M71.5443 94.2275L60.1875 58.5977" stroke="#FEF7EC" stroke-miterlimit="10" stroke-linecap="round" stroke-linejoin="round"/>
<path d="M75.5428 94.2275L64.2002 58.5977" stroke="#FEF7EC" stroke-miterlimit="10" stroke-linecap="round" stroke-linejoin="round"/>
<path d="M79.555 94.2275L68.2124 58.5977" stroke="#FEF7EC" stroke-miterlimit="10" stroke-linecap="round" stroke-linejoin="round"/>
<path d="M40.1396 58.5977H69.7154" stroke="#FEF7EC" stroke-miterlimit="10" stroke-linecap="round" stroke-linejoin="round"/>
<path d="M42.0396 64.5391H71.6012" stroke="#FEF7EC" stroke-miterlimit="10" stroke-linecap="round" stroke-linejoin="round"/>
<path d="M43.9253 70.4795H73.4869" stroke="#FEF7EC" stroke-miterlimit="10" stroke-linecap="round" stroke-linejoin="round"/>
<path d="M45.811 76.4062H75.3868" stroke="#FEF7EC" stroke-miterlimit="10" stroke-linecap="round" stroke-linejoin="round"/>
<path d="M47.7109 82.3467H77.2725" stroke="#FEF7EC" stroke-miterlimit="10" stroke-linecap="round" stroke-linejoin="round"/>
<path d="M49.5962 88.2871H79.1578" stroke="#FEF7EC" stroke-miterlimit="10" stroke-linecap="round" stroke-linejoin="round"/>
<path d="M51.4966 94.2275H81.0582" stroke="#FEF7EC" stroke-miterlimit="10" stroke-linecap="round" stroke-linejoin="round"/>
<path d="M69.7722 56.9399H39.1472L27.4502 20.2041H58.0752L69.7722 56.9399Z" fill="url(#paint3_linear_77_1313)"/>
<path d="M40.2532 56.3867L28.9106 20.7568" stroke="#FEF7EC" stroke-miterlimit="10" stroke-linecap="round" stroke-linejoin="round"/>
<path d="M44.2655 56.3867L32.9087 20.7568" stroke="#FEF7EC" stroke-miterlimit="10" stroke-linecap="round" stroke-linejoin="round"/>
<path d="M48.264 56.3867L36.9214 20.7568" stroke="#FEF7EC" stroke-miterlimit="10" stroke-linecap="round" stroke-linejoin="round"/>
<path d="M52.2762 56.3867L40.9336 20.7568" stroke="#FEF7EC" stroke-miterlimit="10" stroke-linecap="round" stroke-linejoin="round"/>
<path d="M56.2884 56.3867L44.9458 20.7568" stroke="#FEF7EC" stroke-miterlimit="10" stroke-linecap="round" stroke-linejoin="round"/>
<path d="M60.3011 56.3867L48.9585 20.7568" stroke="#FEF7EC" stroke-miterlimit="10" stroke-linecap="round" stroke-linejoin="round"/>
<path d="M64.3133 56.3867L52.9707 20.7568" stroke="#FEF7EC" stroke-miterlimit="10" stroke-linecap="round" stroke-linejoin="round"/>
<path d="M68.3118 56.3867L56.9692 20.7568" stroke="#FEF7EC" stroke-miterlimit="10" stroke-linecap="round" stroke-linejoin="round"/>
<path d="M41.0047 56.3867L29.6479 20.7568" stroke="#FEF7EC" stroke-miterlimit="10" stroke-linecap="round" stroke-linejoin="round"/>
<path d="M45.0032 56.3867L33.6606 20.7568" stroke="#FEF7EC" stroke-miterlimit="10" stroke-linecap="round" stroke-linejoin="round"/>
<path d="M49.015 56.3867L37.6724 20.7568" stroke="#FEF7EC" stroke-miterlimit="10" stroke-linecap="round" stroke-linejoin="round"/>
<path d="M53.0276 56.3867L41.6851 20.7568" stroke="#FEF7EC" stroke-miterlimit="10" stroke-linecap="round" stroke-linejoin="round"/>
<path d="M57.0403 56.3867L45.6978 20.7568" stroke="#FEF7EC" stroke-miterlimit="10" stroke-linecap="round" stroke-linejoin="round"/>
<path d="M61.0526 56.3867L49.6958 20.7568" stroke="#FEF7EC" stroke-miterlimit="10" stroke-linecap="round" stroke-linejoin="round"/>
<path d="M65.0511 56.3867L53.7085 20.7568" stroke="#FEF7EC" stroke-miterlimit="10" stroke-linecap="round" stroke-linejoin="round"/>
<path d="M69.0633 56.3867L57.7207 20.7568" stroke="#FEF7EC" stroke-miterlimit="10" stroke-linecap="round" stroke-linejoin="round"/>
<path d="M39.5018 56.3867L28.1592 20.7568" stroke="#FEF7EC" stroke-miterlimit="10" stroke-linecap="round" stroke-linejoin="round"/>
<path d="M43.514 56.3867L32.1572 20.7568" stroke="#FEF7EC" stroke-miterlimit="10" stroke-linecap="round" stroke-linejoin="round"/>
<path d="M47.5267 56.3867L36.1699 20.7568" stroke="#FEF7EC" stroke-miterlimit="10" stroke-linecap="round" stroke-linejoin="round"/>
<path d="M51.5247 56.3867L40.1821 20.7568" stroke="#FEF7EC" stroke-miterlimit="10" stroke-linecap="round" stroke-linejoin="round"/>
<path d="M55.5369 56.3867L44.1943 20.7568" stroke="#FEF7EC" stroke-miterlimit="10" stroke-linecap="round" stroke-linejoin="round"/>
<path d="M59.5501 56.3867L48.2075 20.7568" stroke="#FEF7EC" stroke-miterlimit="10" stroke-linecap="round" stroke-linejoin="round"/>
<path d="M63.5623 56.3867L52.2056 20.7568" stroke="#FEF7EC" stroke-miterlimit="10" stroke-linecap="round" stroke-linejoin="round"/>
<path d="M67.5745 56.3867L56.2178 20.7568" stroke="#FEF7EC" stroke-miterlimit="10" stroke-linecap="round" stroke-linejoin="round"/>
<path d="M28.1592 20.7568H57.7208" stroke="#FEF7EC" stroke-miterlimit="10" stroke-linecap="round" stroke-linejoin="round"/>
<path d="M30.0449 26.6973H59.6065" stroke="#FEF7EC" stroke-miterlimit="10" stroke-linecap="round" stroke-linejoin="round"/>
<path d="M31.9307 32.6377H61.5064" stroke="#FEF7EC" stroke-miterlimit="10" stroke-linecap="round" stroke-linejoin="round"/>
<path d="M33.8306 38.5791H63.3922" stroke="#FEF7EC" stroke-miterlimit="10" stroke-linecap="round" stroke-linejoin="round"/>
<path d="M35.7158 44.5049H65.2916" stroke="#FEF7EC" stroke-miterlimit="10" stroke-linecap="round" stroke-linejoin="round"/>
<path d="M37.6157 50.4463H67.1773" stroke="#FEF7EC" stroke-miterlimit="10" stroke-linecap="round" stroke-linejoin="round"/>
<path d="M39.502 56.3867H69.0636" stroke="#FEF7EC" stroke-miterlimit="10" stroke-linecap="round" stroke-linejoin="round"/>
<defs>
<linearGradient id="paint0_linear_77_1313" x1="104.375" y1="57.9678" x2="82.5087" y2="95.8419" gradientUnits="userSpaceOnUse">
<stop offset="0.00249518" stop-color="#28C985"/>
<stop offset="1" stop-color="#18808A"/>
</linearGradient>
<linearGradient id="paint1_linear_77_1313" x1="92.807" y1="18.9605" x2="69.1155" y2="59.9953" gradientUnits="userSpaceOnUse">
<stop offset="0.00249518" stop-color="#28C985"/>
<stop offset="1" stop-color="#18808A"/>
</linearGradient>
<linearGradient id="paint2_linear_77_1313" x1="70.9159" y1="58.5407" x2="50.28" y2="94.2831" gradientUnits="userSpaceOnUse">
<stop offset="0.00249518" stop-color="#28C985"/>
<stop offset="1" stop-color="#18808A"/>
</linearGradient>
<linearGradient id="paint3_linear_77_1313" x1="58.9274" y1="20.7029" x2="38.2915" y2="56.4453" gradientUnits="userSpaceOnUse">
<stop offset="0.00249518" stop-color="#28C985"/>
<stop offset="1" stop-color="#18808A"/>
</linearGradient>
</defs>
</svg>
