<svg width="113" height="97" fill="none" xmlns="http://www.w3.org/2000/svg"><rect x="82.581" width="26.216" height="26.216" rx="13.108" fill="#F5AE3D"/><g clip-path="url(#a)"><path d="M95.386 60.041v32.61c0 1.178-.43 2.198-1.287 3.058-.858.86-1.874 1.29-3.049 1.29H65.036V70.913H47.693V97H21.678c-1.174 0-2.19-.43-3.049-1.291-.858-.86-1.287-1.88-1.287-3.057v-32.61a.93.93 0 0 1 .034-.204.93.93 0 0 0 .034-.204L56.364 27.43l38.954 32.203c.045.09.068.226.068.407zm15.107-4.687-4.2 5.027c-.361.408-.835.657-1.423.747h-.203c-.587 0-1.061-.158-1.422-.475l-46.88-39.2-46.881 39.2c-.542.362-1.084.52-1.626.475-.587-.09-1.061-.34-1.423-.747l-4.2-5.027c-.361-.453-.52-.985-.474-1.597.045-.611.293-1.098.745-1.46L51.216 11.6c1.445-1.177 3.16-1.766 5.148-1.766 1.987 0 3.704.589 5.149 1.766l16.53 13.86V12.213c0-.634.203-1.155.61-1.563.406-.407.925-.611 1.558-.611h13.007c.632 0 1.152.204 1.558.611.407.408.61.929.61 1.563v27.719l14.836 12.364c.452.363.7.85.746 1.461.045.612-.113 1.144-.475 1.597z" fill="url(#b)"/></g><defs><linearGradient id="b" x1="56.364" y1="9.835" x2="56.364" y2="97" gradientUnits="userSpaceOnUse"><stop stop-color="#28C985"/><stop offset="1" stop-color="#18808A"/></linearGradient><clipPath id="a"><path fill="#fff" transform="translate(0 7.865)" d="M0 0h112.73v89.135H0z"/></clipPath></defs></svg>