<svg width="141" height="90" fill="none" xmlns="http://www.w3.org/2000/svg"><path d="M81.165 34.144 7.006 45.237v41.417l74.16-52.51z" stroke="#062023" stroke-width=".5" stroke-miterlimit="10" stroke-linecap="round" stroke-linejoin="round"/><path d="m7.006 86.654 74.16-52.51 9.011-1.309 26.113-20.91 18.091 32.54v42.19H7.006z" fill="url(#a)"/><path d="M3.181 89.205 128.122 1M91.117 32.197l42.71 11.127M73.766 39.513v11.429M75.562 53.626c.47 1.209-.302 2.618-1.611 2.736-.067 0-.118.017-.185.017s-.117 0-.184-.017c-1.293-.118-2.081-1.494-1.612-2.719l.487-1.275c.084-.235.134-.47.134-.722v-.302a.38.38 0 0 1 .386-.386h1.578a.38.38 0 0 1 .386.386v.302c0 .252.05.504.134.739l.487 1.241zM60.003 73.666l-2.634 1.075a2.094 2.094 0 0 0-1.158 2.685l2.131 5.554a.49.49 0 0 0 .47.32h29.821a.532.532 0 0 0 .47-.32l2.182-5.722a2.087 2.087 0 0 0-.99-2.601l-2.45-1.26" stroke="#062023" stroke-width=".5" stroke-miterlimit="10" stroke-linecap="round" stroke-linejoin="round"/><path d="M73.01 78.097H60.74a.62.62 0 0 1-.62-.621v-5.152a.62.62 0 0 1 .62-.621H73.01a.62.62 0 0 1 .621.62v5.153c.017.335-.268.62-.62.62zM73.094 81.553H59.283a.62.62 0 0 1-.621-.62v-1.31a.62.62 0 0 1 .62-.62h13.812a.62.62 0 0 1 .62.62v1.31c.018.352-.268.62-.62.62zM88.567 81.553H74.755a.62.62 0 0 1-.62-.62v-1.31a.62.62 0 0 1 .62-.62h13.812a.62.62 0 0 1 .62.62v1.31a.61.61 0 0 1-.62.62zM87.007 78.097H74.739a.62.62 0 0 1-.62-.621v-5.152a.62.62 0 0 1 .62-.621h12.268a.62.62 0 0 1 .62.62v5.153c.017.335-.268.62-.62.62zM59.046 83.299l-.201 3.088c0 .084.1.1.134.033l1.343-3.121M88.414 83.299l.201 3.088c0 .084-.1.1-.134.033L87.14 83.3M44.984 86.638H42.45c-.655 0-1.225-.403-1.343-.957l-.638-3.188c-.15-.705.487-1.36 1.343-1.36h3.826c.84 0 1.477.655 1.343 1.36l-.638 3.188c-.134.554-.705.957-1.36.957zM44.448 81.133s-.034-.872.62-1.577c.655-.705 2.333-3.121 3.122-3.34.789-.218 2.534-.15 2.534-.15s-1.863.117-2.333.822c-.47.705-1.057 2.45-2.483 2.92-.537.168-.823 1.309-.823 1.309" stroke="#062023" stroke-width=".5" stroke-miterlimit="10" stroke-linecap="round" stroke-linejoin="round"/><path d="M43.912 81.016s.218-4.179 2.467-5.79c1.04-.739 1.342-1.712 2.299-1.896-.504.553.134 1.88-1.175 2.466 0 0-.99.252-1.443 1.712-.286.907-.99 2.03-.99 2.03" stroke="#062023" stroke-width=".5" stroke-miterlimit="10" stroke-linecap="round" stroke-linejoin="round"/><path d="M44.162 79.237s-.235-3.725-1.124-4.229c-.89-.487-2.216-1.074-3.055-.604-.688.386-.99 1.208-1.627 1.376.839-.034 1.963-1.712 2.97-1.124.453.268 2.047.94 2.383 6.343" stroke="#062023" stroke-width=".5" stroke-miterlimit="10" stroke-linecap="round" stroke-linejoin="round"/><path d="M42.585 81.015s-1.024-2.719-1.813-3.29c-.453-.318-2.349-1.14-3.641-1.073.403.369 1.158 1.158 1.779 1.275 1.443.252 2.903 1.913 3.356 3.088" stroke="#062023" stroke-width=".5" stroke-miterlimit="10" stroke-linecap="round" stroke-linejoin="round"/><path d="M43.441 81.016s-.738-3.575-1.494-4.196c-.738-.62-1.225-1.007-1.946-1.711-.705-.705-2.316-1.377-2.803-1.377.923 0 1.292.621 1.376.873.47 1.259 2.199 1.88 2.5 2.77.454 1.375 1.645 2.433 1.595 3.64M43.86 76.888s.218-1.746.957-2.484c.184-.184.352-.738.352-1.024-.033.655.554 1.897.302 2.77M121.844 86.638V29.714M117.901 77.911V29.714M113.973 76.737V29.714M110.03 74.89V29.715M106.086 69.873V29.714M121.844 78.6c-3.944.018-15.741-3.171-15.741-8.944 0-5.186 15.741-4.212 15.741-9.247 0-4.883-15.741-4.313-15.741-9.448 0-5.572 15.741-5.253 15.741-10.136 0-4.85-15.741-11.093-15.741-11.093M121.845 29.714h-15.759" stroke="#062023" stroke-width=".5" stroke-miterlimit="10" stroke-linecap="round" stroke-linejoin="round"/><path d="M89.675 31.426 1 44.666v1.477l89.179-13.308 29.485-23.679 20.273 34.856.688-1.477-20.692-35.594-30.258 24.485z" stroke="#062023" stroke-width=".5" stroke-miterlimit="10" stroke-linecap="round" stroke-linejoin="round"/><path d="M89.675 31.426 1 44.666l33.564-19.55L119.933 6.94 89.675 31.426zM134.398 44.33l5.538-.318-20.272-34.856-3.373 2.769 18.107 32.406z" stroke="#062023" stroke-width=".5" stroke-miterlimit="10" stroke-linecap="round" stroke-linejoin="round"/><defs><linearGradient id="a" x1="7.001" y1="49.289" x2="134.373" y2="49.289" gradientUnits="userSpaceOnUse"><stop stop-color="#18808A"/><stop offset="1" stop-color="#28C985"/></linearGradient></defs></svg>