<svg width="144" height="91" fill="none" xmlns="http://www.w3.org/2000/svg"><path d="M82.532 34.708 7.112 45.989v42.122l75.42-53.404z" fill="url(#a)"/><path d="m91.698 33.376 26.557-21.266 18.398 33.094V88.11H7.095M3.22 90.706 130.288 1M92.654 32.728l43.436 11.316M75.004 40.17v11.622" stroke="#062023" stroke-width=".5" stroke-miterlimit="10" stroke-linecap="round" stroke-linejoin="round"/><path d="M76.83 54.523c.479 1.23-.306 2.663-1.638 2.782-.068 0-.12.017-.188.017s-.119 0-.187-.017c-1.314-.12-2.116-1.519-1.639-2.765l.495-1.297c.086-.239.137-.478.137-.734v-.307c0-.222.17-.392.392-.392h1.605c.222 0 .392.17.392.392v.307c0 .256.052.512.137.751l.495 1.263zM61.01 74.901l-2.68 1.093a2.13 2.13 0 0 0-1.177 2.73l2.168 5.65a.498.498 0 0 0 .477.324h30.329a.542.542 0 0 0 .478-.324l2.219-5.82a2.122 2.122 0 0 0-1.007-2.645l-2.492-1.28" stroke="#062023" stroke-width=".5" stroke-miterlimit="10" stroke-linecap="round" stroke-linejoin="round"/><path d="M74.239 79.407H61.762a.63.63 0 0 1-.631-.632v-5.24a.63.63 0 0 1 .631-.63H74.24a.63.63 0 0 1 .631.63v5.24c.017.342-.273.632-.631.632zM74.323 82.923H60.277a.63.63 0 0 1-.632-.632v-1.33a.63.63 0 0 1 .632-.632h14.046a.63.63 0 0 1 .632.631v1.331c.017.359-.273.632-.632.632zM90.06 82.923H76.014a.63.63 0 0 1-.632-.632v-1.33a.63.63 0 0 1 .632-.632H90.06a.63.63 0 0 1 .632.631v1.331a.62.62 0 0 1-.632.632zM88.47 79.407H75.995a.63.63 0 0 1-.631-.632v-5.24a.63.63 0 0 1 .631-.63h12.477a.63.63 0 0 1 .631.63v5.24c.017.342-.273.632-.632.632zM60.037 84.698l-.205 3.14c0 .086.102.103.137.034l1.365-3.174M89.906 84.698l.205 3.14c0 .086-.103.103-.137.034l-1.365-3.174M45.733 88.094h-2.577c-.666 0-1.246-.41-1.366-.973l-.648-3.242c-.154-.717.495-1.383 1.365-1.383H46.4c.853 0 1.501.666 1.365 1.383l-.649 3.242c-.136.564-.717.973-1.382.973zM45.189 82.496s-.034-.887.631-1.604c.666-.717 2.373-3.175 3.175-3.396.802-.222 2.577-.154 2.577-.154s-1.895.12-2.372.836c-.478.717-1.076 2.492-2.526 2.97-.547.17-.837 1.331-.837 1.331" stroke="#062023" stroke-width=".5" stroke-miterlimit="10" stroke-linecap="round" stroke-linejoin="round"/><path d="M44.64 82.377s.222-4.25 2.509-5.888c1.058-.751 1.365-1.741 2.338-1.929-.512.563.137 1.912-1.195 2.509 0 0-1.006.256-1.467 1.74-.29.922-1.007 2.066-1.007 2.066" stroke="#062023" stroke-width=".5" stroke-miterlimit="10" stroke-linecap="round" stroke-linejoin="round"/><path d="M44.898 80.568s-.239-3.79-1.144-4.301c-.904-.495-2.252-1.092-3.106-.615-.7.393-1.007 1.23-1.655 1.4.853-.034 1.997-1.74 3.02-1.144.461.273 2.083.956 2.424 6.452" stroke="#062023" stroke-width=".5" stroke-miterlimit="10" stroke-linecap="round" stroke-linejoin="round"/><path d="M43.293 82.377s-1.041-2.765-1.843-3.345c-.461-.325-2.39-1.16-3.704-1.093.41.376 1.178 1.178 1.81 1.298 1.467.256 2.952 1.945 3.413 3.14" stroke="#062023" stroke-width=".5" stroke-miterlimit="10" stroke-linecap="round" stroke-linejoin="round"/><path d="M44.163 82.377s-.75-3.635-1.518-4.267c-.752-.631-1.246-1.024-1.98-1.74-.717-.718-2.356-1.4-2.85-1.4.938 0 1.314.631 1.399.887.478 1.28 2.236 1.912 2.543 2.816.46 1.4 1.673 2.475 1.621 3.704M44.59 78.178s.223-1.775.974-2.526c.187-.187.358-.75.358-1.04-.034.665.563 1.928.307 2.815M123.905 88.094V30.202M119.893 79.219V30.202M115.898 78.024V30.202M111.889 76.147V30.202M107.878 71.044V30.202M123.903 79.919c-4.011.017-16.009-3.226-16.009-9.097 0-5.274 16.009-4.284 16.009-9.404 0-4.967-16.009-4.386-16.009-9.61 0-5.665 16.009-5.341 16.009-10.308 0-4.932-16.009-11.281-16.009-11.281M123.904 30.202h-16.026" stroke="#062023" stroke-width=".5" stroke-miterlimit="10" stroke-linecap="round" stroke-linejoin="round"/><path d="M91.184 31.943 1 45.41v1.502l90.696-13.534 29.987-24.082 20.618 35.449.699-1.502-21.044-36.2-30.772 24.901z" stroke="#062023" stroke-width=".5" stroke-miterlimit="10" stroke-linecap="round" stroke-linejoin="round"/><path d="M91.184 31.943 1 45.41l34.135-19.883 86.821-18.484-30.772 24.901zM136.67 45.068l5.632-.324-20.617-35.45-3.431 2.817 18.416 32.957z" stroke="#062023" stroke-width=".5" stroke-miterlimit="10" stroke-linecap="round" stroke-linejoin="round"/><defs><linearGradient id="a" x1="-12.732" y1="61.41" x2="106.321" y2="61.41" gradientUnits="userSpaceOnUse"><stop stop-color="#18808A"/><stop offset="1" stop-color="#28C985"/></linearGradient></defs></svg>